<?xml version="1.0" encoding="UTF-8" standalone="no"?>
<svg width="100%" height="100%" viewBox="0 0 3700 3700" version="1.1" xmlns="http://www.w3.org/2000/svg">
    <path id="Hundrot"
          d="M1585,2643.32C1535.3,2642.74 1435.45,2637.88 1393,2633.97C1387.23,2633.44 1381.49,2633 1380.25,2633C1378.71,2633 1378,2632.4 1378,2631.1C1378,2626.89 1386.44,2600.93 1390.55,2592.5C1392.96,2587.55 1396.02,2580.57 1397.33,2576.99C1400.6,2568.12 1405.36,2558.88 1410.97,2550.5C1419.31,2538.05 1433,2515.21 1433,2513.75C1433,2512.97 1429.43,2510.01 1425.07,2507.16C1415.26,2500.78 1411.8,2496.61 1404.17,2482C1394.95,2464.36 1389,2442.21 1389,2425.62C1389.02,2406.93 1396.33,2376.3 1406.87,2350.82C1410.13,2342.94 1414.46,2331.33 1416.49,2325C1420.66,2312.04 1420.71,2309.53 1417.13,2293.07C1414.45,2280.75 1412.57,2253.65 1413.33,2238.47C1414.27,2219.8 1417.1,2207.27 1424.11,2190.83C1427.43,2183.03 1431.53,2173.92 1433.23,2170.58C1436.27,2164.58 1436.3,2164.4 1435.21,2156.88C1434.47,2151.73 1433.29,2148.05 1431.58,2145.53C1428.64,2141.19 1427.46,2136.11 1428.51,2132.24C1428.92,2130.73 1429.57,2116.9 1429.96,2101.5C1430.59,2076.28 1430.93,2072.26 1433.4,2061C1436.62,2046.28 1441.07,2036.4 1450.07,2024C1456.36,2015.33 1466.81,1995.48 1465.68,1994.35C1465.33,1994 1461.01,1997.84 1456.07,2002.88L1447.09,2012.03L1446.08,2008.27C1441.58,1991.44 1439.61,1981.63 1439.63,1976C1439.64,1968.69 1441.46,1955.48 1443.68,1946.56C1445.31,1940.01 1445.06,1937.76 1441.37,1925C1438.17,1913.93 1437.45,1903.89 1438.95,1890.99C1440.94,1873.88 1440.51,1862.01 1437.49,1850.5C1436.05,1845 1431.68,1828.12 1427.78,1813L1420.7,1785.5L1420.87,1767C1420.96,1756.83 1421.71,1743.59 1422.53,1737.6C1424.4,1724 1431.9,1700.19 1436.92,1691.88C1442.53,1682.6 1456.4,1671.46 1472,1663.71L1484.5,1657.5L1495.5,1657.58C1512.98,1657.72 1537.88,1664.21 1555,1673.09C1563.18,1677.33 1576.63,1687.08 1585.64,1695.29C1599.76,1708.16 1617.08,1737.62 1624.86,1762C1630.14,1778.53 1630.53,1784.21 1628.04,1808.41C1625.92,1829.06 1625.27,1855.15 1626.92,1853.45C1629.58,1850.69 1637.88,1819.37 1638.03,1811.5L1638.11,1807.5L1640.31,1810.43C1641.51,1812.04 1645.72,1817.67 1649.66,1822.93C1653.6,1828.19 1664.05,1840.44 1672.87,1850.16C1685.95,1864.55 1689.94,1868.31 1694.41,1870.5L1699.91,1873.19L1723.2,1872.09C1736.02,1871.48 1751.9,1870.35 1758.5,1869.57C1777.05,1867.38 1810.9,1865.74 1827.5,1866.24C1836.91,1866.51 1854.62,1868.26 1875,1870.93C1922.12,1877.08 1931.36,1876.23 1957.58,1863.31C1974.67,1854.88 1987.8,1847.1 2002.94,1836.42C2009.3,1831.94 2014.66,1828.4 2014.85,1828.57C2015.04,1828.73 2014.27,1831.34 2013.13,1834.37C2012,1837.4 2010.21,1843.39 2009.14,1847.69C2005.53,1862.33 2005.5,1862.1 2010.01,1855.5C2016.26,1846.35 2026.07,1829.67 2031.96,1818.19C2036.66,1809.03 2038.91,1806.1 2052.1,1792.02C2071.99,1770.79 2093.86,1752.06 2110.79,1741.74C2121.24,1735.37 2138.7,1727.42 2147.5,1725.04C2151.9,1723.84 2161.12,1721.12 2168,1719C2184.82,1713.8 2193.94,1712.69 2213.5,1713.48C2243.26,1714.68 2249,1716.3 2268.25,1729.01C2279.59,1736.48 2285.15,1742.61 2290.34,1753.34C2296.03,1765.11 2298.33,1772.37 2301.62,1789C2304.28,1802.47 2304.29,1802.55 2303.12,1823C2301.64,1849.02 2300.98,1853.44 2295.41,1874.33C2287.74,1903.13 2277.4,1927.53 2265.4,1945.14C2249.87,1967.96 2241.99,1993.52 2238.17,2033.5C2237.5,2040.51 2235.97,2047.3 2233.07,2056.19C2229.15,2068.21 2228.51,2069.41 2220.87,2078.98C2209.64,2093.05 2210.07,2092.75 2161.5,2119.49C2152.7,2124.33 2142.85,2130.05 2139.61,2132.19C2136.37,2134.34 2133.34,2136.19 2132.89,2136.3C2132.43,2136.41 2128.93,2130.2 2125.11,2122.5L2118.16,2108.5L2118.09,2114C2118.03,2119.1 2119.41,2126.91 2123.49,2144.5C2124.39,2148.35 2126.25,2157.12 2127.63,2164C2129.01,2170.88 2131.88,2185.05 2134.01,2195.5C2136.13,2205.95 2138.12,2218.33 2138.42,2223C2138.72,2227.68 2140.18,2240.21 2141.67,2250.85C2144.3,2269.73 2144.34,2270.72 2143.28,2291.85C2142.3,2311.55 2141.91,2314.44 2139.02,2324C2135.17,2336.73 2129.57,2348.96 2124.08,2356.62C2117.99,2365.14 2118.19,2366.17 2130.13,2388C2135.7,2398.18 2142.28,2410.78 2144.76,2416C2152.51,2432.36 2165.49,2466.7 2170.3,2483.58C2172.53,2491.38 2178.63,2520.76 2180.49,2532.65C2180.85,2534.93 2183.2,2540.33 2185.72,2544.65C2188.24,2548.97 2191.77,2555.2 2193.57,2558.5C2197.49,2565.69 2207.22,2589.12 2206.55,2589.78C2205.89,2590.44 2190.9,2593.15 2150,2600C2020.71,2621.64 1887.55,2635.39 1753,2641C1726.92,2642.09 1623.24,2644.11 1611.5,2643.76C1607.65,2643.64 1595.73,2643.44 1585,2643.32L1585,2643.32ZM2159.6,2026.94C2163.19,2024.72 2178.51,2005.08 2181.81,1998.47C2182.92,1996.25 2185.48,1989.72 2187.51,1983.97C2190.59,1975.23 2191.2,1972.17 2191.21,1965.42C2191.22,1954.57 2189.51,1946.99 2185.03,1938C2179.82,1927.55 2175,1913.02 2175,1907.77C2175,1901.03 2177.55,1893.66 2184.5,1880.39C2193.21,1863.73 2195.43,1855.97 2194.6,1845C2192.99,1823.61 2187.24,1815.03 2171.46,1810.45C2159.38,1806.93 2146.97,1810.77 2137.93,1820.81C2135.11,1823.94 2128.97,1832.28 2124.28,1839.34C2119.59,1846.4 2112.95,1855.4 2109.54,1859.34C2103.85,1865.91 2089.46,1885.04 2085.73,1891C2080.26,1899.74 2078.59,1914.91 2081.63,1928.29C2083.44,1936.22 2090.78,1955.22 2094.5,1961.58C2100.56,1971.94 2109.91,1981.81 2121.73,1990.34C2138.95,2002.75 2143.06,2007.15 2147.57,2018.05C2152.31,2029.46 2153.77,2030.54 2159.6,2026.94ZM2154.11,2007.44C2150.34,2000.14 2141.76,1991.76 2129,1982.93C2119.52,1976.37 2115.26,1972.32 2108.34,1963.32C2099.47,1951.76 2090,1926.41 2090,1914.19C2090,1904.56 2093.12,1897.59 2103.72,1883.5C2109.1,1876.35 2116.3,1867.18 2119.72,1863.13C2123.14,1859.08 2128.06,1852.33 2130.65,1848.13C2137.46,1837.11 2146.75,1825.32 2150.37,1823.11C2156.01,1819.66 2161.15,1818.65 2166.86,1819.88C2177.58,1822.17 2183.06,1828.36 2184.97,1840.3C2186.47,1849.71 2183.78,1859.89 2175.96,1874.32C2167.97,1889.06 2165.89,1894.97 2165.26,1904.69C2164.8,1911.74 2165.11,1914.1 2167.46,1921.69C2168.96,1926.54 2172.44,1935.34 2175.18,1941.26C2179.71,1951.04 2180.21,1952.84 2180.71,1961.26C2181.21,1969.84 2181.02,1971.18 2177.98,1980C2176.19,1985.23 2173.82,1991.3 2172.74,1993.5C2170.76,1997.47 2158.96,2013.86 2158,2013.95C2157.72,2013.97 2155.98,2011.05 2154.11,2007.44ZM1500.17,1950.31C1505.48,1947.42 1512.21,1940.63 1528.25,1921.99C1534.16,1915.12 1542.2,1905.9 1546.11,1901.5C1555.21,1891.27 1566.48,1875.43 1569.47,1868.66C1582.85,1838.41 1584.1,1809.98 1573.01,1788.02C1571.46,1784.95 1568.73,1778.03 1566.94,1772.64C1562.91,1760.48 1558.38,1753.37 1549.33,1745C1541.34,1737.61 1535.45,1734.98 1527,1735.01C1519.78,1735.04 1514.5,1738.04 1510.25,1744.51C1505.7,1751.47 1503.85,1757.72 1497.09,1789C1486.5,1837.99 1484.2,1852.24 1478.33,1905.5C1476.05,1926.24 1475.84,1930.42 1476.85,1936.3C1479.71,1953.06 1487.04,1957.46 1500.17,1950.31ZM1487.91,1939.25C1486.17,1934.03 1486.45,1923.59 1488.93,1902C1494.53,1853.11 1496.8,1839.14 1506.12,1796.07C1514.87,1755.66 1516.55,1750.53 1522.3,1746.5C1526.72,1743.41 1535.73,1745.7 1540.6,1751.15C1544.17,1755.15 1554.28,1772.87 1560.77,1786.5C1569.26,1804.35 1570.39,1809.29 1569.69,1825.5C1569.09,1839.54 1568.69,1841.43 1563.26,1856.41C1558.77,1868.77 1551.28,1880.06 1536.5,1896.74C1523.96,1910.88 1517.77,1918 1507.73,1929.81C1501.01,1937.71 1494.19,1943 1490.74,1943C1489.8,1943 1488.65,1941.48 1487.91,1939.25Z" style="fill:var(--clr-logo--dogred,rgb(253,0,224));"/>
    <path id="Hundgruen"
          d="M1352.5,2630.37C1272.03,2622.38 1192.11,2611.73 1123.74,2599.91C1107.95,2597.18 1105.05,2596.41 1105.47,2595.08C1105.74,2594.21 1107.59,2585.85 1109.58,2576.5C1111.57,2567.15 1114.73,2554.33 1116.59,2548C1118.46,2541.68 1121.13,2532.45 1122.52,2527.5C1128.95,2504.72 1143.5,2462.7 1151.1,2445C1161.55,2420.64 1180.23,2382.73 1191.09,2363.85C1200.78,2347.01 1209.84,2327.56 1214.6,2313.39C1216.52,2307.65 1219.29,2295.63 1220.98,2285.6C1224.33,2265.82 1226.53,2256.55 1231.7,2240.5C1239.02,2217.76 1249.5,2194.66 1261.41,2175C1265.51,2168.24 1269.28,2159.73 1274.49,2145.5C1283.35,2121.28 1283.91,2119.34 1288.87,2096C1293.98,2071.91 1294.7,2067.08 1296.51,2045C1297.34,2034.83 1298.91,2021.55 1300.01,2015.5C1304.11,1992.77 1304.84,1958.74 1301.52,1944.43C1299.44,1935.48 1287.42,1900.78 1284.11,1894.2C1274.69,1875.46 1271.07,1815.13 1276.93,1774.5C1278.05,1766.8 1279.21,1754.42 1279.53,1747C1280.2,1731.28 1280.11,1731.32 1272.52,1749.85C1262.65,1773.95 1260.3,1791.07 1261.38,1831C1261.73,1843.92 1262.27,1855.62 1262.58,1857C1263.14,1859.45 1263.11,1859.46 1261.52,1857.5C1258.04,1853.21 1242.54,1824.35 1231.45,1801.5C1205.97,1749 1202.95,1743.12 1196.17,1733C1181.46,1711.04 1170.09,1700.26 1141,1680.71C1120.75,1667.1 1116.19,1663.71 1102.04,1651.69C1081.9,1634.57 1074.68,1626.38 1067.98,1613.01C1060.25,1597.58 1056.33,1583.33 1051.36,1552.5C1048.46,1534.56 1047.92,1528.97 1048.41,1522.21C1049.08,1513.04 1052.99,1491.59 1056.1,1480.06C1058.35,1471.68 1065.88,1458.4 1071.39,1453.09L1074.93,1449.67L1080.22,1453.28C1083.12,1455.26 1089.15,1459.5 1093.62,1462.69C1098.08,1465.89 1103.63,1469.85 1105.94,1471.5C1108.26,1473.15 1112.41,1476.44 1115.18,1478.81C1117.94,1481.18 1120.38,1482.96 1120.58,1482.75C1121.36,1481.98 1116.75,1471.39 1114.6,1469C1113.36,1467.62 1110.67,1464.16 1108.62,1461.3C1104.58,1455.65 1095.74,1448.51 1087.01,1443.84C1083.98,1442.21 1079.03,1439.13 1076,1436.98C1068.59,1431.71 1047.61,1421 1024.38,1410.64C991.784,1396.09 976.983,1389.05 971.24,1385.38C955.571,1375.35 945.819,1360.72 936.004,1332.5C932.357,1322.01 932.387,1322.2 930.066,1295.5C928.966,1282.85 927.83,1269.8 927.541,1266.5C927.253,1263.2 926.339,1245.2 925.512,1226.5C923.977,1191.84 923.023,1176.44 921.142,1156C920.56,1149.67 919.631,1138.42 919.079,1131C918.526,1123.58 917.172,1113 916.071,1107.5C914.969,1102 913.604,1093.15 913.037,1087.82C912.471,1082.5 908.118,1058.88 903.363,1035.32C895.607,996.899 894.712,991.319 894.649,981C894.589,971.367 894.936,968.607 896.782,964C900.171,955.543 905.682,948.983 912.196,945.651C923.217,940.015 946.375,941.037 967.417,948.086C987.104,954.682 1004.49,965.056 1024.59,982.193C1043.69,998.487 1057.56,1010.07 1064.81,1015.77C1079.56,1027.39 1103.68,1039.77 1124.5,1046.42C1132.75,1049.05 1145.07,1052.97 1151.87,1055.14C1158.67,1057.3 1167.05,1060.38 1170.49,1061.99C1173.92,1063.6 1180.29,1066.32 1184.62,1068.04C1197.46,1073.13 1218.7,1084.51 1230.77,1092.78C1236.97,1097.03 1253.17,1108.11 1266.77,1117.41C1280.37,1126.71 1293.68,1136.04 1296.35,1138.13C1305.12,1145.04 1356.23,1194.58 1370.16,1209.69C1390.58,1231.84 1408.37,1252.88 1421.23,1270.1C1439.47,1294.53 1471.9,1330.95 1482.15,1338.52C1487.76,1342.66 1492.81,1345.04 1508.91,1351.1C1519.49,1355.09 1524.82,1360.01 1527.23,1368.01C1530.57,1379.14 1530.62,1378.93 1523.8,1384.46C1514.39,1392.09 1501.59,1411.03 1494.95,1427.13C1491.53,1435.42 1491.3,1436.94 1493.83,1434.65C1494.83,1433.75 1495.9,1433 1496.2,1433C1497.83,1433 1516.68,1412.28 1523.77,1402.68C1536.26,1385.8 1538.55,1383.35 1545.81,1379.09C1563.66,1368.62 1592.96,1364.89 1617.43,1369.99C1631.2,1372.86 1641.25,1372.42 1659.5,1368.13C1666.65,1366.45 1675.42,1364.94 1679,1364.79C1682.58,1364.63 1704.85,1364.87 1728.5,1365.33C1778.47,1366.28 1781.11,1366.05 1809,1358.09C1818.62,1355.35 1831.45,1352.15 1837.5,1350.99C1843.55,1349.83 1857.28,1347.12 1868,1344.98C1878.73,1342.83 1892.23,1340.59 1898,1340C1914.75,1338.29 1929.83,1335.34 1955,1328.84C1981.93,1321.88 1983.93,1321.79 2006.5,1326.63C2041.88,1334.21 2066.31,1343.63 2077.5,1354.02C2084.4,1360.41 2094.65,1367.71 2107.29,1375.24C2114.01,1379.23 2119.91,1382.67 2120.41,1382.89C2123.62,1384.25 2110.12,1368.11 2097.49,1355.48C2084.57,1342.57 2081.28,1339.84 2073.98,1336.01C2051.47,1324.2 2031.23,1317.62 2006.29,1314.02C1998.47,1312.89 1991.38,1311.7 1990.54,1311.38C1988.74,1310.68 1988.65,1309.27 1989.99,1301.93C1990.54,1298.94 1991.89,1290.5 1992.99,1283.16C1995.49,1266.48 2011.2,1203.92 2018.54,1181.4C2021.57,1172.1 2025.19,1160.67 2026.59,1156C2027.99,1151.33 2031.32,1143 2033.99,1137.5C2036.65,1132 2041.08,1122.77 2043.81,1116.99C2046.55,1111.2 2052.5,1101.3 2057.03,1094.99C2086.35,1054.08 2125.52,1017.09 2183.45,975.573C2208.14,957.878 2241.69,930.227 2253.59,917.765C2269.54,901.066 2301.47,856.037 2306.53,843.113C2311.41,830.64 2320.74,822.886 2325.34,827.479C2328.83,830.97 2326.09,842.561 2317.47,860.817C2311.84,872.714 2307.44,880.048 2298.45,892.5C2294.49,898 2288.55,906.55 2285.27,911.5C2281.99,916.45 2273.27,926.956 2265.9,934.846C2258.53,942.736 2248.28,954.211 2243.11,960.346C2232.03,973.52 2210.25,997.644 2197.39,1011C2192.37,1016.23 2185.87,1023.88 2182.95,1028C2180.04,1032.12 2172.48,1041.8 2166.15,1049.5C2159.82,1057.2 2151.42,1067.81 2147.49,1073.09C2137.03,1087.13 2115.24,1123.52 2106.53,1141.5C2100.37,1154.22 2091.79,1179.65 2087.13,1199C2083.38,1214.56 2080.35,1232.69 2081.34,1233.68C2082.2,1234.54 2100.32,1199.51 2119.2,1160.5C2133.85,1130.21 2142.65,1114.86 2160.75,1088C2181.71,1056.89 2200.95,1031.22 2212.48,1019C2217.44,1013.73 2224.19,1006.3 2227.49,1002.47C2230.78,998.634 2235.77,992.961 2238.58,989.859C2241.39,986.756 2247.99,978.881 2253.25,972.359C2258.51,965.836 2264.58,958.794 2266.74,956.708L2270.67,952.916L2269.19,961.208C2267.39,971.317 2267.21,1004.29 2268.9,1014.5C2269.54,1018.35 2270.53,1025.55 2271.1,1030.5C2271.68,1035.45 2274.13,1051.2 2276.56,1065.5C2278.98,1079.8 2281.62,1096 2282.43,1101.5C2285.21,1120.46 2293.83,1149.62 2302.63,1169.88C2310.45,1187.86 2314.3,1194.75 2328.68,1216.5C2349.05,1247.31 2354.05,1255.53 2355.61,1260.68C2357.72,1267.69 2357.39,1281.49 2354.93,1289.64C2352.8,1296.69 2343.73,1313.99 2336.75,1324.33C2330.47,1333.63 2327.9,1340.16 2327.34,1348.26C2326.78,1356.41 2328.21,1362.68 2337.01,1390.5C2339.8,1399.3 2342.97,1411.9 2344.07,1418.5C2347.48,1438.94 2350.47,1447.23 2360.22,1463.28C2366.77,1474.07 2369.36,1480.98 2370.47,1490.64C2371.78,1502.15 2367.72,1519.42 2360.73,1532C2356.08,1540.37 2339.62,1564.28 2331.62,1574.27L2324.5,1583.17L2321,1578.84C2306.93,1561.41 2289.05,1548.29 2269.33,1540.94L2261.77,1538.12L2275.77,1551.81C2283.47,1559.34 2297.93,1573.38 2307.91,1583C2327.99,1602.38 2331.1,1606.52 2340.86,1627.01C2352.1,1650.6 2355.77,1662.49 2360.62,1691C2363.01,1705.03 2365.44,1721.67 2366.03,1728C2367.41,1742.76 2369.74,1752.73 2377.68,1778C2387.31,1808.64 2391.77,1824.88 2395.05,1841.34C2396.68,1849.5 2399.34,1861.44 2400.97,1867.88C2402.59,1874.31 2404.64,1886.53 2405.53,1895.04C2406.41,1903.54 2407.54,1912.3 2408.04,1914.5C2409.28,1919.93 2409.24,1946.42 2407.97,1959.14C2405.43,1984.68 2400.27,2007.75 2389.76,2040.5C2385.36,2054.25 2379.26,2073.6 2376.22,2083.5C2373.18,2093.4 2369.86,2102.71 2368.83,2104.18C2364.76,2110.03 2363.87,2114.9 2363.42,2134C2363.14,2145.57 2362.41,2154.93 2361.45,2159C2360.61,2162.57 2359.47,2169.78 2358.92,2175C2358.37,2180.22 2357.02,2190.35 2355.93,2197.5C2353.55,2213.16 2352.05,2242.94 2352.02,2275.5C2351.98,2311.93 2349.6,2331.55 2342.9,2350.69C2338.8,2362.4 2334.97,2368.23 2328.92,2371.95C2324.6,2374.61 2324,2375.39 2324,2378.35C2324,2384.17 2333.47,2416.57 2342.31,2441C2353.87,2472.95 2357.18,2483.99 2362.55,2508.41C2365.08,2519.91 2368.71,2534.71 2370.63,2541.3C2372.54,2547.9 2373.75,2553.62 2373.3,2554.02C2371.62,2555.56 2264.7,2578.88 2227,2585.94C2217.93,2587.64 2209.78,2589.19 2208.9,2589.39C2207.69,2589.65 2206.23,2587.1 2203.01,2579.12C2198.13,2567.03 2191.84,2554.42 2186.06,2545.15C2183.88,2541.66 2181.62,2536.48 2181.05,2533.65C2180.47,2530.82 2178.2,2519.39 2176,2508.25C2171.59,2485.86 2168.21,2474.49 2157.78,2447C2149.29,2424.6 2143.31,2411.8 2130.49,2388.51C2118.59,2366.89 2118.13,2364.78 2123.71,2357.45C2133.14,2345.06 2141.47,2321.64 2143,2303.23C2144.53,2284.7 2144.2,2265.91 2142.09,2252.49C2141.05,2245.88 2139.67,2234.4 2139.02,2226.99C2138.37,2219.57 2136.29,2206.08 2134.41,2197C2132.53,2187.93 2129.88,2174.65 2128.52,2167.5C2127.16,2160.35 2124.45,2147.97 2122.51,2140C2120.55,2132.03 2118.74,2121.68 2118.47,2117L2117.97,2108.5L2124.99,2122.5C2128.85,2130.2 2132.34,2136.49 2132.75,2136.48C2133.16,2136.47 2136.65,2134.4 2140.5,2131.87C2144.35,2129.34 2159.2,2120.84 2173.5,2112.99C2209.59,2093.17 2211.11,2092.05 2223.28,2076.23C2231.89,2065.04 2237.43,2048.18 2238.91,2028.65C2240.12,2012.85 2244.06,1993.5 2249.14,1978.53C2254.06,1964.01 2257.07,1957.9 2265.51,1945.37C2277.77,1927.16 2287.96,1902.98 2296,1872.96C2300.74,1855.3 2302.63,1841.39 2303.58,1817.36C2304.23,1800.92 2304.16,1800.13 2301.04,1785.5C2296.28,1763.28 2289.62,1747.86 2280.93,1738.92C2275.8,1733.66 2263.16,1725.08 2253.12,1720.04C2244.16,1715.55 2236.38,1714.24 2214,1713.48C2191.45,1712.71 2186.3,1713.32 2167.5,1718.98C2160.35,1721.13 2150.66,1724.03 2145.97,1725.41C2135.75,1728.43 2117.62,1737.16 2106.54,1744.4C2088.61,1756.12 2068.89,1773.52 2048.5,1795.62C2039.23,1805.67 2036.41,1809.52 2031.99,1818.12C2026.08,1829.66 2016.27,1846.34 2010.01,1855.5C2005.5,1862.1 2005.53,1862.33 2009.14,1847.69C2010.21,1843.39 2012,1837.4 2013.13,1834.37C2014.27,1831.34 2015.04,1828.71 2014.85,1828.52C2014.66,1828.33 2010.23,1831.2 2005,1834.88C1983.64,1849.97 1955.64,1865.52 1940.74,1870.59C1932.37,1873.43 1914.96,1875.39 1906,1874.5C1902.42,1874.14 1885.34,1872.08 1868.02,1869.92C1842.82,1866.78 1833.25,1866 1820.02,1866.01C1800.88,1866.02 1776.08,1867.39 1757.46,1869.49C1737.18,1871.78 1702.66,1873.26 1698.11,1872.03C1692.51,1870.52 1687.59,1866.23 1672.95,1850.1C1658.32,1833.98 1650.71,1824.8 1643.44,1814.52L1638.5,1807.54L1637.83,1813.52C1636.63,1824.36 1629.37,1850.91 1626.92,1853.45C1625.26,1855.17 1625.93,1829.01 1628.09,1807.92C1629.25,1796.57 1629.94,1784.61 1629.65,1781C1628.34,1764.91 1615.1,1734.23 1599.8,1711.82C1586.09,1691.73 1560.99,1673.27 1536.2,1665.04C1521.64,1660.2 1502.79,1656.78 1492.87,1657.16C1484.57,1657.49 1483.75,1657.74 1471.87,1663.68C1457.3,1670.97 1442.04,1682.96 1437.09,1691.01C1432.36,1698.69 1424.25,1724.13 1422.51,1736.73C1421.68,1742.65 1420.92,1756.28 1420.8,1767L1420.58,1786.5L1427.24,1812.15C1430.91,1826.26 1435.15,1842.01 1436.68,1847.15C1439.15,1855.5 1439.45,1858.06 1439.44,1871C1439.43,1878.98 1439.04,1891.37 1438.57,1898.54C1437.75,1911 1437.84,1912.03 1440.48,1922.04C1444.89,1938.78 1444.95,1939.42 1442.98,1948.88C1437.99,1972.88 1438.1,1977.94 1444.17,2001.2L1447.23,2012.9L1451.59,2007.55C1456.13,2001.98 1465.11,1993.78 1465.86,1994.53C1466.89,1995.56 1456.28,2015.26 1449.98,2024.03C1440.72,2036.91 1436.59,2046 1433.39,2060.5C1431.05,2071.1 1430.64,2075.9 1429.84,2101.5C1429.35,2117.45 1428.84,2133.01 1428.72,2136.08C1428.53,2140.78 1428.92,2142.21 1431.17,2145.16C1433.13,2147.73 1434.17,2150.8 1435.08,2156.73C1436.29,2164.61 1436.26,2164.89 1433.8,2169.14C1428.05,2179.09 1417.91,2204.9 1415.92,2214.64C1411.64,2235.56 1412.38,2270.5 1417.66,2296.86C1421.18,2314.45 1421.69,2312.24 1403.08,2360.35C1394.15,2383.42 1389.62,2405.24 1389.56,2425.5C1389.52,2438.64 1389.86,2441.84 1392.26,2451.33C1399.37,2479.44 1412,2500.2 1427.25,2508.88C1430.41,2510.68 1433,2512.74 1433,2513.46C1433,2514.81 1419.6,2537.06 1409.69,2552.15C1403.97,2560.85 1399.37,2570.09 1397.07,2577.5C1396.39,2579.7 1393.62,2586 1390.93,2591.5C1388.24,2597 1384.19,2607.8 1381.95,2615.5C1379.7,2623.2 1377.68,2630.06 1377.46,2630.75C1376.96,2632.31 1371.13,2632.22 1352.5,2630.37L1352.5,2630.37ZM1328.38,1408.3C1329.27,1404.34 1330,1398.72 1330,1395.8C1329.98,1372.64 1306.37,1283.9 1290.54,1247.5C1283.42,1231.12 1262.74,1193.04 1254.16,1180.5C1229.5,1144.46 1225.25,1139.24 1205.05,1120.23C1178.19,1094.94 1156.73,1082.24 1097.5,1056.59C1070.89,1045.07 1021.57,1015.67 1000,998.461C981.291,983.54 957.18,968.082 946.224,963.983C934.201,959.484 922.375,962.526 917.803,971.293C913.759,979.048 915.339,989.516 922.965,1005.5L925.828,1011.5L925.914,995.885C925.992,981.675 926.187,980.033 928.073,977.635C934.133,969.93 951.418,978.063 988.615,1006.12C1021.31,1030.78 1061.82,1055.16 1092,1068.34C1132.43,1085.99 1152.7,1096.32 1170.26,1108.21C1183.03,1116.87 1202.53,1134.4 1214.28,1147.78C1222.28,1156.88 1247.26,1192.63 1253.39,1203.74C1264.42,1223.72 1274.11,1242.33 1277.96,1250.96C1287.24,1271.74 1301.47,1318.14 1310.12,1355.86C1312.85,1367.76 1316.81,1382.9 1318.92,1389.5C1321.04,1396.1 1323.33,1405.27 1324.03,1409.87C1325.42,1419.18 1325.99,1418.98 1328.38,1408.3ZM2152.91,2028.01C2152.03,2027.5 2149.63,2023.01 2147.57,2018.05C2143.06,2007.15 2138.95,2002.75 2121.73,1990.34C2109.91,1981.81 2100.56,1971.94 2094.5,1961.58C2090.78,1955.22 2083.44,1936.22 2081.63,1928.29C2078.59,1914.91 2080.26,1899.74 2085.73,1891C2089.46,1885.04 2103.85,1865.91 2109.54,1859.34C2112.95,1855.4 2119.59,1846.4 2124.28,1839.34C2128.97,1832.28 2135.11,1823.94 2137.93,1820.81C2146.97,1810.77 2159.38,1806.93 2171.46,1810.45C2187.24,1815.03 2192.99,1823.61 2194.6,1845C2195.43,1855.97 2193.21,1863.73 2184.5,1880.39C2177.55,1893.66 2175,1901.03 2175,1907.77C2175,1913.02 2179.82,1927.55 2185.03,1938C2189.51,1946.99 2191.21,1954.57 2191.21,1965.42C2191.21,1972.17 2190.59,1975.23 2187.51,1983.97C2185.48,1989.72 2182.92,1996.25 2181.81,1998.47C2178.51,2005.08 2163.19,2024.72 2159.6,2026.94C2155.88,2029.24 2155.2,2029.35 2152.91,2028.01ZM2164.63,2005.7C2171.89,1995.97 2173.66,1992.57 2177.98,1980C2181.02,1971.18 2181.21,1969.84 2180.71,1961.26C2180.21,1952.84 2179.71,1951.04 2175.18,1941.26C2172.44,1935.34 2168.96,1926.54 2167.46,1921.69C2165.11,1914.1 2164.8,1911.74 2165.26,1904.69C2165.89,1894.97 2167.97,1889.06 2175.96,1874.32C2183.78,1859.89 2186.47,1849.71 2184.97,1840.3C2183.06,1828.36 2177.58,1822.17 2166.86,1819.88C2161.15,1818.65 2156.01,1819.66 2150.37,1823.11C2146.75,1825.32 2137.46,1837.11 2130.65,1848.13C2128.06,1852.33 2123.14,1859.08 2119.72,1863.13C2116.3,1867.18 2109.1,1876.35 2103.72,1883.5C2093.12,1897.59 2090,1904.56 2090,1914.19C2090,1926.41 2099.47,1951.76 2108.34,1963.32C2115.26,1972.32 2119.52,1976.37 2129,1982.93C2141.76,1991.76 2150.34,2000.14 2154.11,2007.44C2155.98,2011.05 2157.72,2013.97 2158,2013.95C2158.28,2013.92 2161.26,2010.21 2164.63,2005.7ZM1484.76,1952.48C1481.11,1950.44 1478.27,1944.62 1476.85,1936.3C1475.85,1930.42 1476.05,1926.24 1478.33,1905.5C1484.2,1852.24 1486.5,1837.99 1497.09,1789C1503.85,1757.72 1505.7,1751.47 1510.25,1744.51C1514.5,1738.04 1519.78,1735.04 1527,1735.01C1535.45,1734.98 1541.34,1737.61 1549.33,1745C1558.38,1753.37 1562.91,1760.48 1566.94,1772.64C1568.73,1778.03 1571.46,1784.95 1573.01,1788.02C1584.1,1809.98 1582.85,1838.41 1569.47,1868.66C1566.48,1875.43 1555.21,1891.27 1546.11,1901.5C1542.2,1905.9 1534.16,1915.12 1528.25,1921.99C1512.21,1940.63 1505.48,1947.42 1500.17,1950.31C1493.95,1953.69 1488.34,1954.49 1484.76,1952.48ZM1496.5,1940.56C1498.79,1939.21 1503.84,1934.37 1507.73,1929.81C1517.77,1918 1523.96,1910.88 1536.5,1896.74C1551.28,1880.06 1558.77,1868.77 1563.26,1856.41C1568.69,1841.43 1569.09,1839.54 1569.69,1825.5C1570.39,1809.29 1569.26,1804.35 1560.77,1786.5C1554.28,1772.87 1544.17,1755.15 1540.6,1751.15C1535.73,1745.7 1526.72,1743.41 1522.31,1746.5C1516.55,1750.53 1514.87,1755.66 1506.12,1796.07C1496.8,1839.14 1494.53,1853.12 1488.93,1902C1486.45,1923.59 1486.17,1934.03 1487.91,1939.25C1489.38,1943.68 1490.79,1943.9 1496.5,1940.56Z" style="fill:var(--clr-logo--doggreen, rgb(68,253,0));"/>
    <path id="Hundblau"
          d="M1579,3010.33C1378.34,3004.96 1179.09,2981.01 985.5,2938.98C924.826,2925.81 820.834,2899.65 785,2888.54C775.375,2885.55 759.175,2880.59 749,2877.49C696.978,2861.69 641.812,2843.27 589.5,2824.23C566.895,2816 509.633,2794.28 502.5,2791.23C497.005,2788.88 466,2768.27 466,2766.97C466,2766.39 468.817,2762.9 472.26,2759.21C491.336,2738.76 506.702,2719.97 534.176,2683.5C541.633,2673.6 553.909,2658.3 561.455,2649.5C712.459,2473.4 823.504,2258.91 880.364,2033.5C889.888,1995.75 890.847,1985.82 886.523,1969.75L885.783,1967L892.642,1966.98C904.899,1966.95 930.893,1959.89 943,1953.31C964.044,1941.86 989.727,1915.49 1009.87,1884.66C1023.05,1864.5 1048.28,1813.83 1064.49,1774.98C1071.99,1756.98 1080.91,1738.07 1098.16,1703.52C1108.59,1682.63 1117.25,1665.41 1117.4,1665.26C1118.09,1664.58 1161.3,1694.53 1167.91,1700.27C1177.82,1708.89 1187.63,1720.26 1196.17,1733C1202.95,1743.12 1205.97,1749 1231.45,1801.5C1242.54,1824.35 1258.04,1853.21 1261.52,1857.5C1263.11,1859.46 1263.14,1859.45 1262.58,1857C1262.27,1855.62 1261.73,1843.92 1261.38,1831C1260.3,1791.07 1262.65,1773.95 1272.52,1749.85C1280.11,1731.32 1280.2,1731.28 1279.53,1747C1279.21,1754.42 1278.05,1766.8 1276.93,1774.5C1271.07,1815.13 1274.69,1875.46 1284.11,1894.2C1287.42,1900.78 1299.44,1935.48 1301.52,1944.44C1304.84,1958.74 1304.11,1992.77 1300.01,2015.5C1298.91,2021.55 1297.34,2034.83 1296.51,2045C1294.7,2067.08 1293.98,2071.91 1288.87,2096C1283.91,2119.34 1283.35,2121.28 1274.49,2145.5C1269.28,2159.73 1265.51,2168.24 1261.41,2175C1249.5,2194.66 1239.02,2217.76 1231.7,2240.5C1226.53,2256.55 1224.33,2265.82 1220.98,2285.6C1219.29,2295.63 1216.52,2307.65 1214.6,2313.39C1209.84,2327.56 1200.78,2347.01 1191.09,2363.85C1180.23,2382.73 1161.55,2420.64 1151.1,2445C1143.5,2462.7 1128.95,2504.72 1122.52,2527.5C1121.13,2532.45 1118.46,2541.68 1116.59,2548C1114.73,2554.33 1111.57,2567.15 1109.58,2576.5C1107.59,2585.85 1105.74,2594.21 1105.47,2595.08C1105.05,2596.41 1107.95,2597.18 1123.74,2599.91C1210.43,2614.9 1313.27,2627.68 1406,2634.99C1612.7,2651.29 1832.31,2644.34 2055.5,2614.43C2098.73,2608.64 2199.29,2592.49 2204.96,2590.43C2205.76,2590.14 2215.66,2588.14 2226.96,2585.98C2269.23,2577.92 2371.63,2555.56 2373.31,2554.02C2373.75,2553.62 2372.54,2547.9 2370.63,2541.3C2368.71,2534.71 2365.08,2519.91 2362.55,2508.41C2357.18,2483.99 2353.87,2472.95 2342.31,2441C2333.47,2416.57 2324,2384.17 2324,2378.35C2324,2375.39 2324.6,2374.61 2328.92,2371.95C2334.97,2368.23 2338.8,2362.4 2342.9,2350.69C2349.6,2331.55 2351.98,2311.93 2352.02,2275.5C2352.05,2242.94 2353.55,2213.16 2355.93,2197.5C2357.02,2190.35 2358.37,2180.22 2358.92,2175C2359.47,2169.78 2360.61,2162.57 2361.45,2159C2362.41,2154.93 2363.14,2145.57 2363.42,2134C2363.87,2114.9 2364.76,2110.03 2368.83,2104.18C2369.86,2102.71 2373.18,2093.4 2376.22,2083.5C2379.26,2073.6 2385.36,2054.25 2389.76,2040.5C2400.27,2007.75 2405.43,1984.68 2407.97,1959.14C2409.24,1946.42 2409.28,1919.93 2408.04,1914.5C2407.54,1912.3 2406.41,1903.54 2405.53,1895.04C2404.64,1886.53 2402.59,1874.31 2400.97,1867.88C2399.34,1861.44 2396.68,1849.5 2395.05,1841.34C2391.77,1824.88 2387.31,1808.64 2377.68,1778C2369.74,1752.73 2367.41,1742.76 2366.03,1728C2365.44,1721.67 2363.01,1705.03 2360.62,1691C2355.77,1662.49 2352.1,1650.6 2340.86,1627.01C2331.1,1606.52 2327.99,1602.38 2307.91,1583C2297.93,1573.38 2283.47,1559.34 2275.77,1551.81L2261.77,1538.12L2269.34,1540.94C2289.05,1548.29 2306.93,1561.41 2321,1578.84L2324.5,1583.17L2331.62,1574.28C2339.62,1564.28 2356.08,1540.37 2360.73,1532C2367.72,1519.42 2371.78,1502.15 2370.47,1490.64C2369.37,1480.99 2366.78,1474.07 2360.22,1463.28C2350.47,1447.23 2347.48,1438.94 2344.07,1418.5C2342.97,1411.9 2339.8,1399.3 2337.01,1390.5C2328.21,1362.68 2326.78,1356.41 2327.34,1348.26C2327.9,1340.16 2330.47,1333.63 2336.75,1324.33C2343.73,1313.99 2352.8,1296.69 2354.93,1289.64C2357.39,1281.49 2357.72,1267.69 2355.61,1260.68C2354.05,1255.53 2349.05,1247.31 2328.68,1216.5C2314.3,1194.75 2310.45,1187.86 2302.63,1169.88C2293.83,1149.62 2285.21,1120.46 2282.43,1101.5C2281.62,1096 2278.98,1079.8 2276.56,1065.5C2274.13,1051.2 2271.68,1035.45 2271.1,1030.5C2270.53,1025.55 2269.54,1018.35 2268.9,1014.5C2267.21,1004.29 2267.39,971.317 2269.19,961.208L2270.67,952.916L2266.74,956.708C2264.58,958.794 2258.51,965.837 2253.25,972.359C2247.99,978.881 2241.39,986.756 2238.58,989.859C2235.77,992.962 2230.78,998.634 2227.49,1002.47C2224.19,1006.3 2217.44,1013.73 2212.48,1019C2200.96,1031.22 2181.71,1056.89 2160.75,1088C2142.65,1114.86 2133.86,1130.21 2119.2,1160.5C2100.32,1199.51 2082.2,1234.54 2081.34,1233.68C2080.35,1232.69 2083.38,1214.56 2087.13,1199C2091.79,1179.65 2100.37,1154.22 2106.54,1141.5C2115.24,1123.53 2137.03,1087.13 2147.49,1073.09C2151.42,1067.81 2159.82,1057.2 2166.15,1049.5C2172.48,1041.8 2180.04,1032.12 2182.95,1028C2185.87,1023.88 2192.37,1016.23 2197.39,1011C2210.25,997.645 2232.03,973.52 2243.11,960.346C2248.28,954.212 2258.53,942.737 2265.9,934.846C2273.27,926.956 2281.99,916.45 2285.27,911.5C2288.55,906.55 2294.49,898 2298.45,892.5C2307.44,880.048 2311.84,872.715 2317.47,860.818C2326.09,842.561 2328.83,830.971 2325.34,827.48C2320.74,822.886 2311.41,830.641 2306.53,843.113C2301.47,856.037 2269.54,901.067 2253.59,917.766C2241.69,930.228 2208.14,957.878 2183.45,975.574C2125.52,1017.09 2086.35,1054.08 2057.03,1094.99C2052.5,1101.3 2046.55,1111.2 2043.82,1116.99C2041.08,1122.77 2036.65,1132 2033.99,1137.5C2031.32,1143 2027.99,1151.33 2026.59,1156C2025.19,1160.67 2021.57,1172.1 2018.54,1181.4C2011.2,1203.92 1995.49,1266.48 1992.99,1283.16C1991.89,1290.5 1990.54,1298.94 1989.99,1301.93C1988.65,1309.27 1988.74,1310.68 1990.54,1311.38C1991.38,1311.7 1998.47,1312.89 2006.29,1314.02C2031.23,1317.62 2051.47,1324.2 2073.98,1336.01C2081.28,1339.84 2084.57,1342.57 2097.49,1355.48C2110.12,1368.11 2123.62,1384.25 2120.41,1382.89C2119.91,1382.67 2114.01,1379.23 2107.29,1375.24C2094.65,1367.71 2084.4,1360.41 2077.5,1354.02C2066.31,1343.63 2041.88,1334.21 2006.5,1326.63C1983.93,1321.8 1981.93,1321.88 1955,1328.84C1929.83,1335.34 1914.75,1338.29 1898,1340C1892.23,1340.59 1878.73,1342.83 1868,1344.98C1857.28,1347.12 1843.55,1349.83 1837.5,1350.99C1831.45,1352.15 1818.62,1355.35 1809,1358.09C1781.11,1366.05 1778.47,1366.28 1728.5,1365.33C1704.85,1364.87 1682.58,1364.63 1679,1364.79C1675.42,1364.94 1666.65,1366.45 1659.5,1368.13C1641.25,1372.42 1631.2,1372.86 1617.43,1369.99C1592.96,1364.89 1563.66,1368.62 1545.81,1379.09C1538.55,1383.35 1536.26,1385.8 1523.78,1402.69C1516.68,1412.28 1497.83,1433 1496.2,1433C1495.9,1433 1494.84,1433.75 1493.83,1434.65C1487.14,1440.7 1502,1410.7 1513.23,1395.46C1515.68,1392.14 1520.44,1387.19 1523.8,1384.46C1530.62,1378.93 1530.57,1379.14 1527.23,1368.01C1524.82,1360.01 1519.49,1355.09 1508.91,1351.1C1492.81,1345.04 1487.76,1342.66 1482.15,1338.52C1471.9,1330.96 1439.47,1294.53 1421.23,1270.1C1408.37,1252.88 1390.58,1231.84 1370.16,1209.69C1356.23,1194.58 1305.12,1145.04 1296.35,1138.13C1293.68,1136.04 1280.37,1126.71 1266.77,1117.41C1253.17,1108.11 1236.97,1097.02 1230.77,1092.76C1221.55,1086.43 1192.93,1070.77 1187,1068.81C1185.15,1068.2 1186.04,1066.24 1200.24,1039.5C1227.39,988.375 1240.81,965.432 1251.31,952.16C1254.65,947.947 1265.07,936.625 1274.48,927C1289.38,911.754 1299.34,899.483 1301.61,893.581C1302.48,891.3 1288.53,898.237 1278.01,905.316C1269.64,910.946 1251.78,928.417 1242.29,940.264C1230.43,955.075 1216.48,977.929 1198.52,1012C1193.16,1022.18 1186.37,1034.78 1183.44,1040C1180.52,1045.22 1176.91,1052.31 1175.43,1055.75C1173.95,1059.19 1172.39,1062 1171.95,1062C1171.52,1062 1167.03,1060.42 1161.96,1058.48C1156.89,1056.55 1146.49,1053.18 1138.85,1050.99C1119.88,1045.56 1107.43,1040.83 1095.01,1034.31C1071.73,1022.1 1068.99,1020.06 1024.59,982.193C1010.06,969.802 999.317,962.461 986.205,955.957C965.928,945.9 947.113,941.425 928.668,942.271C919.267,942.702 917.091,943.149 912.197,945.652C905.682,948.984 900.171,955.544 896.782,964C894.936,968.608 894.59,971.367 894.649,981C894.712,991.319 895.607,996.899 903.364,1035.32C908.118,1058.88 912.471,1082.5 913.038,1087.82C913.604,1093.15 914.969,1102 916.071,1107.5C917.173,1113 918.526,1123.58 919.079,1131C919.632,1138.42 920.56,1149.67 921.142,1156C923.023,1176.44 923.977,1191.84 925.512,1226.5C926.34,1245.2 927.253,1263.2 927.542,1266.5C927.83,1269.8 928.966,1282.85 930.066,1295.5C932.387,1322.2 932.357,1322.01 936.005,1332.5C945.82,1360.72 955.571,1375.35 971.24,1385.38C976.983,1389.05 991.785,1396.09 1024.38,1410.64C1047.61,1421 1068.59,1431.71 1076,1436.98C1079.03,1439.13 1083.98,1442.21 1087.01,1443.84C1095.74,1448.51 1104.59,1455.65 1108.62,1461.3C1110.67,1464.16 1113.36,1467.62 1114.6,1469C1116.75,1471.39 1121.36,1481.98 1120.58,1482.75C1120.38,1482.96 1117.94,1481.18 1115.18,1478.81C1112.41,1476.44 1108.26,1473.15 1105.94,1471.5C1103.63,1469.85 1098.08,1465.89 1093.62,1462.69C1089.15,1459.5 1083.12,1455.26 1080.22,1453.28L1074.93,1449.67L1071.39,1453.09C1065.88,1458.4 1058.35,1471.68 1056.1,1480.06C1052.99,1491.59 1049.08,1513.04 1048.41,1522.21C1047.92,1528.97 1048.46,1534.56 1051.36,1552.5C1059.17,1600.93 1067.73,1620.87 1088.94,1640.01C1093.51,1644.13 1099.22,1649.3 1101.62,1651.5L1106,1655.5L1087.1,1693C1076.7,1713.62 1064.73,1738.38 1060.49,1748C1056.26,1757.62 1048.25,1775.85 1042.7,1788.5C1020.66,1838.76 999.094,1877.71 980.67,1900.55C971.374,1912.08 952.426,1929.94 942.77,1936.28C933.788,1942.17 930.403,1943.68 916,1948.2C904.438,1951.83 888.917,1952.9 875.538,1951.01C867.373,1949.85 866.468,1949.47 861.111,1945.01C840.862,1928.16 827.425,1902.4 820.62,1867.38C816.275,1845.02 815.11,1830.89 811.967,1762.5C809.766,1714.61 804.762,1685.65 791.833,1646C774.24,1592.05 750.114,1545.21 687.004,1442.5C647.805,1378.7 632.972,1352.37 617.727,1319.5C582.709,1244.01 566.943,1176.09 570.126,1114.46C575.252,1015.2 631.361,939.608 737.542,888.914C776.213,870.45 818.81,856.564 887.5,840.029C980.997,817.523 1003.93,811.472 1034,801.38C1068.59,789.772 1086.88,781.694 1141.5,753.923C1191.66,728.418 1216.42,717.878 1242.1,711.097C1264.13,705.28 1270.3,704.551 1297.5,704.553C1325.22,704.554 1333.53,705.714 1351.69,712.122C1370.69,718.825 1382.95,726.496 1399.33,741.921C1412.02,753.883 1418.45,758.469 1430.34,764.04C1448.21,772.413 1467.81,775.576 1496.4,774.698C1523.69,773.861 1539.62,771.28 1593.5,758.97C1653.15,745.34 1690.27,739.567 1744,735.556C1811.52,730.515 1872.32,730.619 2014.5,736.017C2142.58,740.879 2207.58,740.734 2273,735.442C2349.37,729.264 2409.11,717.163 2473.26,694.876C2533.89,673.812 2547.27,670.595 2574,670.663C2596.22,670.719 2612.9,674.756 2638.84,686.346C2653.06,692.704 3144.5,949.917 3166,962.258C3215.66,990.762 3244.42,1019.78 3257.63,1054.71C3267.6,1081.08 3268.55,1114.1 3260.39,1151C3256.74,1167.51 3252.42,1182.46 3241.48,1216.5C3225,1267.77 3220.04,1286.73 3216.57,1311.79C3214.8,1324.49 3214.52,1350.79 3216.03,1361.5C3217.9,1374.83 3223.24,1393.62 3232.59,1419.77C3247.74,1462.14 3250.61,1475.45 3249.72,1499.31C3249.11,1516.04 3247.52,1522.94 3241.32,1535.89C3228.73,1562.17 3200.69,1575.33 3166.38,1571.05C3143.96,1568.25 3123.21,1561.13 3093.5,1546.04C3027.98,1512.76 2973.47,1466.7 2929.26,1407.26C2924.66,1401.07 2914.83,1386.57 2907.42,1375.02C2895.75,1356.85 2893.6,1352.85 2891.43,1345.26C2890.04,1340.44 2886.86,1332 2884.36,1326.5C2867.65,1289.79 2847.87,1234.24 2835.45,1189.18C2825.68,1153.72 2823.5,1146.8 2815.24,1125C2810.55,1112.62 2803.57,1095.53 2799.74,1087C2795.91,1078.47 2791.05,1067.61 2788.95,1062.85C2782.36,1047.92 2779.05,1041.96 2768.24,1025.5C2755.98,1006.82 2750.41,999.741 2732.3,979.848C2703.38,948.076 2672.38,923.924 2596.41,873.973C2576.11,860.625 2556.8,848.223 2553.5,846.412C2547.07,842.883 2533.89,837.575 2528.77,836.451L2525.64,835.763L2529.07,840.132C2539.23,853.078 2559.3,868.016 2609.5,899.995C2623.67,909.019 2662.27,936.37 2674.72,946.198C2693.81,961.282 2712.23,978.838 2730.12,999C2741.21,1011.5 2746.08,1017.94 2756.22,1033.54C2767.52,1050.91 2768.44,1052.67 2781.47,1081.5C2795.32,1112.16 2808.61,1146.9 2814.06,1166.67C2829.2,1221.6 2846.28,1274.01 2858.38,1302.72C2859.82,1306.14 2861,1309.21 2861,1309.55C2861,1309.88 2856.74,1305.92 2851.53,1300.76C2832.14,1281.52 2814.16,1271.49 2794.67,1269.02C2770.65,1265.98 2745.49,1277.95 2731.43,1299.11C2723.35,1311.26 2716.64,1329.95 2714.04,1347.5C2713.47,1351.35 2712.74,1356.08 2712.4,1358C2711.9,1360.92 2710.27,1356.15 2702.49,1329C2688.17,1278.98 2681.11,1259.71 2656.51,1203.5C2640.45,1166.78 2636.83,1159.74 2611.21,1115.5C2601.71,1099.09 2592.46,1085.26 2582.45,1072.5C2578.14,1067 2569.59,1055.86 2563.46,1047.74C2549.52,1029.3 2537.08,1015.06 2526.6,1005.6C2515.27,995.363 2490.77,976.246 2481.92,970.734C2474.22,965.941 2460.17,959.498 2459.3,960.364C2459.03,960.637 2460.16,962.804 2461.82,965.18C2469.75,976.576 2476.95,983.705 2495.25,998.327C2518.35,1016.77 2533.07,1031.71 2549.74,1053.62C2556.38,1062.35 2565.52,1074.22 2570.05,1080C2584.3,1098.18 2596.24,1117.53 2624.03,1167.5C2630.07,1178.37 2655.33,1235.93 2665.49,1262C2679.61,1298.2 2700.24,1370.08 2708.97,1413.5C2713.17,1434.36 2714.52,1448.47 2716.97,1497C2722.73,1611.23 2718.74,1746.43 2706.41,1854.5C2691.18,1988.13 2661.34,2069.23 2603.38,2134.5C2586.84,2153.13 2578.49,2165.41 2569.41,2184.5C2560.47,2203.28 2554.55,2223.31 2550.43,2248.68C2547.89,2264.34 2547.37,2305.68 2549.46,2325.98C2552.94,2359.76 2559.64,2390.03 2571.47,2425.5C2582.55,2458.73 2591.45,2479.39 2625.51,2551C2658.04,2619.38 2670.52,2648.67 2681.98,2683.5C2687.58,2700.51 2688.85,2706.02 2694.09,2736C2697.3,2754.43 2702.27,2782.67 2705.13,2798.76C2707.98,2814.85 2710.09,2828.25 2709.8,2828.53C2708.19,2830.14 2631.06,2856.16 2586.58,2870.09C2470.57,2906.44 2341.51,2938.22 2222,2959.88C2184.8,2966.62 2168.82,2969.26 2131,2974.93C1996.94,2995.04 1880.77,3005.58 1744.5,3010.01C1718.52,3010.85 1606.59,3011.07 1579,3010.33L1579,3010.33ZM1730.13,2951.91C1737.15,2948.38 1747.7,2933.7 1757.73,2913.5C1762.18,2904.55 1764,2902.19 1764,2905.39C1764,2908.13 1769.3,2922.64 1772.65,2929.1C1774.54,2932.72 1777.64,2937.2 1779.55,2939.05C1782.61,2942.01 1783.77,2942.45 1789.47,2942.82C1795.07,2943.17 1796.78,2942.83 1802.44,2940.17C1815.68,2933.98 1823,2925.52 1823,2916.43C1823,2906.23 1815.33,2888 1811.04,2888C1810.07,2888 1807.53,2890.34 1805.39,2893.19C1800.6,2899.59 1789.89,2905.75 1781.94,2906.69L1776.71,2907.31L1777.41,2896.41C1778.54,2878.71 1780.97,2857.01 1782.65,2849.5C1785.27,2837.81 1785.37,2831.44 1783.1,2818.81C1780.4,2803.76 1776.86,2792.65 1772.83,2786.56C1768.41,2779.88 1763.53,2777.83 1751.62,2777.64C1743.49,2777.52 1741.88,2777.8 1736.8,2780.3C1728.88,2784.19 1719.41,2794.64 1713.71,2805.78C1705,2822.83 1701.58,2833.76 1695.39,2864.46C1691.89,2881.85 1691.78,2883.06 1692.3,2898C1692.91,2915.51 1695.03,2925.72 1700.56,2937.77C1705.7,2949 1709.26,2952.77 1715.94,2954.07C1720.53,2954.97 1725.57,2954.2 1730.13,2951.91ZM1707.54,2912.25C1708.62,2903.11 1715.73,2869.11 1718,2862.21C1720.74,2853.89 1727.27,2839.14 1730.58,2833.79C1734.75,2827.04 1743.04,2818.99 1748.5,2816.4C1752.32,2814.58 1755.2,2814.02 1760.73,2814.01L1767.95,2814L1767.38,2817.25C1765.66,2827.16 1751.73,2863.8 1743.35,2880.5C1729.8,2907.46 1720.56,2918 1710.47,2918L1706.86,2918L1707.54,2912.25ZM1650.96,2950.72C1658.91,2947.49 1659.8,2945.44 1657.73,2934.94C1655.9,2925.64 1650.93,2914.57 1647.86,2912.93C1646.33,2912.11 1644.86,2912.24 1641.8,2913.47C1639.57,2914.36 1637.64,2914.95 1637.51,2914.79C1637.38,2914.63 1637.66,2908.65 1638.13,2901.5C1639.51,2880.84 1642.93,2854.33 1645.57,2843.84C1649.34,2828.81 1650.86,2820.94 1652.44,2808.24C1656.42,2776.23 1659.23,2756.49 1661.2,2746.64C1663.14,2736.93 1663.24,2735.03 1662.15,2728.64C1660.68,2720.09 1655.63,2708.64 1652.09,2705.86L1649.54,2703.85L1647.88,2705.91C1646.9,2707.12 1645.74,2711.57 1645.06,2716.73C1644.42,2721.55 1642.37,2731.35 1640.5,2738.5C1638.62,2745.65 1635.94,2758.03 1634.53,2766C1629.21,2796.04 1628.72,2798.52 1627.97,2799.35C1627.55,2799.82 1626.9,2799.26 1626.53,2798.11C1625.06,2793.46 1618.2,2786.39 1611.9,2783.01C1606.12,2779.91 1604.54,2779.54 1595.7,2779.17C1582.92,2778.64 1578.81,2780.16 1570.49,2788.47C1562.56,2796.4 1556.91,2804.78 1550.96,2817.41C1536.8,2847.47 1532.84,2860.49 1532.82,2877C1532.79,2902.02 1540.66,2927.56 1551.8,2938.54C1559.23,2945.86 1576.32,2951.64 1584.47,2949.6C1591.22,2947.9 1600.93,2935.73 1612.3,2914.7L1619.7,2901.02L1620.33,2910.26C1621.4,2926.11 1626.87,2941.59 1634.1,2949.21C1638.44,2953.79 1642.51,2954.15 1650.96,2950.72ZM1559,2911.4C1548.86,2907.51 1548.48,2907.06 1548.62,2899.08C1548.76,2890.85 1551.37,2881.85 1558.16,2866.16C1566.35,2847.28 1572.69,2835.67 1578.82,2828.38C1585.18,2820.81 1589.44,2817.53 1594.88,2816.02C1600.29,2814.51 1610.44,2814.79 1614.88,2816.57C1618.13,2817.87 1618.96,2818.8 1619.79,2822.08C1620.67,2825.55 1620.32,2827.41 1616.82,2837.67C1606.97,2866.53 1591.8,2896.31 1581.1,2907.79C1577.63,2911.52 1572.4,2914.03 1568.28,2913.95C1566.75,2913.91 1562.58,2912.77 1559,2911.4ZM1478.55,2944.88C1481.27,2943.16 1487.27,2938.81 1491.88,2935.22L1500.26,2928.68L1499.73,2921.09C1499.16,2913.08 1496.4,2904.35 1492.71,2898.94C1488.7,2893.04 1488.26,2893.1 1478.09,2900.88C1472.96,2904.8 1468.4,2908 1467.94,2908C1466.99,2908 1470.35,2899.72 1478.28,2882.5C1487.94,2861.51 1495,2838.83 1495,2828.77C1495,2821.93 1493.48,2813.32 1490.81,2805C1485.25,2787.68 1478.5,2781.03 1463.87,2778.46C1458.61,2777.53 1448.87,2780.35 1439.15,2785.6C1434.55,2788.09 1430.71,2789.98 1430.61,2789.81C1430.52,2789.64 1429.57,2786.85 1428.51,2783.61C1426.18,2776.49 1421.69,2770 1419.09,2770C1416.99,2770 1417.73,2767.88 1406.14,2807C1402.13,2820.54 1397.29,2834.53 1394.71,2840C1389.69,2850.64 1385.55,2862.5 1380.37,2881C1378.45,2887.88 1375.51,2897.78 1373.84,2903C1371.27,2911.07 1370.9,2913.45 1371.44,2918.79C1372.6,2930.48 1379.79,2945.57 1383.82,2944.8C1386.45,2944.29 1389.53,2937.63 1395.04,2920.55C1397.88,2911.72 1402.36,2898.43 1404.99,2891C1407.63,2883.58 1410.78,2873.92 1412,2869.54C1416.53,2853.3 1427.96,2836.74 1440.7,2827.93C1452.21,2819.97 1462.31,2815.61 1470.25,2815.16C1473.96,2814.95 1477,2815.01 1477,2815.29C1477,2817.53 1468.44,2839.53 1462.32,2853C1449.25,2881.77 1444.96,2898.32 1446.92,2912.4C1448.75,2925.57 1454.7,2938.03 1462.37,2944.75C1467.31,2949.09 1471.84,2949.12 1478.55,2944.88ZM2017,2942.77C2029.73,2938.95 2044.96,2922.4 2063.99,2891.68C2072.33,2878.2 2073.25,2874.42 2070.63,2864.21C2067.9,2853.54 2061.22,2842.9 2058.44,2844.8C2057.87,2845.18 2056.12,2847.75 2054.55,2850.5C2044.98,2867.26 2032.24,2885.02 2023.63,2893.58C2008.84,2908.28 2000.61,2910.8 1986.44,2904.93C1968.56,2897.51 1959.84,2883.05 1951.94,2847.7C1948.99,2834.51 1948.98,2808.68 1951.9,2792.12C1958.48,2754.94 1974.55,2725.81 1996.65,2711.03C2000.74,2708.29 2007.04,2705.14 2010.65,2704.03C2018.15,2701.71 2029.27,2701.39 2032.87,2703.39C2034.3,2704.18 2037.08,2708.43 2039.87,2714.07C2045,2724.45 2047.25,2726.66 2049.56,2723.56C2051.9,2720.4 2051.23,2713.43 2047.49,2702.25C2043.31,2689.76 2036.89,2677.05 2032.61,2672.77C2027.79,2667.94 2021.95,2665.83 2013.15,2665.74C1998.69,2665.59 1985.55,2672.03 1972,2685.92C1955.08,2703.26 1944.32,2725.69 1937.43,2758C1935.12,2768.79 1934.69,2773.59 1934.28,2793.08C1933.71,2819.37 1934.75,2828.68 1940.95,2853.06C1953.25,2901.42 1968.86,2928.49 1990.5,2939.01C2002.14,2944.67 2007.93,2945.49 2017,2942.77L2017,2942.77ZM1263.53,2925.55C1265.44,2924.75 1268.6,2922.88 1270.56,2921.38C1275.4,2917.69 1287.51,2902.43 1299,2885.53L1308.5,2871.55L1309.14,2883.03C1309.79,2894.55 1311.4,2900.99 1315.77,2909.55C1320.17,2918.14 1324.83,2921.14 1333.79,2921.14C1340.6,2921.14 1346.59,2918.25 1352.05,2912.33C1356.26,2907.76 1356.27,2907.75 1355.69,2901.58C1354.72,2891.18 1347.55,2875 1343.92,2875C1343.38,2875 1340.71,2876.76 1337.99,2878.92C1333.59,2882.39 1326.42,2885.81 1325.54,2884.85C1324.99,2884.25 1343,2820.38 1349.61,2799.5C1352.46,2790.52 1352.31,2785.12 1348.96,2775.37C1345.14,2764.27 1340.48,2758.53 1337.38,2761.1C1334.99,2763.08 1328.95,2774.58 1322.84,2788.78C1315.33,2806.26 1310.89,2813.83 1291.71,2842C1264.61,2881.81 1258.79,2888.28 1248.11,2890.51L1244.72,2891.22L1245.43,2883.86C1245.82,2879.81 1246.98,2872.68 1248,2868C1249.02,2863.33 1250.59,2854.12 1251.49,2847.53C1252.74,2838.43 1254.82,2830.4 1260.17,2814.03C1268.6,2788.29 1269.39,2782.55 1266.01,2772.02C1262.95,2762.51 1258.62,2755.77 1255.85,2756.18C1254.07,2756.45 1252.79,2759.43 1247.37,2776C1239.26,2800.83 1237.49,2807.74 1235.48,2822.5C1234.58,2829.1 1232.92,2838.33 1231.79,2843C1228.75,2855.59 1228.74,2882.3 1231.78,2893.28C1235.96,2908.4 1244.68,2923.71 1250.44,2926.04C1253.69,2927.36 1259.75,2927.13 1263.53,2925.55L1263.53,2925.55ZM2130.76,2917.43C2142.15,2911.76 2153.24,2894.86 2159.01,2874.37C2161.46,2865.68 2161.88,2864.86 2162.49,2867.5C2170,2899.83 2177.36,2912.47 2187.55,2910.56C2191.9,2909.74 2199.27,2903.01 2209.09,2890.89C2220.67,2876.59 2221.39,2875.14 2220.69,2867.62C2219.71,2857.12 2212.91,2841.99 2208.82,2841.2C2207.8,2841.01 2205.95,2842.75 2203.85,2845.88C2195.55,2858.25 2180.68,2874 2177.3,2874C2175.99,2874 2174.14,2861.36 2173.87,2850.5C2173.75,2846.1 2174.01,2830.12 2174.44,2815C2175.31,2784.42 2174.7,2779.09 2169.08,2767.84C2167.51,2764.71 2165.67,2759.76 2164.98,2756.83C2163.49,2750.55 2159.95,2742.51 2157.14,2739.02C2155.27,2736.7 2154.43,2736.51 2144.32,2736.19C2134.09,2735.86 2133.32,2735.98 2130.19,2738.32C2115.49,2749.34 2099.84,2784.51 2093.4,2821.07C2088.84,2846.95 2093.22,2883.57 2103.26,2903.5C2111.3,2919.46 2118.93,2923.33 2130.76,2917.43ZM2108.38,2882.84C2107.92,2882.1 2107.58,2875.43 2107.63,2868C2107.78,2845.43 2112.99,2824.18 2123.94,2801.5C2131.23,2786.4 2138.96,2775.33 2143.56,2773.41C2147.28,2771.85 2157,2771.48 2157,2772.89C2157,2776.45 2154.67,2796.05 2153.43,2803C2151.13,2815.8 2145.34,2839.64 2142.53,2847.93C2139.22,2857.65 2132.74,2869.58 2128.18,2874.33C2121.49,2881.3 2110.42,2886.06 2108.38,2882.84ZM1154.54,2909.45C1157.82,2908.6 1162.75,2906.87 1165.5,2905.61C1171.8,2902.71 1196.22,2886.37 1201.39,2881.57L1205.29,2877.97L1204.72,2871.23C1204.41,2867.53 1203.05,2861.47 1201.71,2857.76C1199.27,2851.05 1194.77,2844 1192.93,2844C1192.39,2844 1189.15,2846.19 1185.73,2848.88C1175.68,2856.74 1159.34,2867.05 1152.09,2870.1C1148.4,2871.65 1142.17,2873.45 1138.26,2874.09C1131.75,2875.17 1130.86,2875.1 1127.82,2873.3C1124.06,2871.07 1123.98,2870.12 1126.66,2859C1130.33,2843.75 1146.65,2807.24 1156.15,2793.01C1163.08,2782.63 1174.53,2775.22 1185.1,2774.26C1193.92,2773.46 1195.27,2774.12 1197.93,2780.54C1204.33,2795.97 1211.87,2795.51 1209.18,2779.85C1207.01,2767.2 1197.89,2747.74 1191.49,2742.12C1178.78,2730.96 1154.54,2740.17 1140.84,2761.36C1127.08,2782.66 1112.41,2819.52 1108.99,2841.42C1106.86,2855.07 1111.03,2875.43 1119.21,2891.24C1123.46,2899.47 1132.92,2909.46 1137.23,2910.29C1142.2,2911.25 1148.87,2910.92 1154.54,2909.45ZM2252.39,2891.72C2252.68,2888.85 2253.16,2879.08 2253.45,2870C2254.12,2849.18 2256.35,2828.07 2259.59,2812C2263.78,2791.25 2272.99,2771.04 2281.07,2764.89C2284.57,2762.23 2294.29,2757 2295.73,2757C2296.17,2757 2296.36,2772.76 2296.15,2792.01C2295.75,2829.13 2296.2,2835.45 2300.49,2853.55C2303.49,2866.24 2306.38,2874.7 2310.6,2883.15C2314.86,2891.67 2318.14,2894.37 2323.39,2893.67C2328.1,2893.04 2335.04,2886.61 2347.09,2871.72C2354.93,2862.02 2355,2861.88 2355,2856.15C2355,2849.9 2352.97,2841.88 2349.78,2835.5C2347.67,2831.3 2344.19,2827 2342.88,2827C2342.46,2827 2338.75,2831.16 2334.64,2836.25C2324.93,2848.27 2316.51,2857 2314.64,2857C2311.66,2857 2310.7,2837.04 2312.03,2802.68C2313.53,2763.75 2311.99,2750.96 2303.78,2734.5C2298.54,2723.98 2292.62,2719.29 2286.13,2720.5C2280.4,2721.56 2271.01,2727.04 2265.51,2732.54C2260.21,2737.84 2254.96,2747.41 2249.89,2761C2248.36,2765.12 2247.07,2768.05 2247.03,2767.5C2246.99,2766.95 2246.1,2760.65 2245.05,2753.49C2242.26,2734.4 2237.24,2722.5 2231.96,2722.5C2229.75,2722.5 2229.47,2722.96 2229.21,2727C2229.06,2729.47 2230.55,2743.65 2232.53,2758.5C2237.6,2796.55 2238.81,2824.6 2236.52,2851.5C2234.94,2870.07 2234.93,2872 2236.45,2878.5C2238.5,2887.27 2242.07,2895.16 2245.58,2898.67L2248.28,2901.37L2250.07,2899.16C2251.06,2897.94 2252.1,2894.6 2252.39,2891.72ZM1058.81,2883.62C1063.96,2880.37 1081.3,2865.71 1083.89,2862.41C1086.45,2859.15 1086.61,2854.16 1084.42,2845.64C1082.5,2838.22 1077.72,2828.93 1074.91,2827.18C1073.06,2826.02 1072.27,2826.45 1066.65,2831.7C1059.37,2838.5 1052,2844.45 1052,2843.51C1052,2838.96 1070.13,2779.03 1075.61,2765.46C1078.81,2757.53 1079.16,2755.81 1078.67,2750.45C1077.99,2743.03 1074.17,2732.23 1070.58,2727.51C1066.06,2721.59 1064.58,2722.59 1060.16,2734.54C1055.1,2748.18 1050.12,2758.73 1037.74,2782C1017.28,2820.45 1012.99,2827.06 1003.28,2835.08C996.751,2840.47 990.961,2842.99 983.414,2843.69L977,2844.29L977.035,2837.89C977.054,2834.38 977.674,2828.12 978.413,2824C980.232,2813.84 989.407,2783.68 999.214,2755.62C1003.66,2742.91 1007.51,2730.5 1007.76,2728.06C1008.63,2719.79 1003.8,2704.71 998.608,2699.52C995.389,2696.3 994.21,2696.35 992.861,2699.75C989.041,2709.4 976.859,2745.79 971.509,2763.54C963.636,2789.66 962.2,2796.56 961.046,2813.8C959.599,2835.43 962.111,2849.64 970.112,2865.07C975.048,2874.59 979.454,2878.99 985.103,2880.02C991.107,2881.12 1001.15,2879.46 1007.25,2876.37C1013.37,2873.27 1023.88,2863.52 1028.57,2856.6L1031.89,2851.7L1032.55,2854.6C1036.14,2870.37 1039.98,2879.12 1045.24,2883.55C1048.99,2886.7 1053.88,2886.73 1058.81,2883.62L1058.81,2883.62ZM2408.66,2864.06C2412.73,2861.59 2424.81,2847.53 2426.71,2843.07C2428.35,2839.24 2427.9,2833.68 2425.31,2825.5C2422.37,2816.21 2417.64,2808.96 2414.56,2809.02C2413.98,2809.03 2411.71,2811.55 2409.51,2814.61C2405.4,2820.35 2396.78,2829 2395.17,2829C2393.75,2829 2392.12,2813.54 2391,2789.5C2389.53,2757.79 2384.69,2723.11 2380.04,2710.86C2376.99,2702.84 2373.29,2697.82 2370.7,2698.19C2368.82,2698.45 2368.46,2699.22 2368.2,2703.54C2368.04,2706.31 2369.03,2714.64 2370.4,2722.07C2372.83,2735.22 2373.82,2746.05 2376.05,2784C2377.27,2804.67 2378.61,2813.76 2383.12,2832C2389.95,2859.63 2398.45,2870.29 2408.66,2864.06ZM906.834,2852.5C907.251,2846.24 905.504,2838.01 902.38,2831.5C898.184,2822.76 897.91,2822.57 888.485,2821.95C883.847,2821.64 879.836,2821.17 879.571,2820.9C879.306,2820.64 880.165,2818.18 881.479,2815.43C882.793,2812.68 885.967,2804.6 888.532,2797.47C891.097,2790.34 894.694,2781.78 896.526,2778.47C898.357,2775.15 902.51,2766.6 905.753,2759.46C908.997,2752.33 916.63,2737.04 922.715,2725.49C928.845,2713.86 936.344,2697.81 939.531,2689.5C942.696,2681.25 949.27,2666.52 954.142,2656.76C959.014,2647 963,2637.89 963,2636.51C963,2635.03 963.572,2634 964.39,2634C965.154,2634 974.401,2636.94 984.937,2640.53C995.473,2644.12 1004.5,2646.81 1005.01,2646.49C1009.94,2643.45 1002.68,2616.11 995.73,2611.56C994.485,2610.74 976.603,2604.47 955.991,2597.62C928.897,2588.61 918.167,2585.45 917.257,2586.2C914.131,2588.8 916.808,2604.11 922.136,2614.11C925.267,2619.98 927.111,2621.37 935.227,2623.95L938.955,2625.14L935.332,2632.32C933.34,2636.27 929.065,2646.42 925.833,2654.87C922.554,2663.45 914.959,2679.81 908.657,2691.87C902.443,2703.77 895.198,2718.22 892.555,2724C889.913,2729.78 885.593,2738.81 882.956,2744.07C880.319,2749.34 875.888,2759.88 873.11,2767.49C870.332,2775.11 866.175,2784.53 863.873,2788.42C856.292,2801.24 853.046,2807.47 853.023,2809.27C853.002,2810.85 852.45,2810.76 847.75,2808.41C844.863,2806.96 841.068,2804.7 839.317,2803.39C834.028,2799.42 831.983,2800.52 832.015,2807.33C832.037,2812.01 834.647,2822.27 837.19,2827.68C841.475,2836.8 847.642,2841.24 867.645,2849.64C882.53,2855.89 890.573,2857.96 899,2857.72L906.5,2857.5L906.834,2852.5ZM2508.5,2843.99C2527.22,2836.86 2534,2826.62 2534,2805.45C2534,2781.88 2522.67,2754.26 2506.49,2738.38C2498.62,2730.66 2492.97,2728.01 2475.09,2723.63C2453.6,2718.36 2450.35,2715.44 2454.87,2705.48C2459.15,2696.06 2470.85,2689.03 2483.62,2688.21C2492.89,2687.62 2495.49,2688.69 2501.42,2695.57C2504,2698.55 2506.78,2701 2507.58,2701C2508.39,2701 2509.53,2699.76 2510.12,2698.25C2511.52,2694.63 2509.15,2682.18 2505.57,2674.37C2502.34,2667.32 2495.01,2658.59 2489.23,2654.93C2473.6,2645.02 2445.1,2656.93 2439.26,2675.82C2437.04,2682.98 2437.1,2699.45 2439.37,2709.74C2442.55,2724.16 2450.19,2740.38 2457.32,2747.84C2462.57,2753.34 2467.78,2755.71 2482.83,2759.43C2499.6,2763.57 2507.45,2767.36 2512.9,2773.91C2518.14,2780.23 2519.01,2782.18 2518.35,2786.21C2516.02,2800.6 2500.19,2810.5 2479.5,2810.5C2471.51,2810.5 2469.98,2810.19 2465.89,2807.79C2460.38,2804.55 2457.55,2798.92 2456.02,2788.16C2453.55,2770.72 2444.18,2756.12 2440.94,2764.66C2439.39,2768.74 2442.48,2788.59 2446.6,2801C2450.78,2813.6 2457.53,2827.82 2462.28,2834.03C2466.17,2839.11 2472.01,2843.5 2477.7,2845.62C2483.58,2847.81 2500.86,2846.9 2508.5,2843.99ZM2378.78,2648.5C2379.1,2639.6 2376.55,2625.07 2373.05,2615.8C2370.91,2610.15 2366.24,2604 2364.07,2604C2361.39,2604 2360.8,2609.36 2362.35,2619.5C2363.2,2625 2364.18,2631.75 2364.54,2634.5C2365.93,2645.1 2372.4,2657.37 2376.3,2656.81C2378.33,2656.53 2378.52,2655.87 2378.78,2648.5ZM1324.03,1409.87C1323.33,1405.27 1321.04,1396.1 1318.92,1389.5C1316.81,1382.9 1312.85,1367.76 1310.12,1355.86C1301.47,1318.14 1287.24,1271.74 1277.96,1250.96C1274.11,1242.33 1264.42,1223.72 1253.39,1203.74C1247.26,1192.63 1222.28,1156.88 1214.28,1147.78C1202.53,1134.4 1183.03,1116.87 1170.26,1108.21C1152.7,1096.32 1132.43,1085.99 1092,1068.34C1061.82,1055.16 1021.31,1030.78 988.615,1006.12C951.418,978.063 934.133,969.93 928.073,977.635C926.187,980.033 925.992,981.675 925.914,995.885L925.828,1011.5L922.965,1005.5C915.339,989.516 913.759,979.048 917.803,971.293C922.375,962.526 934.201,959.484 946.224,963.983C957.18,968.082 981.291,983.54 1000,998.461C1021.57,1015.67 1070.89,1045.07 1097.5,1056.59C1156.73,1082.24 1178.19,1094.94 1205.05,1120.23C1225.25,1139.24 1229.5,1144.46 1254.16,1180.5C1262.74,1193.04 1283.42,1231.12 1290.54,1247.5C1306.37,1283.9 1329.98,1372.64 1330,1395.8C1330,1400.96 1327.52,1414.11 1326.03,1416.87C1325.6,1417.67 1324.75,1414.71 1324.03,1409.87Z" style="fill:var(--clr-logo--dogblue, rgb(2,194,233));"/>
    <path id="Schriftzug"
          d="M1769,3268.98C1763.62,3268.02 1759.59,3265.51 1755.07,3260.28C1748.96,3253.22 1743.95,3242.53 1743.28,3235.14C1742.76,3229.41 1742.86,3229 1744.81,3229C1746.23,3229 1748.07,3230.77 1750.59,3234.57C1755.11,3241.37 1757.7,3243.17 1763.87,3243.76C1769.87,3244.34 1778.18,3240.49 1780.45,3236.09C1783.39,3230.41 1785.88,3218.32 1786.56,3206.5C1786.93,3199.9 1787.59,3192.25 1788.02,3189.5C1788.45,3186.75 1788.68,3184.38 1788.55,3184.23C1788.41,3184.08 1787.16,3185.66 1785.78,3187.73C1779.86,3196.62 1770.92,3203 1764.38,3203C1756.99,3203 1751.61,3196.55 1746.34,3181.39C1743.93,3174.45 1743.6,3172.05 1743.63,3161.5C1743.66,3151.36 1744.09,3148.11 1746.39,3140.54C1753.86,3115.97 1767.11,3101.99 1782.95,3102C1791.18,3102 1794.7,3104.01 1798.03,3110.57C1799.39,3113.24 1801.31,3116.33 1802.29,3117.45C1803.28,3118.56 1805.03,3122.59 1806.19,3126.4C1808.25,3133.17 1808.26,3133.57 1806.66,3143.91C1805.76,3149.74 1804.11,3163.28 1803,3174C1801.89,3184.72 1800.31,3198 1799.5,3203.5C1798.68,3209 1797.59,3219.8 1797.07,3227.5C1796.08,3242.22 1792.83,3255.97 1789.15,3261C1787,3263.94 1780.14,3267.97 1775.66,3268.93C1773.92,3269.3 1770.92,3269.32 1769,3268.98L1769,3268.98ZM1765.09,3175.16C1771.55,3171.06 1775.94,3165.46 1782.35,3153.12C1787.72,3142.78 1793,3130.25 1793,3127.84C1793,3125.85 1782.28,3127.64 1777.54,3130.43C1771.42,3134.01 1766.58,3140.03 1761.41,3150.5C1756.95,3159.53 1753.16,3173.36 1754.32,3176.39C1755.28,3178.88 1760.08,3178.33 1765.09,3175.16ZM1572.69,3224.21C1571.8,3223.23 1570.06,3220.19 1568.81,3217.46C1565.73,3210.72 1565.36,3194.41 1567.42,3156.56C1568.97,3128.12 1568.96,3127.59 1567.05,3125.55C1563.26,3121.52 1559.46,3108.8 1560.66,3104.2C1561.1,3102.51 1562.11,3102.04 1565.82,3101.8L1570.44,3101.5L1572.16,3088.19C1575.98,3058.75 1579.53,3046.93 1585.27,3044.53C1588.78,3043.07 1594.76,3043.73 1597.33,3045.86C1601.42,3049.25 1605.97,3063.33 1605.99,3072.63C1606.01,3082.83 1602.16,3083.14 1597.8,3073.27C1595.77,3068.7 1594.13,3068.01 1591.49,3070.66C1589.16,3072.98 1588.38,3075.41 1586.05,3087.49C1583.13,3102.59 1582.95,3101.85 1589.72,3102.2C1594.89,3102.47 1595.64,3102.81 1597.6,3105.72C1600.39,3109.88 1603.44,3121.13 1602.63,3124.33C1602.04,3126.71 1601.6,3126.84 1591.49,3127.52C1579.11,3128.37 1580.38,3126.3 1579.53,3147C1579.21,3154.97 1578.52,3169.83 1578,3180C1577.49,3190.18 1577.05,3203.98 1577.03,3210.67C1576.99,3226.05 1576.3,3228.2 1572.69,3224.21ZM1696.95,3198.95C1693.7,3195.47 1690.52,3187.65 1688.24,3177.5C1687.02,3172.11 1686.64,3164.19 1686.58,3143C1686.48,3109.61 1688.68,3046.91 1690,3045.6C1691.55,3044.05 1694.76,3047.76 1697.15,3053.89C1699.23,3059.2 1699.34,3060.83 1699.12,3084.5C1698.99,3098.25 1698.47,3115.8 1697.96,3123.5C1696.66,3143.06 1696.72,3176 1698.05,3176C1699.57,3176 1705,3173.14 1708.63,3170.42C1711.6,3168.2 1711.84,3168.17 1713.34,3169.83C1716.05,3172.82 1719.13,3180.91 1719.72,3186.55C1720.24,3191.62 1720.09,3192.12 1717.16,3194.85C1713.35,3198.41 1705.94,3202 1702.41,3202C1700.79,3202 1698.72,3200.84 1696.95,3198.95L1696.95,3198.95ZM1632.5,3199.12C1623.18,3193.32 1615.82,3178.05 1614.04,3160.85C1612.24,3143.43 1618.92,3120.55 1629.02,3109.6C1634.26,3103.91 1637.14,3103.67 1645.95,3108.21C1652.96,3111.83 1655.02,3114.85 1658.11,3126C1659.1,3129.58 1661.03,3136.55 1662.4,3141.5C1669.05,3165.5 1662.78,3192.26 1648.8,3199.59C1644.88,3201.64 1636.14,3201.39 1632.5,3199.12ZM1640.28,3174.63C1644.67,3172.76 1647.39,3169.58 1650.62,3162.52C1654.27,3154.54 1655.11,3142.79 1652.45,3136.89C1650.72,3133.05 1646.81,3130 1643.63,3130C1637.35,3130 1626.76,3150.3 1624.56,3166.54C1623.99,3170.71 1624.18,3171.85 1625.68,3173.16C1629.26,3176.27 1635.05,3176.86 1640.28,3174.63ZM1459.5,3195.94C1457.3,3195.48 1446.73,3194.59 1436,3193.96C1422.05,3193.14 1415.83,3192.39 1414.16,3191.32C1411.15,3189.41 1407.08,3180.54 1406.37,3174.33C1405.93,3170.55 1406.58,3166.99 1409.33,3157.93C1415.7,3137.01 1420.59,3111.98 1423.09,3087.47L1424.32,3075.43L1421.69,3071.47C1418.54,3066.69 1415.42,3055.45 1416.29,3051.99L1416.92,3049.5L1443.41,3049.5C1468.74,3049.5 1469.98,3049.59 1471.43,3051.5C1474.16,3055.08 1477,3063.97 1477,3068.91C1477,3073.53 1476.86,3073.78 1473.88,3074.38C1472.16,3074.72 1462.82,3075 1453.12,3075L1435.5,3075L1435.5,3082.25C1435.5,3086.24 1435.14,3094.1 1434.71,3099.72C1433.79,3111.58 1432.12,3110.01 1448.52,3112.8L1458.5,3114.5L1461.46,3120.43C1463.53,3124.57 1464.55,3128.29 1464.83,3132.68C1465.2,3138.51 1465.08,3139 1463.18,3139C1461.11,3139 1436.27,3134.51 1432.42,3133.43C1430.53,3132.91 1430.23,3133.51 1429.08,3140.18C1428.38,3144.2 1426.76,3152 1425.49,3157.5C1424.21,3163 1423.36,3167.69 1423.59,3167.93C1423.83,3168.16 1429.53,3168.72 1436.26,3169.17C1442.99,3169.63 1450.94,3170.45 1453.93,3171C1456.92,3171.55 1461.02,3172 1463.03,3172C1465.27,3172 1467.32,3172.69 1468.31,3173.79C1472.11,3177.99 1475.49,3190.57 1473.93,3194.68C1473.17,3196.68 1472.4,3196.98 1468.28,3196.89C1465.65,3196.82 1461.7,3196.4 1459.5,3195.94ZM1502.49,3193.63C1499.1,3188.45 1497,3181.01 1497,3174.16C1497,3166.46 1499.7,3150.33 1503.49,3135.5C1505.9,3126.01 1505.97,3125 1504.86,3115.71C1503.99,3108.5 1503.98,3105.62 1504.8,3104.8C1506.21,3103.39 1508.51,3105.16 1510.65,3109.29L1512.17,3112.23L1515.34,3109.23C1522.28,3102.66 1528.07,3102.12 1533.33,3107.53C1540.31,3114.71 1548.02,3134.57 1545.43,3138.68C1543.74,3141.36 1542.65,3140.72 1538.67,3134.75C1534.56,3128.56 1532.97,3127.93 1528,3130.5C1522.13,3133.53 1517.4,3142.14 1515.92,3152.47C1511.37,3184.22 1508.78,3195.17 1505.64,3195.81C1504.81,3195.98 1503.39,3195 1502.49,3193.63ZM1912.27,3188.75C1907.76,3183.87 1906.76,3179.37 1905.86,3160C1904.22,3124.94 1903.86,3101.56 1904.92,3100C1907.89,3095.63 1914.06,3106.75 1914.79,3117.79L1915.27,3125.08L1918.77,3119.79C1923.47,3112.67 1927.62,3108.31 1932.95,3104.87C1940.56,3099.96 1944.69,3101.49 1950.48,3111.38L1953.27,3116.13L1955.7,3111.82C1959.03,3105.91 1963.4,3101.57 1968.19,3099.41C1971.79,3097.79 1972.48,3097.76 1974.85,3099.08C1978.42,3101.07 1983.3,3108.53 1986.03,3116.2C1987.91,3121.51 1988.34,3125.22 1988.75,3139.75C1989.31,3160.1 1989.4,3160.2 1998.25,3150.9C2002.07,3146.89 2004.57,3145.01 2005.58,3145.39C2007.96,3146.31 2012.15,3156.53 2012.72,3162.85L2013.24,3168.58L2007.97,3174.34C2005.08,3177.51 2001.46,3180.75 1999.92,3181.54C1988.03,3187.69 1978,3167.04 1978,3136.41C1978,3129.59 1977.75,3124 1977.45,3124C1975.31,3124 1970.66,3127.7 1967.74,3131.72C1961.87,3139.81 1958,3153.73 1958,3166.75C1958,3169.43 1957.38,3172.46 1956.63,3173.5C1955.3,3175.31 1955.16,3175.28 1952.86,3172.8C1949.61,3169.29 1946.84,3161.17 1946.72,3154.78C1946.66,3151.88 1946.99,3144.73 1947.45,3138.9C1948,3131.88 1947.94,3128.08 1947.27,3127.66C1945.25,3126.42 1937.41,3131.75 1932.7,3137.57C1923.94,3148.39 1919.9,3159.12 1917.88,3177C1916.51,3189.12 1916.14,3191 1915.15,3191C1914.71,3191 1913.41,3189.99 1912.27,3188.75ZM2035.03,3181.37C2033.31,3179.92 2030.84,3176.64 2029.53,3174.07C2024.41,3163.95 2023.87,3159.75 2023,3123C2022.55,3104.03 2022.56,3088.1 2023.02,3087.62C2024.69,3085.87 2027.15,3088.08 2029.68,3093.61C2032.83,3100.49 2033.88,3111.8 2033.95,3139.75C2033.98,3150.4 2034.4,3159 2034.9,3159C2036.19,3159 2041.56,3152.67 2044.22,3148.01C2047.45,3142.35 2049.3,3142.84 2052.99,3150.32C2057.47,3159.43 2057.56,3165.89 2053.29,3172.52C2045.66,3184.37 2041.18,3186.55 2035.03,3181.37L2035.03,3181.37ZM1349.76,3178.29C1347.89,3176.22 1343.32,3167.03 1340.04,3158.75C1338.79,3155.59 1337.48,3153 1337.13,3153C1336.79,3153 1333.12,3155.93 1329,3159.51C1321.84,3165.72 1313.65,3170 1308.93,3170C1296.51,3170 1285.08,3148.52 1286.31,3127.5C1287.23,3111.93 1293.22,3096.87 1303.22,3084.99L1309.3,3077.76L1306.68,3066.63C1300.95,3042.3 1301.15,3034.16 1307.61,3027.9C1310.9,3024.7 1311.52,3024.5 1317.99,3024.5C1324.17,3024.5 1325.17,3024.78 1327.82,3027.32C1334.79,3034 1340,3049.35 1340,3063.19C1340,3072.47 1338,3077.28 1329.41,3088.59L1324.04,3095.68L1328.77,3108.34C1331.37,3115.3 1333.75,3121 1334.06,3121C1334.36,3121 1340.12,3114.5 1346.86,3106.55C1354.93,3097.02 1359.58,3092.29 1360.52,3092.65C1363.06,3093.62 1367.37,3103.97 1367.82,3110.15L1368.24,3115.97L1356,3130.5L1343.77,3145.03L1345.99,3150.98C1347.22,3154.26 1348.85,3157.46 1349.62,3158.1C1351.62,3159.76 1355.2,3172.2 1354.82,3176.15C1354.45,3180.01 1352.18,3180.97 1349.76,3178.29ZM1310.59,3141.84C1312.84,3140.79 1317.64,3137.4 1321.25,3134.31C1326.85,3129.51 1327.69,3128.38 1326.95,3126.59C1326.47,3125.44 1324.2,3119.58 1321.9,3113.57L1317.71,3102.65L1313.86,3107.07C1307.35,3114.56 1303.82,3120.77 1300.35,3130.84C1298.52,3136.15 1297.01,3141.26 1297.01,3142.18C1296.99,3145.43 1303.23,3145.28 1310.59,3141.84ZM1325.86,3056.39C1327.59,3053.58 1329,3050.77 1329,3050.14C1329,3048.26 1321.77,3048.85 1318.23,3051C1316.42,3052.1 1314.54,3054.08 1314.04,3055.39C1313.15,3057.74 1313.24,3058.59 1315.16,3066.32L1316.11,3070.14L1319.41,3065.82C1321.23,3063.44 1324.13,3059.2 1325.86,3056.39ZM2086.41,3170.11C2078.74,3165.43 2074.03,3143.21 2073.99,3111.5C2073.97,3094.93 2074,3095 2067.34,3095C2062.74,3095 2061.53,3094.59 2059.45,3092.35C2056.95,3089.65 2053,3078.7 2053,3074.48C2053,3069.69 2053.78,3069.12 2059.48,3069.71C2062.41,3070.01 2066.42,3069.96 2068.39,3069.59L2071.98,3068.91L2071.74,3046.21C2071.53,3026.86 2071.72,3023.5 2072.96,3023.5C2074.76,3023.5 2078.58,3029.02 2080.14,3033.88C2080.78,3035.87 2081.5,3044.4 2081.74,3052.83L2082.18,3068.15L2092.57,3067.85C2104.46,3067.5 2104.42,3067.48 2108.02,3076.89C2110.08,3082.28 2110.86,3089.81 2109.57,3091.89C2109.19,3092.5 2107,3093 2104.69,3093.01C2102.39,3093.01 2096.76,3093.3 2092.19,3093.66L2083.88,3094.31L2084.5,3118.4C2084.84,3131.66 2085.32,3143.5 2085.57,3144.72C2086.18,3147.72 2088.33,3146.84 2094.22,3141.18C2098.83,3136.74 2098.99,3136.68 2100.95,3138.45C2103.37,3140.64 2106.55,3148.8 2107.53,3155.33L2108.24,3160.08L2102.28,3166.04C2095.6,3172.72 2092.15,3173.61 2086.41,3170.11ZM1190.55,3160.73C1186.46,3158.41 1182.16,3152.53 1170.88,3133.82C1167.8,3128.69 1162.64,3120.24 1159.43,3115.02L1153.6,3105.54L1151.9,3111.52C1148.11,3124.89 1142.14,3146.67 1141.57,3149.25C1140.33,3154.84 1136.12,3151.61 1132.98,3142.67C1129.51,3132.8 1130.16,3128.99 1142.59,3087C1144.46,3080.68 1147.09,3070.1 1148.42,3063.5C1149.76,3056.9 1152.68,3044.21 1154.92,3035.3C1157.16,3026.38 1159,3017.24 1159,3014.98C1159,3003.7 1164.65,3004.79 1169.43,3017C1172.42,3024.64 1171.85,3030.69 1165.97,3053.69C1162.99,3065.35 1160.88,3075.21 1161.28,3075.61C1161.67,3076.01 1169.24,3074.23 1178.08,3071.66C1186.93,3069.09 1194.59,3067.24 1195.1,3067.56C1198.47,3069.64 1203.63,3086.22 1202.13,3090.16C1201.2,3092.61 1200.38,3092.89 1167.27,3102.18L1164.04,3103.08L1169.2,3111.29C1172.04,3115.81 1175.89,3122.2 1177.75,3125.5C1184.72,3137.82 1189.7,3140.26 1198.45,3135.64C1201.23,3134.18 1206.65,3130.29 1210.5,3127C1214.35,3123.72 1217.99,3121.02 1218.6,3121.01C1221.9,3120.97 1227,3132.72 1227,3140.37C1227,3144.67 1226.79,3144.96 1218.75,3151.71C1214.21,3155.53 1208.87,3159.62 1206.88,3160.82C1202.11,3163.7 1195.72,3163.66 1190.55,3160.73L1190.55,3160.73ZM2229.57,3145.75C2225.25,3139.14 2223.02,3127.05 2219.49,3091C2218.6,3081.93 2217.01,3069.1 2215.95,3062.5C2213.74,3048.65 2209.02,3009.05 2209.01,3004.25C2209,3001.68 2209.41,3001 2210.98,3001C2215.56,3001 2218.6,3010.03 2221.05,3031C2222.11,3040.08 2223.24,3049.02 2223.56,3050.88L2224.14,3054.26L2229.05,3053.68C2231.75,3053.36 2241.22,3051.2 2250.08,3048.89L2266.2,3044.67L2265.52,3037.09C2265.15,3032.91 2263.95,3022.97 2262.85,3015C2259.89,2993.44 2259.51,2987.42 2261.04,2986.47C2262.79,2985.39 2266.59,2990.27 2268.47,2996C2270.03,3000.76 2274.99,3033.23 2275,3038.75C2275,3040.54 2275.4,3042 2275.89,3042C2276.38,3042 2280.73,3040.86 2285.55,3039.46C2290.38,3038.06 2294.88,3037.12 2295.56,3037.38C2296.23,3037.64 2298.01,3040.44 2299.5,3043.6C2302.71,3050.38 2303.96,3059.96 2301.86,3061.7C2301.1,3062.33 2295.53,3064.18 2289.49,3065.8C2279.25,3068.54 2278.51,3068.91 2278.71,3071.12C2279.98,3085.72 2282.61,3104.86 2284.74,3115C2286.18,3121.88 2287.54,3130.09 2287.77,3133.25C2288.14,3138.53 2288.01,3139 2286.11,3139C2281.46,3139 2275.67,3119.72 2272,3092C2270.8,3082.93 2269.64,3074.54 2269.42,3073.36C2269.02,3071.23 2268.94,3071.24 2253.95,3075.05C2245.66,3077.15 2236.38,3079.18 2233.32,3079.57L2227.78,3080.26L2228.37,3084.88C2228.7,3087.42 2229.44,3094.9 2230.02,3101.5C2230.59,3108.1 2231.97,3120.42 2233.06,3128.87C2234.16,3137.32 2234.79,3145.08 2234.46,3146.12C2233.66,3148.66 2231.37,3148.49 2229.57,3145.75ZM1072.82,3142.25C1065.25,3141.2 1054.86,3125.76 1051.46,3110.48C1049.21,3100.35 1049.83,3085.96 1052.9,3077C1057.26,3064.3 1067.22,3050.52 1074.93,3046.54C1079.95,3043.94 1086.91,3043.57 1090.97,3045.69C1098.95,3049.84 1104.2,3061.31 1104.39,3075C1104.48,3080.96 1104.2,3082.5 1103.04,3082.5C1101.23,3082.5 1097.05,3076.45 1096.31,3072.78C1095.58,3069.15 1093.08,3068.55 1086.59,3070.43C1077.69,3073.02 1068.68,3083.92 1063.37,3098.55C1060.14,3107.47 1060.19,3113.42 1063.52,3115.6C1069.59,3119.58 1082.75,3114.72 1101.34,3101.63C1107.3,3097.43 1112.78,3094 1113.51,3094C1116.82,3094 1123.05,3110.74 1121.7,3116.01C1121.28,3117.65 1118.14,3120.55 1112.52,3124.5C1092.58,3138.51 1081.52,3143.45 1072.82,3142.25ZM2342.38,3130.56C2336.7,3128.09 2330.6,3117.88 2327.08,3104.97C2324.59,3095.82 2319.14,3057.46 2318.77,3046.5C2318.52,3039.08 2318.64,3038.5 2320.5,3038.5C2321.93,3038.5 2323.3,3040.1 2325.3,3044.1C2327.54,3048.57 2328.39,3052.34 2329.56,3062.89C2331.95,3084.5 2334.88,3103.14 2336.1,3104.62C2336.73,3105.38 2338.97,3106 2341.09,3106C2344.15,3106 2345.65,3105.29 2348.43,3102.51C2350.35,3100.59 2352.37,3097.32 2352.91,3095.26C2354.93,3087.61 2358.22,3060.04 2358.85,3045.5C2359.46,3031.47 2359.63,3030.5 2361.47,3030.5C2364.8,3030.5 2368.95,3040.13 2370.55,3051.61C2371.32,3057.05 2373.17,3068.86 2374.66,3077.86C2377.11,3092.55 2377.61,3094.32 2379.65,3095.25C2383.52,3097.01 2386.72,3093.86 2391.67,3083.41C2394.12,3078.23 2396.53,3074 2397.03,3074C2400.39,3074 2405.37,3085.56 2405.43,3093.5C2405.47,3097.36 2404.52,3100.5 2401.31,3107.23C2396.79,3116.72 2393.05,3121 2389.3,3121C2381.67,3121 2373.87,3111.36 2369.49,3096.5L2367.72,3090.5L2365.46,3104C2364.22,3111.43 2362.74,3118.69 2362.17,3120.14C2360.41,3124.62 2355.05,3129.89 2351.17,3130.97C2346.58,3132.24 2346.2,3132.22 2342.38,3130.56ZM1008.37,3121.1C1004.5,3118.72 1000.49,3110.79 998.735,3102.08L997.442,3095.66L992.175,3102.28C985.845,3110.24 982.349,3113.28 975.675,3116.66C966.852,3121.14 959.452,3118.93 953.901,3110.19C949.17,3102.73 946.814,3093.85 946.823,3083.5C946.833,3072.31 948.485,3063.87 954.869,3042.38C957.626,3033.09 960.376,3023.59 960.979,3021.25C961.608,3018.82 962.671,3017 963.466,3017C967.052,3017 972,3028.23 972,3036.37C972,3038.57 969.687,3048.27 966.859,3057.93C960.045,3081.22 959.394,3083.68 958.575,3089.25C957.908,3093.79 957.983,3094 960.279,3094C965.398,3094 974.935,3088.03 980.41,3081.39C988.687,3071.35 996.194,3060.56 1004.48,3046.77C1008.69,3039.77 1012.58,3033.76 1013.13,3033.42C1015.97,3031.66 1021.8,3042.62 1022.69,3051.39C1023.11,3055.55 1022.46,3058.83 1019.18,3069C1016.96,3075.88 1014.03,3085.19 1012.67,3089.7L1010.19,3097.91L1015.85,3098.2L1021.5,3098.5L1024.41,3104.32C1026.62,3108.74 1027.34,3111.62 1027.41,3116.32L1027.5,3122.5L1019.5,3122.77C1013.02,3122.98 1010.9,3122.67 1008.37,3121.1L1008.37,3121.1ZM2425.11,3111.42C2419.41,3104.16 2415.84,3084.85 2415.8,3061C2415.77,3048.94 2415.24,3042.72 2413.39,3033C2412.08,3026.12 2411.01,3019.06 2411.01,3017.31C2410.99,3010.16 2415.57,3012.92 2419.41,3022.37L2421.74,3028.12L2424.46,3023.48C2427.41,3018.45 2434.02,3013.61 2440.22,3011.94C2445.29,3010.58 2449.12,3012.64 2452.63,3018.64C2458.64,3028.89 2461.18,3039.72 2462.59,3061.06C2463.32,3072.19 2464.01,3073.32 2467.83,3069.66C2469.44,3068.12 2471.57,3065.07 2472.55,3062.89C2474.95,3057.56 2476.83,3058.16 2480.45,3065.4C2484.35,3073.22 2485,3081.12 2482.18,3086.65C2479.97,3090.98 2472.83,3098 2470.63,3098C2466.02,3098 2458.75,3085.82 2455.55,3072.73C2453.69,3065.12 2451.05,3046.47 2451.02,3040.75C2450.99,3036.14 2449.54,3035.93 2442.31,3039.53C2436.48,3042.44 2433.36,3046.56 2429.99,3055.8C2427.82,3061.76 2427.77,3062.58 2428.84,3073.28C2430.87,3093.5 2431.39,3109.4 2430.11,3111.8C2428.58,3114.65 2427.6,3114.57 2425.11,3111.42ZM876.068,3092.07C872.324,3088.07 869.179,3079.37 867.268,3067.75L865.666,3058.01L868.395,3047.28C869.896,3041.37 872.632,3033.11 874.475,3028.92C876.319,3024.73 878.806,3017.97 880.002,3013.9C881.199,3009.83 885.254,2999.97 889.014,2992C892.774,2984.03 898.106,2971.48 900.862,2964.11C903.619,2956.75 906.3,2950.3 906.821,2949.78C909.453,2947.15 916,2960.52 916,2968.53C916,2973.96 907.904,2995.85 899.069,3014.3C895.697,3021.34 891.431,3031.69 889.587,3037.3C887.744,3042.91 884.825,3050.97 883.101,3055.21C881.377,3059.45 879.68,3064.35 879.329,3066.11C878.708,3069.21 878.767,3069.28 881.596,3068.59C886.072,3067.5 893.683,3062.08 902.885,3053.43L911.259,3045.55L914.021,3048.86C916.914,3052.32 920,3061.5 920,3066.65C920,3069.08 918.609,3071 912.75,3076.62C898.272,3090.52 891.144,3094.94 883.151,3094.98C879.617,3095 878.29,3094.45 876.068,3092.07ZM2511.3,3084.05C2503.13,3077.55 2498.61,3069.62 2494.98,3055.42C2491.08,3040.15 2491.56,3015.31 2495.95,3005.38C2500.04,2996.12 2511.85,2988.07 2519.49,2989.3C2521.51,2989.63 2523,2989.46 2523,2988.89C2523,2985.41 2519.6,2958.49 2517.9,2948.5C2516.36,2939.47 2516.12,2935.82 2516.9,2933.77C2519.36,2927.29 2525.14,2936.91 2527.59,2951.57C2533.28,2985.66 2545.08,3039.53 2548.07,3045.12C2550.25,3049.2 2554.73,3045.92 2560.24,3036.2C2562.22,3032.71 2563.8,3031 2564.87,3031.2C2567.17,3031.62 2571.76,3041.51 2572.56,3047.75C2573.13,3052.23 2572.84,3053.8 2570.6,3058.38C2567.36,3065.01 2560.09,3073 2557.3,3073C2556.16,3073 2553.8,3071.54 2552.03,3069.75C2548.45,3066.12 2541.09,3051.53 2538.4,3042.75C2537.43,3039.59 2536.33,3037 2535.97,3037C2535.6,3037 2535.04,3042.06 2534.73,3048.25C2533.85,3065.82 2529.94,3080.15 2524.57,3085.52C2520.93,3089.16 2517.2,3088.75 2511.3,3084.05ZM2515.59,3061.27C2519.94,3056.91 2522.62,3047.15 2523.93,3030.78C2525.22,3014.74 2523.5,3012.16 2515.23,3017.75C2506.92,3023.36 2504.28,3028.95 2503.37,3042.82C2502.56,3055.16 2503.09,3057.31 2507.74,3060.47C2512.14,3063.46 2513.28,3063.58 2515.59,3061.27ZM831.456,3074.31C829.669,3072.53 826.744,3066.24 825.676,3061.9L825.037,3059.3L819.268,3061.31C815.101,3062.76 810.012,3063.45 800.931,3063.78C789.704,3064.18 787.933,3064.01 784.35,3062.18C776.976,3058.42 770.818,3047.51 766.416,3030.42C761.39,3010.91 763.257,2997.98 774.233,2976.29C786.1,2952.84 793.107,2945.05 809.839,2936.73C817.451,2932.95 818.99,2932.55 827.478,2932.18C833.305,2931.92 838.187,2932.24 840.554,2933.02C845.91,2934.79 852.393,2941.16 855.004,2947.23C857.158,2952.24 859.146,2966.52 858.207,2970.25C857.131,2974.53 851.953,2969.91 849.813,2962.77C848.283,2957.66 845.746,2956.69 835.5,2957.27C825.626,2957.83 818.763,2960.37 808.398,2967.29C799.147,2973.47 795.752,2977.71 786.849,2994.19C778.829,3009.03 774.822,3019.72 774.676,3026.66C774.469,3036.46 777.835,3039.01 790.899,3038.98C802.178,3038.96 810.754,3036.74 822.614,3030.78L833.195,3025.47L835.597,3019.57C836.917,3016.32 837.869,3013.54 837.712,3013.38C837.555,3013.22 834.518,3012.73 830.963,3012.3L824.5,3011.5L821.593,3005.68C819.384,3001.26 818.663,2998.38 818.593,2993.68L818.5,2987.5L833.5,2987.86C841.75,2988.06 849.33,2988.66 850.345,2989.2C853.281,2990.75 857.361,3000.77 857.808,3007.54C858.17,3013.04 857.805,3014.42 853.708,3023.04C847.926,3035.2 836,3067.04 836,3070.32C836,3073.4 835.068,3076 833.964,3076C833.513,3076 832.384,3075.24 831.456,3074.31ZM2028.2,3059.8C2024.06,3053.04 2022.8,3045.94 2023.56,3033.6C2023.94,3027.33 2024.62,3021.61 2025.07,3020.89C2027.26,3017.35 2033.82,3029.36 2034.63,3038.39C2034.89,3041.2 2034.74,3047.77 2034.3,3052.99C2033.39,3063.82 2031.77,3065.62 2028.2,3059.8ZM2620.61,3023.53C2605.96,3019.34 2594.91,3010.19 2591.53,2999.47C2590.08,2994.85 2589.84,2991.75 2590.3,2983.61C2591.8,2956.99 2604.42,2936.13 2625.05,2926.15C2643.67,2917.16 2659.44,2915.64 2690.99,2919.82C2727.32,2924.63 2748.45,2921.65 2765.2,2909.35C2771.7,2904.58 2774.14,2900.51 2780.61,2883.6C2786.16,2869.09 2788.69,2864.5 2791.11,2864.5C2792.16,2864.5 2792.46,2865.95 2792.32,2870.5C2792.11,2877.53 2783.86,2900.8 2776.8,2914.29C2769.26,2928.68 2756.55,2939.11 2741.11,2943.59C2723.89,2948.57 2710.94,2948.84 2681,2944.81C2652.29,2940.96 2637.4,2942.39 2620.3,2950.67C2610.54,2955.39 2601.55,2963.85 2600.78,2969.02C2600.03,2974.05 2602.41,2980.96 2606.56,2985.8C2617.82,2998.95 2643.09,3003.53 2653.95,2994.39C2657.84,2991.12 2657.78,2989.59 2653.66,2985.45C2651.07,2982.87 2649.15,2981.96 2645.17,2981.43C2642.35,2981.05 2639.51,2980.12 2638.88,2979.36C2636.38,2976.35 2640.59,2960.49 2644.93,2956.57C2646.38,2955.26 2647.57,2955.16 2651.97,2955.99C2663.07,2958.1 2668,2964.3 2668,2976.16C2668,2996.26 2655.81,3018.6 2642.72,3022.49C2635.22,3024.72 2626.22,3025.14 2620.61,3023.53ZM994.414,3018.27C991.58,3015.44 988.817,3008.11 988.324,3002.11C987.943,2997.47 988.703,2993.66 992.738,2980C996.042,2968.82 998.066,2963.5 999.017,2963.5C1000.95,2963.5 1004.9,2969.62 1006.28,2974.75C1006.9,2977.09 1007.71,2979 1008.06,2979C1008.42,2979 1009.13,2977.54 1009.64,2975.75C1011.75,2968.42 1017.66,2974.84 1020.1,2987.09C1021.14,2992.33 1020.99,2993.39 1017.61,3004.09C1013.19,3018.11 1012.76,3018.88 1010.42,3016.94C1008.31,3015.19 1004.02,3006.24 1004.01,3003.55C1004,3002.42 1003.65,3002 1003.17,3002.55C1002.38,3003.45 1001.56,3006.07 999.032,3015.75C997.813,3020.42 997.004,3020.86 994.414,3018.27ZM656.404,2994.59C647.809,2992.51 641.347,2986.59 635.924,2975.85C629.805,2963.73 627.136,2945.4 630.364,2937.67C632.97,2931.43 640.599,2927.02 648.792,2927.01C651.847,2927 652.296,2927.45 655.008,2933.18C658.169,2939.86 659.588,2946.57 658.54,2949.88C658.034,2951.47 656.73,2952.1 652.887,2952.61C644.085,2953.78 637.588,2960.38 641.078,2964.6C644.934,2969.27 657.956,2972.03 666.989,2970.1C674.436,2968.5 683.91,2963.76 688.426,2959.37C696.255,2951.77 698.284,2941.37 693.25,2934.65C689.697,2929.91 679.345,2922.99 670.643,2919.56C655.435,2913.55 643.906,2912.77 619.5,2916.07C611.25,2917.18 597.75,2918.35 589.5,2918.65C576.578,2919.13 573.045,2918.91 564,2917.04C544.385,2913 531.078,2904.33 522.65,2890.09C517.505,2881.39 513.456,2872 507.598,2855.15C503.657,2843.82 502.978,2837.33 505.628,2836.31C508.068,2835.38 510.034,2838.66 514.896,2851.78C521.416,2869.38 525.127,2875.92 531.138,2880.41C537.462,2885.13 546.478,2889.39 555,2891.68C564.682,2894.28 587.818,2894.03 609.976,2891.07C632.504,2888.07 646.441,2888.48 659,2892.51C679.374,2899.04 690.437,2907.93 698.826,2924.5C705.709,2938.1 708.866,2959.08 705.676,2970.03C700.405,2988.14 677.285,2999.66 656.404,2994.59ZM1715.94,2954.07C1709.26,2952.77 1705.7,2949 1700.56,2937.77C1695.03,2925.72 1692.91,2915.51 1692.3,2898C1691.78,2883.06 1691.89,2881.85 1695.39,2864.46C1701.58,2833.76 1705,2822.83 1713.71,2805.78C1719.41,2794.64 1728.88,2784.19 1736.8,2780.3C1741.88,2777.8 1743.49,2777.52 1751.62,2777.64C1763.53,2777.83 1768.41,2779.88 1772.83,2786.56C1776.86,2792.65 1780.4,2803.76 1783.1,2818.81C1785.37,2831.44 1785.27,2837.81 1782.65,2849.5C1780.97,2857.01 1778.54,2878.71 1777.41,2896.41L1776.71,2907.31L1781.94,2906.69C1789.89,2905.75 1800.6,2899.59 1805.39,2893.19C1807.53,2890.34 1810.07,2888 1811.04,2888C1815.33,2888 1823,2906.23 1823,2916.43C1823,2925.52 1815.68,2933.98 1802.44,2940.17C1796.78,2942.83 1795.07,2943.17 1789.47,2942.82C1783.77,2942.45 1782.61,2942.01 1779.55,2939.05C1777.64,2937.2 1774.54,2932.72 1772.65,2929.1C1769.3,2922.64 1764,2908.13 1764,2905.39C1764,2902.19 1762.18,2904.55 1757.73,2913.5C1751.57,2925.91 1743.24,2939.32 1737.97,2945.3C1731.52,2952.62 1723.96,2955.63 1715.94,2954.07ZM1717.93,2916.03C1728.09,2910.85 1741.05,2888.72 1755.95,2851.08C1763.74,2831.43 1766.17,2824.23 1767.38,2817.25L1767.95,2814L1760.73,2814.01C1755.2,2814.02 1752.32,2814.58 1748.5,2816.4C1743.04,2818.99 1734.75,2827.04 1730.58,2833.79C1727.27,2839.14 1720.74,2853.89 1718,2862.21C1715.73,2869.11 1708.62,2903.11 1707.54,2912.25L1706.86,2918L1710.47,2918C1712.45,2918 1715.81,2917.12 1717.93,2916.03L1717.93,2916.03ZM1634.1,2949.21C1626.87,2941.59 1621.4,2926.11 1620.33,2910.26L1619.7,2901.02L1612.3,2914.7C1600.93,2935.73 1591.22,2947.9 1584.47,2949.6C1576.32,2951.64 1559.23,2945.86 1551.8,2938.54C1540.66,2927.56 1532.79,2902.02 1532.82,2877C1532.84,2860.49 1536.8,2847.47 1550.96,2817.41C1556.91,2804.78 1562.56,2796.4 1570.49,2788.47C1578.81,2780.16 1582.92,2778.64 1595.7,2779.17C1604.54,2779.54 1606.12,2779.91 1611.9,2783.01C1618.2,2786.39 1625.06,2793.46 1626.53,2798.11C1626.9,2799.26 1627.55,2799.82 1627.97,2799.35C1628.72,2798.52 1629.21,2796.04 1634.53,2766C1635.94,2758.03 1638.62,2745.65 1640.5,2738.5C1642.37,2731.35 1644.42,2721.55 1645.06,2716.73C1645.74,2711.56 1646.9,2707.12 1647.88,2705.91L1649.54,2703.85L1652.09,2705.86C1655.63,2708.64 1660.68,2720.09 1662.15,2728.64C1663.24,2735.03 1663.14,2736.93 1661.2,2746.64C1659.23,2756.49 1656.42,2776.23 1652.44,2808.24C1650.86,2820.94 1649.34,2828.81 1645.57,2843.84C1642.93,2854.33 1639.51,2880.84 1638.13,2901.5C1637.66,2908.65 1637.38,2914.63 1637.51,2914.79C1637.64,2914.95 1639.57,2914.36 1641.8,2913.47C1644.86,2912.24 1646.33,2912.11 1647.86,2912.93C1650.93,2914.57 1655.9,2925.64 1657.73,2934.94C1659.8,2945.44 1658.91,2947.49 1650.96,2950.72C1642.51,2954.15 1638.44,2953.79 1634.1,2949.21ZM1574.55,2912.54C1576.46,2911.74 1579.41,2909.61 1581.1,2907.79C1591.8,2896.31 1606.97,2866.53 1616.82,2837.67C1620.32,2827.41 1620.67,2825.55 1619.79,2822.08C1618.96,2818.8 1618.13,2817.87 1614.88,2816.57C1610.44,2814.79 1600.29,2814.51 1594.88,2816.02C1582.88,2819.35 1572.03,2834.18 1558.16,2866.16C1551.37,2881.85 1548.76,2890.85 1548.62,2899.08C1548.48,2907.06 1548.86,2907.51 1559,2911.4C1566.59,2914.31 1569.77,2914.54 1574.55,2912.54ZM1462.37,2944.75C1454.7,2938.03 1448.75,2925.57 1446.92,2912.4C1444.96,2898.32 1449.25,2881.77 1462.32,2853C1468.44,2839.53 1477,2817.53 1477,2815.29C1477,2815.01 1473.96,2814.95 1470.25,2815.16C1462.31,2815.61 1452.21,2819.97 1440.7,2827.93C1427.96,2836.74 1416.53,2853.3 1412,2869.54C1410.78,2873.92 1407.63,2883.58 1404.99,2891C1402.36,2898.43 1397.88,2911.72 1395.04,2920.55C1389.53,2937.63 1386.45,2944.29 1383.82,2944.8C1379.79,2945.57 1372.6,2930.48 1371.44,2918.79C1370.9,2913.45 1371.27,2911.07 1373.84,2903C1375.51,2897.78 1378.45,2887.88 1380.37,2881C1385.55,2862.5 1389.69,2850.64 1394.71,2840C1397.29,2834.53 1402.13,2820.54 1406.14,2807C1417.73,2767.88 1416.99,2770 1419.09,2770C1421.69,2770 1426.18,2776.49 1428.51,2783.61C1429.57,2786.85 1430.52,2789.64 1430.61,2789.81C1430.71,2789.98 1434.55,2788.09 1439.15,2785.6C1448.87,2780.35 1458.61,2777.53 1463.87,2778.46C1478.5,2781.03 1485.25,2787.68 1490.81,2805C1493.48,2813.32 1495,2821.93 1495,2828.77C1495,2838.83 1487.94,2861.51 1478.28,2882.5C1470.35,2899.72 1466.99,2908 1467.94,2908C1468.4,2908 1472.96,2904.8 1478.09,2900.88C1488.26,2893.1 1488.7,2893.04 1492.71,2898.94C1496.4,2904.35 1499.16,2913.08 1499.73,2921.09L1500.26,2928.68L1491.88,2935.22C1473.86,2949.26 1469.22,2950.76 1462.37,2944.75ZM2003.5,2943.81C2000.75,2943.31 1994.9,2941.15 1990.5,2939.01C1968.86,2928.49 1953.25,2901.42 1940.95,2853.06C1934.75,2828.68 1933.71,2819.37 1934.28,2793.08C1934.69,2773.59 1935.13,2768.79 1937.43,2758C1944.33,2725.69 1955.08,2703.26 1972,2685.92C1985.55,2672.03 1998.69,2665.59 2013.15,2665.74C2021.95,2665.83 2027.79,2667.94 2032.61,2672.77C2036.89,2677.05 2043.31,2689.76 2047.49,2702.25C2051.23,2713.43 2051.9,2720.4 2049.56,2723.56C2047.26,2726.66 2045,2724.45 2039.87,2714.07C2037.08,2708.43 2034.3,2704.18 2032.87,2703.39C2029.27,2701.39 2018.15,2701.71 2010.65,2704.03C2007.04,2705.14 2000.74,2708.29 1996.65,2711.03C1974.55,2725.81 1958.48,2754.94 1951.9,2792.12C1948.98,2808.68 1948.99,2834.51 1951.94,2847.7C1959.84,2883.05 1968.56,2897.51 1986.44,2904.93C2000.61,2910.8 2008.84,2908.28 2023.63,2893.58C2032.24,2885.02 2044.98,2867.26 2054.55,2850.5C2058.22,2844.07 2058.98,2843.63 2061.83,2846.3C2067.33,2851.42 2072.58,2866.66 2071.76,2875.13C2071.01,2882.94 2051.39,2913.35 2038.15,2927.22C2024.92,2941.09 2014.89,2945.89 2003.5,2943.81L2003.5,2943.81ZM1250.44,2926.04C1244.68,2923.71 1235.96,2908.4 1231.78,2893.28C1228.74,2882.3 1228.75,2855.59 1231.79,2843C1232.92,2838.33 1234.58,2829.1 1235.48,2822.5C1237.49,2807.74 1239.26,2800.83 1247.38,2776C1252.8,2759.43 1254.07,2756.45 1255.86,2756.18C1258.63,2755.77 1262.95,2762.51 1266.01,2772.02C1269.4,2782.55 1268.6,2788.29 1260.18,2814.03C1254.82,2830.4 1252.74,2838.43 1251.5,2847.53C1250.6,2854.12 1249.02,2863.33 1248,2868C1246.98,2872.68 1245.83,2879.81 1245.43,2883.86L1244.73,2891.22L1248.12,2890.51C1258.8,2888.28 1264.61,2881.81 1291.72,2842C1310.9,2813.83 1315.33,2806.26 1322.85,2788.78C1328.96,2774.58 1335,2763.08 1337.39,2761.1C1340.49,2758.53 1345.14,2764.27 1348.96,2775.37C1352.31,2785.12 1352.46,2790.52 1349.62,2799.5C1343.01,2820.38 1325,2884.25 1325.55,2884.85C1326.43,2885.81 1333.6,2882.39 1337.99,2878.92C1340.72,2876.76 1343.39,2875 1343.92,2875C1347.56,2875 1354.72,2891.18 1355.69,2901.58C1356.27,2907.75 1356.27,2907.76 1352.06,2912.33C1346.6,2918.25 1340.61,2921.14 1333.79,2921.14C1324.83,2921.14 1320.17,2918.14 1315.78,2909.55C1311.4,2900.99 1309.79,2894.55 1309.15,2883.03L1308.51,2871.55L1299.01,2885.53C1287.51,2902.43 1275.41,2917.69 1270.57,2921.38C1263.84,2926.52 1256.07,2928.32 1250.45,2926.04L1250.44,2926.04ZM2114.49,2918.16C2105.61,2912.74 2096.9,2892.95 2093.47,2870.4C2091.27,2855.97 2091.24,2833.33 2093.4,2821.07C2099.84,2784.51 2115.49,2749.34 2130.19,2738.32C2133.32,2735.98 2134.09,2735.86 2144.32,2736.19C2154.43,2736.51 2155.27,2736.7 2157.14,2739.02C2159.95,2742.51 2163.49,2750.55 2164.98,2756.83C2165.67,2759.76 2167.51,2764.71 2169.08,2767.84C2174.7,2779.09 2175.31,2784.42 2174.44,2815C2174.01,2830.12 2173.75,2846.1 2173.87,2850.5C2174.14,2861.36 2175.99,2874 2177.3,2874C2180.68,2874 2195.55,2858.25 2203.85,2845.88C2205.95,2842.75 2207.8,2841.01 2208.82,2841.2C2212.91,2841.99 2219.71,2857.12 2220.69,2867.62C2221.4,2875.14 2220.67,2876.59 2209.09,2890.89C2199.27,2903.01 2191.9,2909.74 2187.55,2910.56C2177.36,2912.47 2170,2899.83 2162.49,2867.5C2161.88,2864.86 2161.46,2865.68 2159.01,2874.37C2150.1,2905.99 2128.84,2926.91 2114.49,2918.16L2114.49,2918.16ZM2120.5,2880.51C2129.15,2875.44 2137.23,2863.49 2142.53,2847.93C2145.34,2839.64 2151.13,2815.8 2153.43,2803C2154.67,2796.05 2157,2776.45 2157,2772.89C2157,2771.48 2147.28,2771.85 2143.56,2773.41C2138.96,2775.33 2131.23,2786.4 2123.94,2801.5C2112.99,2824.18 2107.78,2845.43 2107.63,2868C2107.58,2875.43 2107.92,2882.1 2108.38,2882.84C2109.53,2884.66 2115.32,2883.54 2120.5,2880.51ZM1137.23,2910.29C1132.92,2909.46 1123.46,2899.47 1119.21,2891.24C1111.03,2875.43 1106.86,2855.07 1108.99,2841.42C1112.41,2819.52 1127.08,2782.66 1140.84,2761.36C1151.72,2744.54 1170.48,2734.36 1183.93,2737.98C1191.94,2740.14 1197.35,2747.05 1204.4,2764.17C1210.48,2778.9 1211.52,2792 1206.61,2792C1204.45,2792 1200.54,2786.83 1197.93,2780.54C1195.27,2774.12 1193.92,2773.46 1185.1,2774.26C1174.53,2775.22 1163.08,2782.63 1156.15,2793.01C1146.65,2807.24 1130.33,2843.75 1126.66,2859C1123.98,2870.12 1124.06,2871.07 1127.82,2873.3C1130.86,2875.1 1131.75,2875.17 1138.26,2874.09C1142.17,2873.45 1148.4,2871.65 1152.09,2870.1C1159.34,2867.05 1175.68,2856.74 1185.73,2848.88C1189.15,2846.19 1192.39,2844 1192.93,2844C1194.77,2844 1199.27,2851.05 1201.71,2857.76C1203.05,2861.47 1204.41,2867.53 1204.72,2871.23L1205.29,2877.97L1201.39,2881.57C1196.22,2886.37 1171.81,2902.72 1165.5,2905.61C1155.77,2910.08 1145.22,2911.83 1137.23,2910.29ZM2245.58,2898.67C2242.07,2895.16 2238.5,2887.27 2236.45,2878.5C2234.93,2872 2234.94,2870.07 2236.52,2851.5C2238.81,2824.6 2237.6,2796.55 2232.53,2758.5C2230.55,2743.65 2229.06,2729.47 2229.21,2727C2229.47,2722.96 2229.75,2722.5 2231.96,2722.5C2237.24,2722.5 2242.26,2734.4 2245.05,2753.49C2246.1,2760.65 2246.99,2766.95 2247.03,2767.5C2247.07,2768.05 2248.36,2765.12 2249.89,2761C2254.96,2747.41 2260.21,2737.84 2265.51,2732.54C2271.01,2727.04 2280.4,2721.56 2286.13,2720.5C2292.62,2719.29 2298.54,2723.98 2303.78,2734.5C2311.99,2750.96 2313.53,2763.75 2312.03,2802.68C2310.7,2837.04 2311.66,2857 2314.64,2857C2316.51,2857 2324.93,2848.27 2334.64,2836.25C2338.75,2831.16 2342.46,2827 2342.88,2827C2344.19,2827 2347.67,2831.3 2349.78,2835.5C2352.97,2841.88 2355,2849.9 2355,2856.15C2355,2861.88 2354.93,2862.02 2347.09,2871.72C2335.04,2886.61 2328.1,2893.04 2323.39,2893.67C2318.14,2894.37 2314.86,2891.67 2310.6,2883.15C2306.38,2874.7 2303.49,2866.24 2300.49,2853.55C2296.2,2835.45 2295.75,2829.13 2296.15,2792.01C2296.36,2772.76 2296.17,2757 2295.73,2757C2294.29,2757 2284.57,2762.23 2281.07,2764.89C2272.99,2771.04 2263.78,2791.25 2259.59,2812C2256.35,2828.06 2254.12,2849.18 2253.45,2870C2252.74,2891.86 2252.2,2896.53 2250.07,2899.16L2248.28,2901.37L2245.58,2898.67ZM1045.24,2883.55C1039.98,2879.12 1036.14,2870.37 1032.55,2854.6L1031.89,2851.7L1028.57,2856.6C1023.88,2863.52 1013.37,2873.27 1007.25,2876.37C1001.15,2879.46 991.107,2881.12 985.103,2880.02C979.454,2878.99 975.048,2874.59 970.112,2865.07C962.111,2849.64 959.599,2835.43 961.046,2813.8C962.2,2796.56 963.636,2789.66 971.509,2763.54C976.859,2745.79 989.041,2709.4 992.861,2699.75C994.21,2696.35 995.389,2696.3 998.608,2699.52C1003.8,2704.71 1008.63,2719.79 1007.76,2728.06C1007.51,2730.5 1003.66,2742.91 999.214,2755.62C989.407,2783.68 980.232,2813.84 978.413,2824C977.674,2828.12 977.054,2834.38 977.035,2837.89L977,2844.29L983.414,2843.69C990.961,2842.99 996.751,2840.47 1003.28,2835.08C1012.99,2827.06 1017.28,2820.45 1037.74,2782C1050.12,2758.73 1055.1,2748.18 1060.16,2734.54C1064.58,2722.59 1066.06,2721.59 1070.58,2727.51C1074.18,2732.23 1077.99,2743.03 1078.67,2750.45C1079.16,2755.81 1078.81,2757.53 1075.61,2765.46C1070.13,2779.03 1052,2838.96 1052,2843.51C1052,2844.44 1059.37,2838.5 1066.65,2831.7C1072.27,2826.45 1073.06,2826.02 1074.91,2827.18C1077.72,2828.93 1082.5,2838.22 1084.42,2845.64C1086.61,2854.16 1086.45,2859.15 1083.89,2862.41C1081.3,2865.71 1063.96,2880.37 1058.81,2883.62C1053.88,2886.73 1048.99,2886.7 1045.24,2883.55L1045.24,2883.55ZM2399.36,2865.01C2393.83,2862.78 2387.6,2850.1 2383.12,2832C2378.61,2813.76 2377.27,2804.67 2376.05,2784C2373.82,2746.05 2372.83,2735.22 2370.4,2722.07C2369.03,2714.64 2368.04,2706.31 2368.2,2703.54C2368.46,2699.22 2368.82,2698.45 2370.7,2698.19C2373.29,2697.82 2376.99,2702.84 2380.04,2710.86C2384.69,2723.11 2389.53,2757.79 2391,2789.5C2392.12,2813.54 2393.75,2829 2395.17,2829C2396.78,2829 2405.4,2820.35 2409.51,2814.6C2411.71,2811.55 2413.98,2809.03 2414.56,2809.02C2418.92,2808.93 2425.81,2822.77 2427.53,2835.07C2428.39,2841.23 2426.74,2844.77 2418.54,2854.32C2409.29,2865.09 2405.2,2867.37 2399.36,2865.01ZM884,2855.64C875.616,2853.09 861.832,2847.46 852.866,2842.93C842.195,2837.55 836.631,2830.02 833.497,2816.72C831.2,2806.98 831.648,2801 834.674,2801C835.477,2801 837.566,2802.08 839.317,2803.39C841.068,2804.7 844.862,2806.96 847.75,2808.41C852.45,2810.76 853.002,2810.85 853.023,2809.27C853.046,2807.47 856.292,2801.24 863.872,2788.42C866.175,2784.53 870.332,2775.11 873.11,2767.49C875.888,2759.88 880.319,2749.34 882.956,2744.07C885.593,2738.81 889.913,2729.78 892.555,2724C895.198,2718.22 902.443,2703.77 908.657,2691.87C914.959,2679.81 922.554,2663.45 925.832,2654.87C929.065,2646.42 933.34,2636.27 935.332,2632.32L938.955,2625.14L935.227,2623.95C927.111,2621.37 925.267,2619.98 922.136,2614.11C916.808,2604.11 914.131,2588.8 917.257,2586.2C918.166,2585.45 928.897,2588.61 955.991,2597.62C976.603,2604.47 994.485,2610.74 995.729,2611.56C1002.68,2616.11 1009.94,2643.45 1005.01,2646.49C1004.5,2646.81 995.473,2644.12 984.937,2640.53C974.401,2636.94 965.154,2634 964.39,2634C963.572,2634 963,2635.03 963,2636.51C963,2637.89 959.014,2647 954.142,2656.76C949.27,2666.52 942.696,2681.25 939.531,2689.5C936.344,2697.81 928.845,2713.86 922.715,2725.49C916.63,2737.04 908.997,2752.33 905.753,2759.46C902.51,2766.6 898.357,2775.15 896.526,2778.47C894.694,2781.78 891.097,2790.34 888.532,2797.47C885.967,2804.6 882.793,2812.68 881.479,2815.43C880.165,2818.18 879.306,2820.64 879.571,2820.9C879.836,2821.17 883.847,2821.64 888.485,2821.95C897.91,2822.57 898.184,2822.76 902.38,2831.5C905.504,2838.01 907.251,2846.24 906.834,2852.5L906.5,2857.5L899,2857.72C893.545,2857.87 889.455,2857.31 884,2855.64ZM2477.7,2845.62C2467.93,2841.98 2461.5,2835.02 2454.45,2820.5C2443.12,2797.15 2436.36,2761.93 2443.22,2762.01C2447.9,2762.07 2454.12,2774.78 2456.02,2788.16C2457.55,2798.92 2460.38,2804.55 2465.89,2807.79C2469.98,2810.19 2471.51,2810.5 2479.5,2810.5C2489.97,2810.5 2500.39,2807.59 2507.89,2802.58C2515.15,2797.72 2520.54,2785.8 2517.81,2780.61C2515.11,2775.45 2508.65,2769.09 2503.13,2766.15C2499.58,2764.26 2491.37,2761.54 2482.83,2759.43C2467.78,2755.71 2462.57,2753.34 2457.32,2747.84C2450.19,2740.38 2442.55,2724.16 2439.37,2709.74C2437.1,2699.45 2437.04,2682.98 2439.26,2675.82C2445.1,2656.93 2473.6,2645.02 2489.23,2654.93C2495.01,2658.59 2502.34,2667.32 2505.57,2674.37C2509.15,2682.18 2511.52,2694.63 2510.12,2698.25C2509.53,2699.76 2508.39,2701 2507.58,2701C2506.78,2701 2504,2698.55 2501.42,2695.57C2495.49,2688.69 2492.89,2687.62 2483.62,2688.21C2470.85,2689.03 2459.15,2696.06 2454.87,2705.48C2450.35,2715.44 2453.6,2718.36 2475.09,2723.63C2492.97,2728.01 2498.62,2730.66 2506.49,2738.38C2522.67,2754.26 2534,2781.88 2534,2805.45C2534,2826.62 2527.22,2836.86 2508.5,2843.99C2500.86,2846.9 2483.58,2847.81 2477.7,2845.62ZM2371.51,2653.19C2368.09,2648.02 2365.35,2640.69 2364.54,2634.5C2364.18,2631.75 2363.2,2625 2362.35,2619.5C2360.8,2609.36 2361.39,2604 2364.07,2604C2366.24,2604 2370.91,2610.15 2373.05,2615.8C2376.55,2625.07 2379.1,2639.6 2378.78,2648.5C2378.52,2655.87 2378.33,2656.53 2376.3,2656.81C2374.68,2657.04 2373.43,2656.1 2371.51,2653.19Z" style="fill:var(--clr-logo--text, rgb(23,23,23));"/>
</svg>
