<?xml version="1.0" encoding="UTF-8" standalone="no"?>
<svg viewBox="0 0 2800 2599" version="1.1" xmlns="http://www.w3.org/2000/svg">
     <path id="Hundrot" d="M1119,1972.66c-49.703,-0.575 -149.548,-5.437 -192,-9.35c-5.775,-0.533 -11.513,-0.968 -12.75,-0.969c-1.543,
     -0 -2.25,-0.597 -2.25,-1.899c0,-4.208 8.441,-30.172 12.549,-38.602c2.413,-4.95 5.466,-11.931 6.785,-15.513c3.263,-8.863
     8.023,-18.11 13.633,-26.487c8.339,-12.452 22.033,-35.292 22.033,-36.749c0,-0.78 -3.57,-3.743 -7.934,-6.585c-9.811,-6.391 -13.267,-10.552
     -20.9,-25.166c-9.217,-17.645 -15.171,-39.787 -15.162,-56.381c0.011,-18.692 7.326,-49.319 17.868,-74.801c3.257,-7.875 7.586,-19.493
     9.62,-25.818c4.166,-12.958 4.217,-15.473 0.639,-31.935c-2.676,-12.312 -4.561,-39.411 -3.799,-54.6c0.938,-18.665 3.771,-31.193
     10.777,-47.639c3.32,-7.793 7.423,-16.905 9.119,-20.248c3.042,-5.998 3.068,-6.178 1.983,-13.701c-0.742,-5.151 -1.919,-8.831
     -3.628,-11.35c-2.946,-4.34 -4.119,-9.416 -3.071,-13.291c0.406,-1.505 1.056,-15.336 1.444,-30.736c0.636,-25.224 0.977,-29.239
     3.44,-40.5c3.219,-14.717 7.673,-24.604 16.669,-37c6.295,-8.675 16.746,-28.523 15.613,-29.655c-0.344,-0.344 -4.668,3.495
     -9.609,8.53l-8.984,9.157l-1.007,-3.766c-4.502,-16.821 -6.464,-26.631 -6.451,-32.266c0.016,-7.308 1.834,-20.523 4.05,-29.438
     c1.628,-6.552 1.387,-8.801 -2.307,-21.562c-3.204,-11.065 -3.918,-21.106 -2.418,-34.005c1.989,-17.111 1.56,-28.984
     -1.462,-40.495c-1.445,-5.5 -5.814,-22.375 -9.709,-37.5l-7.083,-27.5l0.167,-18.5c0.092,-10.175 0.843,-23.406 1.668,-29.403
     c1.871,-13.601 9.363,-37.409 14.386,-45.715c5.614,-9.285 19.485,-20.424 35.081,-28.172l12.5,-6.21l11,0.084c17.478,0.134
     42.376,6.622 59.5,15.505c8.183,4.245 21.633,13.989 30.636,22.196c14.125,12.875 31.447,42.335 39.226,66.715c5.274,16.526
     5.663,22.213 3.181,46.409c-2.119,20.647 -2.771,46.744 -1.125,45.041c2.663,-2.756 10.964,-34.084 11.116,-41.95l0.077,-4l2.194,2.932
     c1.207,1.612 5.418,7.237 9.357,12.5c3.939,5.262 14.384,17.514 23.21,27.225c13.08,14.392 17.064,18.154 21.543,20.346l5.496,2.688
     l23.294,-1.104c12.812,-0.607 28.695,-1.741 35.295,-2.52c18.55,-2.188 52.403,-3.822 69,-3.331c9.406,0.278 27.119,2.028 47.5,4.691
     c47.123,6.157 56.358,5.305 82.58,-7.619c17.091,-8.423 30.222,-16.206 45.356,-26.882c6.36,-4.487 11.72,-8.024 11.911,-7.861c0.192,0.163
     -0.579,2.776 -1.713,5.805c-1.133,3.029 -2.929,9.023 -3.99,13.319c-3.619,14.645 -3.644,14.415 0.866,7.811c6.246,-9.146 16.063,-25.833
     21.95,-37.312c4.697,-9.158 6.953,-12.089 20.141,-26.165c19.891,-21.23 41.756,-39.965 58.69,-50.286c10.45,-6.37 27.907,-14.311
     36.709,-16.7c4.4,-1.194 13.625,-3.911 20.5,-6.038c16.82,-5.204 25.938,-6.31 45.5,-5.522c29.761,1.2 35.496,2.826 54.753,15.528
     c11.338,7.478 16.897,13.604 22.087,24.335c5.694,11.774 7.99,19.031 11.279,35.66c2.665,13.467 2.668,13.55 1.505,34c-1.48,26.018
     -2.144,30.436 -7.713,51.332c-7.674,28.798 -18.012,53.194 -30.007,70.808c-15.537,22.818 -23.416,48.38 -27.235,88.36c-0.669,7.007
     -2.194,13.798 -5.095,22.689c-3.923,12.024 -4.562,13.217 -12.203,22.79c-11.231,14.07 -10.799,13.775 -59.371,40.507c-8.8,4.843
     -18.652,10.561 -21.892,12.707c-3.241,2.146 -6.264,3.993 -6.719,4.104c-0.455,0.112 -3.957,-6.097 -7.781,-13.797l-6.953,-14l-0.064,5.5
     c-0.06,5.099 1.324,12.91 5.403,30.5c0.893,3.85 2.754,12.625 4.136,19.5c1.382,6.875 4.252,21.05 6.378,31.5c2.126,10.45 4.111,22.825
     4.412,27.5c0.3,4.675 1.762,17.207 3.248,27.848c2.637,18.884 2.676,19.867 1.616,41c-0.989,19.705 -1.372,22.596 -4.262,32.152
     c-3.85,12.73 -9.448,24.957 -14.938,32.623c-6.096,8.513 -5.896,9.549 6.05,31.377c5.569,10.175 12.151,22.775 14.626,28c7.748,16.355
     20.729,50.7 25.544,67.583c2.225,7.8 8.324,37.178 10.187,49.065c0.358,2.282 2.71,7.682 5.228,12c2.518,4.319 6.051,10.552 7.851,13.852
     c3.924,7.193 13.646,30.618 12.982,31.282c-0.663,0.662 -15.651,3.369 -56.552,10.215c-129.293,21.639 -262.452,35.392 -397,41.003
     c-26.08,1.087 -129.764,3.106 -141.5,2.755c-3.85,-0.115 -15.775,-0.311 -26.5,-0.435l-0,0Zm574.598,-616.38c3.591,-2.22 18.91,-21.859
     22.211,-28.475c1.107,-2.22 3.673,-8.745 5.703,-14.5c3.081,-8.74 3.691,-11.797 3.695,-18.545c0.01,-10.849 -1.701,-18.427 -6.181,-27.42
     c-5.206,-10.448 -10.026,-24.982 -10.026,-30.228c-0,-6.744 2.555,-14.112 9.497,-27.381c8.715,-16.66 10.931,-24.422 10.103,-35.391
     c-1.614,-21.388 -7.359,-29.967 -23.138,-34.554c-12.085,-3.513 -24.49,0.321 -33.531,10.364c-2.817,3.13 -8.961,11.469 -13.654,18.531
     c-4.692,7.063 -11.323,16.063 -14.736,20c-5.693,6.567 -20.08,25.695 -23.814,31.659c-5.47,8.739 -7.136,23.91 -4.094,37.285c1.805,7.936
     9.146,26.934 12.864,33.291c6.061,10.365 15.409,20.237 27.233,28.76c17.221,12.413 21.329,16.818 25.843,27.709c4.733,11.419 6.193,12.499
     12.025,8.895Zm-5.484,-19.495c-3.779,-7.308 -12.359,-15.684 -25.114,-24.516c-9.476,-6.561 -13.744,-10.613 -20.656,-19.611c-8.877,-11.555
     -18.344,-36.91 -18.344,-49.129c-0,-9.632 3.116,-16.601 13.721,-30.689c5.382,-7.15 12.584,-16.316 16.003,-20.369c3.42,-4.054
     8.338,-10.804 10.929,-15c6.806,-11.026 16.094,-22.815 19.716,-25.026c5.645,-3.447 10.783,-4.452 16.492,-3.228c10.716,2.298
     16.2,8.483 18.107,20.422c1.503,9.412 -1.192,19.592 -9.01,34.022c-7.983,14.736 -10.067,20.653 -10.699,30.368c-0.459,7.047
     -0.152,9.416 2.201,17c1.504,4.846 4.977,13.651 7.718,19.566c4.535,9.789 5.032,11.587 5.528,20c0.506,8.587 0.312,9.922 -2.722,18.745
     c-1.797,5.225 -4.159,11.3 -5.249,13.5c-1.97,3.973 -13.778,20.359 -14.735,20.447c-0.275,0.025 -2.024,-2.901 -3.886,-6.502Z
     m-653.943,-57.134c5.305,-2.888 12.044,-9.685 28.077,-28.319c5.912,-6.87 13.95,-16.092 17.864,-20.492c9.097,-10.228 20.366,-26.07
     23.36,-32.841c13.375,-30.244 14.624,-58.678 3.54,-80.636c-1.55,-3.069 -4.281,-9.993 -6.069,-15.385c-4.031,-12.156 -8.562,-19.265
     -17.618,-27.638c-7.989,-7.387 -13.877,-10.021 -22.325,-9.988c-7.22,0.028 -12.503,3.025 -16.746,9.499c-4.558,6.956 -6.408,13.205
     -13.169,44.489c-10.587,48.986 -12.881,63.236 -18.753,116.5c-2.286,20.743 -2.488,24.923 -1.483,30.801c2.864,16.76 10.186,21.159
     23.322,14.01Zm-12.265,-11.061c-1.737,-5.216 -1.451,-15.662 1.023,-37.25c5.601,-48.885 7.87,-62.862 17.195,-105.929c8.749,-40.407
     10.424,-45.54 16.18,-49.571c4.413,-3.091 13.422,-0.799 18.293,4.653c3.569,3.995 13.683,21.72 20.169,35.347c8.496,17.851 9.627,22.794
     8.926,39c-0.607,14.037 -1.002,15.935 -6.435,30.907c-4.485,12.36 -11.98,23.657 -26.757,40.329c-12.537,14.145 -18.726,21.259
     -28.771,33.07c-6.72,7.902 -13.535,13.194 -16.989,13.194c-0.943,0 -2.091,-1.52 -2.834,-3.75Z"
           style="fill:rgb(253,0,224);fill-rule:nonzero;"/>
    <path id="Hundgruen" d="M886.5,1959.71c-80.466,-7.995 -160.388,-18.636 -228.764,-30.46c-15.789,-2.73 -18.686,-3.495 -18.27,-4.827
    c0.271,-0.871 2.122,-9.233 4.113,-18.583c1.991,-9.35 5.147,-22.175 7.013,-28.5c1.867,-6.325 4.536,-15.55 5.932,-20.5c6.422,-22.776
    20.975,-64.798 28.571,-82.5c10.453,-24.358 29.138,-62.27 39.994,-81.146c9.69,-16.848 18.748,-36.294 23.506,-50.465c1.925,-5.735
    4.69,-17.758 6.387,-27.785c3.351,-19.788 5.552,-29.051 10.718,-45.104c7.315,-22.735 17.798,-45.845 29.711,-65.5c4.096,-6.757
    7.871,-15.273 13.077,-29.5c8.864,-24.223 9.425,-26.157 14.377,-49.5c5.111,-24.092 5.835,-28.924 7.642,-51c0.833,-10.175 2.408,-23.45
    3.501,-29.5c4.104,-22.733 4.828,-56.76 1.512,-71.064c-2.077,-8.961 -14.1,-43.657 -17.408,-50.238c-9.423,-18.741 -13.04,-79.066
    -7.177,-119.698c1.112,-7.7 2.279,-20.075 2.595,-27.5c0.669,-15.719 0.578,-15.682 -7.014,2.853c-9.87,24.1 -12.219,41.212
    -11.137,81.147c0.35,12.925 0.892,24.625 1.203,26c0.554,2.447 0.532,2.458 -1.059,0.5c-3.488,-4.292 -18.984,-33.147 -30.073,-56
    c-25.478,-52.505 -28.502,-58.376 -35.281,-68.5c-14.705,-21.958 -26.082,-32.741 -55.169,-52.288c-20.254,-13.611 -24.805,-17.002
    -38.958,-29.026c-20.141,-17.113 -27.358,-25.307 -34.058,-38.673c-7.739,-15.438 -11.654,-29.686 -16.629,-60.513c-2.894,-17.936
    -3.438,-23.531 -2.944,-30.288c0.671,-9.168 4.582,-30.622 7.686,-42.156c2.253,-8.373 9.786,-21.654 15.297,-26.97l3.539,-3.413
    l5.284,3.604c2.905,1.982 8.935,6.218 13.399,9.413c4.464,3.196 10.01,7.16 12.325,8.81c2.316,1.65 6.473,4.941 9.238,7.313c2.766,2.372
    5.196,4.145 5.401,3.94c0.776,-0.775 -3.83,-11.361 -5.984,-13.753c-1.238,-1.375 -3.927,-4.841 -5.975,-7.703c-4.037,-5.642 -12.879,-12.785
    -21.614,-17.462c-3.029,-1.621 -7.982,-4.707 -11.007,-6.858c-7.408,-5.267 -28.395,-15.977 -51.615,-26.341c-32.601,-14.55 -47.402,-21.585
    -53.145,-25.259c-15.669,-10.023 -25.421,-24.657 -35.236,-52.877c-3.647,-10.487 -3.617,-10.301 -5.938,-37c-1.1,-12.65 -2.236,-25.7
    -2.525,-29c-0.288,-3.3 -1.202,-21.3 -2.029,-40c-1.535,-34.663 -2.489,-50.059 -4.37,-70.5c-0.582,-6.325 -1.511,-17.575 -2.063,-25
    c-0.553,-7.425 -1.907,-18 -3.008,-23.5c-1.102,-5.5 -2.467,-14.354 -3.034,-19.676c-0.566,-5.322 -4.919,-28.947 -9.674,-52.5c-7.756,-38.425
    -8.651,-44.005 -8.714,-54.324c-0.06,-9.633 0.287,-12.393 2.133,-17c3.389,-8.456 8.9,-15.017 15.414,-18.348c11.021,-5.636 34.179,-4.615
    55.221,2.435c19.687,6.595 37.076,16.97 57.168,34.106c19.104,16.294 32.976,27.875 40.22,33.579c14.759,11.622 38.876,24.002 59.695,30.645
    c8.25,2.632 20.565,6.556 27.366,8.719c6.801,2.164 15.18,5.249 18.62,6.858c3.439,1.608 9.8,4.329 14.134,6.046c12.836,5.087 34.078,16.474
    46.153,24.742c6.2,4.245 22.4,15.328 36,24.629c13.6,9.301 26.908,18.626 29.574,20.723c8.776,6.903 59.879,56.442 73.812,71.553c20.422,22.149
    38.209,43.19 51.069,60.413c18.244,24.433 50.674,60.855 60.921,68.419c5.613,4.144 10.66,6.517 26.762,12.582c10.58,3.986 15.908,8.906
    18.315,16.911c3.347,11.131 3.391,10.92 -3.424,16.448c-9.409,7.632 -22.217,26.572 -28.855,42.669c-3.42,8.293 -3.646,9.814 -1.118,7.526
    c1.005,-0.91 2.071,-1.655 2.368,-1.655c1.63,0 20.482,-20.723 27.577,-30.314c12.489,-16.883 14.78,-19.335 22.04,-23.596c17.849,-10.474
    47.149,-14.196 71.62,-9.096c13.765,2.868 23.816,2.422 42.066,-1.866c7.15,-1.681 15.925,-3.184 19.5,-3.342c3.575,-0.157 25.85,0.085
    49.5,0.539c49.973,0.958 52.607,0.722 80.5,-7.232c9.625,-2.745 22.45,-5.94 28.5,-7.1c6.05,-1.16 19.775,-3.868 30.5,-6.018c10.725,-2.149
    24.225,-4.39 30,-4.978c16.752,-1.706 31.83,-4.659 57,-11.16c26.93,-6.956 28.933,-7.042 51.5,-2.206c35.379,7.582 59.806,17.003 71,27.384c
    6.902,6.4 17.147,13.698 29.793,21.223c6.714,3.994 12.616,7.436 13.117,7.649c3.212,1.365 -10.291,-14.78 -22.92,-27.404c-12.918,-12.912
    -16.212,-15.641 -23.506,-19.469c-22.513,-11.815 -42.755,-18.391 -67.697,-21.995c-7.818,-1.129 -14.905,-2.319 -15.75,-2.643c-1.802,-0.691
    -1.884,-2.111 -0.545,-9.442c0.546,-2.989 1.894,-11.436 2.995,-18.771c2.506,-16.681 18.214,-79.241 25.553,-101.765c3.028,-9.294 6.65,-20.723
    8.049,-25.398c1.398,-4.675 4.726,-13 7.396,-18.5c2.669,-5.5 7.092,-14.731 9.829,-20.514c2.737,-5.782 8.682,-15.682 13.212,-22c29.326,-40.902
    68.49,-77.896 126.42,-119.413c24.69,-17.695 58.241,-45.346 70.143,-57.808c15.948,-16.698 47.882,-61.728 52.942,-74.652c4.884,-12.472
    14.212,-20.227 18.805,-15.634c3.491,3.491 0.755,15.082 -7.871,33.338c-5.621,11.898 -10.021,19.231 -19.01,31.683c-3.97,5.5 -9.904,14.05
    -13.186,19c-3.281,4.95 -11.997,15.456 -19.368,23.346c-7.371,7.89 -17.625,19.365 -22.788,25.5c-11.088,13.174 -32.861,37.299 -45.718,50.654
    c-5.03,5.225 -11.529,12.875 -14.442,17c-2.913,4.125 -10.476,13.8 -16.807,21.5c-6.331,7.7 -14.725,18.314 -18.654,23.586c-10.462,14.043
    -32.251,50.439 -40.957,68.414c-6.161,12.722 -14.745,38.153 -19.409,57.5c-3.75,15.555 -6.774,33.686 -5.783,34.677c0.86,0.859 18.979,-34.169
    37.854,-73.177c14.657,-30.293 23.454,-45.642 41.552,-72.5c20.96,-31.106 40.206,-56.778 51.732,-69.004c4.961,-5.262 11.712,-12.701
    15.004,-16.531c3.292,-3.831 8.286,-9.503 11.097,-12.606c2.811,-3.103 9.412,-10.978 14.668,-17.5c5.257,-6.522 11.327,-13.565
    13.489,-15.651l3.931,-3.792l-1.478,8.292c-1.802,10.109 -1.983,43.079 -0.293,53.292c0.638,3.85 1.629,11.05 2.203,16c0.575,4.95
    3.029,20.7 5.454,35c2.425,14.3 5.069,30.5 5.876,36c2.781,18.96 11.395,48.116 20.202,68.381c7.812,17.977 11.661,24.868 26.042,46.619
    c20.37,30.81 25.377,39.026 26.93,44.185c2.109,7.008 1.787,20.805 -0.677,28.96c-2.128,7.043 -11.196,24.349 -18.177,34.687c-6.281,9.302
    -8.848,15.831 -9.409,23.928c-0.565,8.155 0.87,14.425 9.67,42.24c2.784,8.8 5.961,21.4 7.061,28c3.404,20.438 6.394,28.731 16.147,44.784
    c6.553,10.787 9.143,17.701 10.248,27.355c1.316,11.512 -2.749,28.784 -9.736,41.361c-4.651,8.372 -21.116,32.282 -29.111,42.274l-7.122,8.901
    l-3.5,-4.336c-14.067,-17.428 -31.948,-30.545 -51.666,-37.901l-7.561,-2.82l13.997,13.691c7.698,7.53 22.16,21.566 32.137,31.191
    c20.085,19.377 23.19,23.523 32.952,44.01c11.239,23.585 14.913,35.484 19.762,63.99c2.386,14.025 4.821,30.675 5.413,37c1.38,14.759
    3.703,24.731 11.648,50c9.632,30.637 14.086,46.875 17.371,63.338c1.629,8.161 4.291,20.103 5.916,26.537c1.624,6.435 3.674,18.658
    4.556,27.163c0.881,8.504 2.012,17.262 2.514,19.462c1.237,5.427 1.197,31.919 -0.069,44.644c-2.539,25.538 -7.702,48.607
    -18.205,81.356c-4.41,13.75 -10.505,33.1 -13.544,43c-3.039,9.9 -6.366,19.208 -7.394,20.684c-4.071,5.846 -4.955,10.717 -5.408,29.816
    c-0.275,11.575 -1.011,20.933 -1.967,25c-0.84,3.575 -1.98,10.775 -2.532,16c-0.553,5.225 -1.897,15.35 -2.986,22.5c-2.386,15.656
    -3.881,45.444 -3.915,78c-0.039,36.425 -2.418,56.05 -9.115,75.189c-4.1,11.715 -7.931,17.541 -13.986,21.266c-4.317,2.657 -4.918,3.438
    -4.918,6.391c-0,5.827 9.466,38.226 18.306,62.654c11.562,31.951 14.877,42.989 20.244,67.41c2.528,11.501 6.163,26.303 8.079,32.895
    c1.915,6.591 3.12,12.315 2.676,12.719c-1.681,1.534 -108.599,24.861 -146.305,31.92c-9.075,1.699 -17.222,3.248 -18.103,3.441
    c-1.205,0.264 -2.666,-2.283 -5.89,-10.267c-4.878,-12.084 -11.171,-24.695 -16.951,-33.967c-2.176,-3.492 -4.431,-8.667 -5.011,-11.5
    c-0.579,-2.833 -2.85,-14.265 -5.045,-25.404c-4.411,-22.385 -7.794,-33.759 -18.218,-61.247c-8.494,-22.398 -14.468,-35.202 -27.293,-58.494
    c-11.9,-21.611 -12.362,-23.729 -6.782,-31.06c9.431,-12.389 17.764,-35.811 19.289,-54.215c1.535,-18.526 1.199,-37.32 -0.907,-50.744
    c-1.037,-6.608 -2.419,-18.083 -3.071,-25.5c-0.652,-7.418 -2.725,-20.912 -4.606,-29.987c-1.881,-9.075 -4.531,-22.35 -5.89,-29.5
    c-1.359,-7.15 -4.066,-19.525 -6.017,-27.5c-1.95,-7.975 -3.768,-18.325 -4.04,-23l-0.493,-8.5l7.017,14c3.86,7.7 7.354,13.993 7.764,13.985
    c0.411,-0.01 3.897,-2.086 7.747,-4.616c3.85,-2.53 18.7,-11.025 33,-18.878c36.092,-19.82 37.607,-20.939 49.778,-36.761c8.611,-11.193
    14.153,-28.055 15.638,-47.577c1.201,-15.801 5.146,-35.149 10.22,-50.122c4.92,-14.519 7.936,-20.627 16.373,-33.157c12.265,-18.217
    22.448,-42.396 30.494,-72.414c4.736,-17.663 6.631,-31.574 7.577,-55.604c0.648,-16.437 0.584,-17.229 -2.543,-31.856c-4.752,-22.222
    -11.412,-37.644 -20.112,-46.577c-5.121,-5.257 -17.764,-13.842 -27.808,-18.883c-8.954,-4.493 -16.733,-5.797 -39.117,-6.559
    c-22.555,-0.768 -27.697,-0.16 -46.5,5.499c-7.15,2.152 -16.84,5.047 -21.532,6.432c-10.218,3.017 -28.347,11.749 -39.431,18.991
    c-17.93,11.716 -37.644,29.113 -58.037,51.218c-9.267,10.045 -12.093,13.898 -16.505,22.5c-5.919,11.539 -15.727,28.216 -21.985,37.379
    c-4.51,6.604 -4.485,6.834 -0.866,-7.811c1.061,-4.296 2.857,-10.289 3.99,-13.319c1.134,-3.029 1.905,-5.661 1.713,-5.849c-0.191,-0.188
    -4.622,2.676 -9.847,6.365c-21.361,15.079 -49.358,30.634 -64.258,35.702c-8.369,2.846 -25.786,4.807 -34.742,3.911c-3.575,-0.357
    -20.665,-2.416 -37.978,-4.574c-25.205,-3.143 -34.771,-3.924 -48,-3.92c-19.147,0.01 -43.943,1.387 -62.56,3.487c-20.28,2.287
    -54.802,3.763 -59.351,2.538c-5.601,-1.508 -10.526,-5.8 -25.16,-21.929c-14.629,-16.121 -22.244,-25.302 -29.515,-35.58l-4.936,-6.98
    l-0.666,5.98c-1.208,10.84 -8.467,37.394 -10.916,39.929c-1.66,1.718 -0.986,-24.439 1.172,-45.526c1.162,-11.35 1.855,-23.312 1.56,-26.924
    c-1.313,-16.094 -14.549,-46.77 -29.849,-69.183c-13.712,-20.085 -38.813,-38.545 -63.605,-46.779c-14.553,-4.833 -33.403,-8.258
    -43.331,-7.873c-8.298,0.322 -9.119,0.577 -21,6.52c-14.561,7.282 -29.823,19.275 -34.778,27.328c-4.724,7.677 -12.838,33.115 -14.581,45.714
    c-0.82,5.925 -1.589,19.548 -1.709,30.273l-0.218,19.5l6.665,25.654c3.666,14.11 7.911,29.86 9.434,35c2.472,8.343 2.768,10.903 2.759,23.846
    c-0.01,7.975 -0.395,20.367 -0.865,27.536c-0.818,12.467 -0.735,13.494 1.904,23.5c4.415,16.739 4.475,17.386 2.507,26.842c-4.997,24.006
    -4.882,29.06 1.192,52.323l3.055,11.7l4.357,-5.349c4.54,-5.573 13.525,-13.772 14.273,-13.025c1.03,1.03 -9.578,20.734 -15.884,29.506
    c-9.255,12.874 -13.389,21.963 -16.587,36.467c-2.336,10.595 -2.752,15.396 -3.546,41c-0.495,15.95 -1,31.511 -1.122,34.58c-0.187,4.704
    0.198,6.128 2.451,9.081c1.963,2.573 3.001,5.643 3.907,11.566c1.207,7.88 1.178,8.161 -1.281,12.418c-5.745,9.946 -15.891,35.757
    -17.882,45.49c-4.28,20.923 -3.541,55.863 1.74,82.228c3.522,17.585 4.03,15.374 -14.581,63.483c-8.928,23.078 -13.454,44.898 -13.514,65.154
    c-0.039,13.143 0.296,16.341 2.697,25.829c7.116,28.111 19.737,48.868 34.992,57.547c3.162,1.799 5.75,3.86 5.75,4.58c-0,1.358 -13.402,23.601
    -23.312,38.69c-5.714,8.699 -10.315,17.947 -12.617,25.354c-0.683,2.2 -3.447,8.5 -6.141,14c-2.694,5.5 -6.735,16.3 -8.982,24c-2.246,7.7
    -4.264,14.563 -4.484,15.25c-0.501,1.56 -6.332,1.471 -24.964,-0.38l0,-0Zm-24.116,-1222.07c0.889,-3.959 1.614,-9.584 1.612,-12.5
    c-0.018,-23.16 -23.629,-111.9 -39.459,-148.303c-7.121,-16.375 -27.8,-54.459 -36.38,-67c-24.658,-36.042 -28.908,-41.258 -49.109,-60.274
    c-26.86,-25.284 -48.322,-37.983 -107.548,-63.631c-26.605,-11.522 -75.927,-40.93 -97.5,-58.134c-18.709,-14.92 -42.82,-30.379
    -53.776,-34.478c-12.023,-4.499 -23.849,-1.457 -28.421,7.31c-4.044,7.755 -2.464,18.224 5.162,34.207l2.863,6l0.086,-15.615c0.078,-14.209
    0.273,-15.852 2.159,-18.25c6.06,-7.705 23.345,0.428 60.542,28.486c32.698,24.664 73.206,49.041 103.385,62.216c40.428,17.649 60.703,27.981
    78.256,39.878c12.776,8.659 32.276,26.182 44.026,39.562c7.995,9.105 32.977,44.85 39.112,55.963c11.031,19.983 20.713,38.594
    24.568,47.221c9.282,20.777 23.508,67.184 32.156,104.903c2.729,11.9 6.691,27.036 8.806,33.636c2.114,6.6 4.41,15.768 5.101,20.373
    c1.398,9.307 1.962,9.104 4.359,-1.57Zm824.525,619.706c-0.876,-0.512 -3.277,-4.996 -5.336,-9.964c-4.514,-10.891 -8.622,-15.296
    -25.843,-27.709c-11.824,-8.523 -21.172,-18.395 -27.233,-28.76c-3.718,-6.357 -11.059,-25.355 -12.864,-33.291c-3.042,-13.375
    -1.376,-28.546 4.094,-37.285c3.734,-5.964 18.121,-25.092 23.814,-31.659c3.413,-3.937 10.044,-12.937 14.736,-20c4.693,-7.062
    10.837,-15.401 13.654,-18.531c9.041,-10.043 21.446,-13.877 33.531,-10.364c15.779,4.587 21.524,13.166 23.138,34.554c0.828,10.969
    -1.388,18.731 -10.103,35.391c-6.942,13.269 -9.497,20.637 -9.497,27.381c0,5.246 4.82,19.78 10.026,30.228c4.48,8.993 6.188,16.571
    6.181,27.42c0,6.748 -0.613,9.805 -3.695,18.545c-2.03,5.755 -4.596,12.28 -5.703,14.5c-3.301,6.616 -18.62,26.255 -22.211,28.475
    c-3.717,2.297 -4.402,2.407 -6.689,1.069Zm11.717,-22.308c7.268,-9.73 9.036,-13.131 13.358,-25.701c3.034,-8.823 3.228,-10.158
    2.722,-18.745c-0.496,-8.413 -0.993,-10.211 -5.528,-20c-2.741,-5.915 -6.214,-14.72 -7.718,-19.566c-2.353,-7.584 -2.66,-9.953
    -2.201,-17c0.632,-9.715 2.716,-15.632 10.699,-30.368c7.818,-14.43 10.513,-24.61 9.01,-34.022c-1.907,-11.939 -7.391,-18.124
    -18.107,-20.422c-5.709,-1.224 -10.847,-0.219 -16.492,3.228c-3.622,2.211 -12.91,14 -19.716,25.026c-2.591,4.196 -7.509,10.946
    -10.928,15c-3.42,4.053 -10.622,13.219 -16.004,20.369c-10.605,14.088 -13.721,21.057 -13.721,30.689c0,12.219 9.467,37.574
    18.344,49.129c6.912,8.998 11.18,13.05 20.656,19.611c12.755,8.832 21.335,17.208 25.114,24.516c1.862,3.601 3.611,6.527 3.886,6.502
    c0.275,-0.025 3.257,-3.736 6.626,-8.246Zm-679.87,-53.222c-3.643,-2.04 -6.485,-7.855 -7.907,-16.178c-1.004,-5.878 -0.803,-10.058
    1.484,-30.801c5.871,-53.264 8.165,-67.514 18.752,-116.5c6.761,-31.284 8.611,-37.533 13.169,-44.489c4.243,-6.474 9.526,-9.471
    16.746,-9.499c8.448,-0.033 14.336,2.601 22.326,9.988c9.055,8.373 13.586,15.482 17.617,27.638c1.788,5.392 4.519,12.316 6.069,15.385
    c11.084,21.958 9.836,50.392 -3.54,80.636c-2.994,6.771 -14.263,22.613 -23.36,32.841c-3.914,4.4 -11.952,13.622 -17.864,20.492
    c-16.033,18.634 -22.771,25.431 -28.077,28.319c-6.218,3.384 -11.834,4.174 -15.415,2.168Zm11.739,-11.923c2.293,-1.344 7.349,-6.181
    11.234,-10.75c10.045,-11.811 16.234,-18.925 28.771,-33.07c14.777,-16.672 22.272,-27.969 26.757,-40.329c5.433,-14.972 5.828,-16.87
    6.435,-30.907c0.701,-16.206 -0.43,-21.149 -8.926,-39c-6.486,-13.627 -16.6,-31.352 -20.169,-35.347c-4.871,-5.452 -13.88,-7.744
    -18.292,-4.653c-5.757,4.031 -7.432,9.164 -16.181,49.571c-9.325,43.067 -11.594,57.044 -17.195,105.929c-2.474,21.588 -2.76,32.034
    -1.023,37.25c1.477,4.435 2.885,4.649 8.589,1.306Z"
          style="fill:rgb(68,253,0);fill-rule:nonzero;"/>
    <path id="Hundblau" d="M1113,2339.67c-200.665,-5.373 -399.914,-29.326 -593.5,-71.349c-60.674,-13.171 -164.666,-39.334 -200.5,-50.443
    c-9.625,-2.984 -25.825,-7.954 -36,-11.044c-52.022,-15.802 -107.188,-34.224 -159.5,-53.263c-22.605,-8.228 -79.867,-29.946 -87,-32.998
    c-5.495,-2.351 -36.5,-22.96 -36.5,-24.261c0,-0.579 2.817,-4.072 6.26,-7.762c19.076,-20.448 34.442,-39.237 61.916,-75.711c7.457,-9.9
    19.733,-25.2 27.279,-34c151.004,-176.099 262.049,-390.592 318.909,-616c9.524,-37.755 10.483,-47.681 6.159,-63.75l-0.74,-2.75
    l6.859,-0.017c12.257,-0.031 38.251,-7.091 50.358,-13.677c21.044,-11.449 46.727,-37.812 66.874,-68.643c13.174,-20.16 38.403,-70.831
    54.612,-109.687c7.507,-17.994 16.422,-36.911 33.674,-71.456c10.432,-20.889 19.092,-38.104 19.243,-38.256c0.689,-0.688 43.901,29.265
    50.508,35.01c9.913,8.621 19.724,19.983 28.258,32.727c6.779,10.123 9.803,15.994 35.281,68.5c11.089,22.852 26.585,51.707 30.073,56
    c1.591,1.957 1.613,1.946 1.059,-0.5c-0.311,-1.375 -0.853,-13.075 -1.203,-26c-1.082,-39.935 1.267,-57.048 11.137,-81.148c7.592,-18.535
    7.683,-18.572 7.014,-2.852c-0.316,7.425 -1.483,19.8 -2.595,27.5c-5.863,40.631 -2.246,100.957 7.177,119.698c3.308,6.581 15.332,41.276
    17.408,50.237c3.316,14.305 2.592,48.332 -1.512,71.065c-1.093,6.05 -2.668,19.325 -3.501,29.5c-1.807,22.075 -2.531,26.907 -7.642,51
    c-4.951,23.343 -5.513,25.276 -14.377,49.5c-5.206,14.226 -8.981,22.742 -13.077,29.5c-11.913,19.655 -22.396,42.764 -29.711,65.5
    c-5.166,16.052 -7.367,25.315 -10.718,45.104c-1.697,10.026 -4.462,22.049 -6.387,27.785c-4.758,14.171 -13.816,33.616 -23.506,50.465
    c-10.856,18.875 -29.541,56.787 -39.994,81.146c-7.596,17.701 -22.149,59.723 -28.571,82.5c-1.395,4.95 -4.065,14.175 -5.932,20.5
    c-1.866,6.325 -5.022,19.15 -7.013,28.5c-1.991,9.35 -3.842,17.712 -4.113,18.582c-0.416,1.332 2.481,2.098 18.27,4.828c86.695,14.991
    189.53,27.773 282.264,35.085c206.698,16.297 426.307,9.344 649.5,-20.566c43.226,-5.792 143.787,-21.939 149.458,-23.997c0.802,-0.291
    10.702,-2.293 22,-4.449c42.272,-8.066 144.668,-30.428 146.348,-31.96c0.443,-0.404 -0.762,-6.128 -2.677,-12.719c-1.916,-6.591
    -5.551,-21.394 -8.078,-32.894c-5.367,-24.422 -8.682,-35.46 -20.245,-67.41c-8.84,-24.428 -18.306,-56.827 -18.306,-62.655c-0,-2.952
    0.601,-3.734 4.919,-6.39c6.054,-3.726 9.886,-9.552 13.985,-21.267c6.697,-19.138 9.076,-38.763 9.115,-75.188c0.035,-32.557 1.53,-62.345
    3.915,-78c1.09,-7.15 2.433,-17.275 2.986,-22.5c0.553,-5.225 1.692,-12.425 2.532,-16c0.956,-4.067 1.692,-13.425 1.967,-25c0.453,-19.099
    1.337,-23.971 5.408,-29.816c1.028,-1.477 4.356,-10.784 7.394,-20.684c3.039,-9.9 9.134,-29.25 13.544,-43c10.504,-32.749 15.666,-55.819
    18.205,-81.356c1.266,-12.726 1.306,-39.218 0.069,-44.644c-0.501,-2.2 -1.633,-10.958 -2.514,-19.463c-0.881,-8.504 -2.932,-20.727
    -4.556,-27.162c-1.625,-6.435 -4.287,-18.377 -5.915,-26.538c-3.286,-16.462 -7.74,-32.701 -17.372,-63.337c-7.944,-25.269 -10.267,-35.241
    -11.648,-50c-0.591,-6.325 -3.027,-22.975 -5.413,-37c-4.849,-28.507 -8.523,-40.405 -19.762,-63.991c-9.762,-20.487 -12.866,-24.633
    -32.952,-44.009c-9.977,-9.625 -24.439,-23.661 -32.137,-31.192l-13.996,-13.691l7.561,2.821c19.717,7.356 37.598,20.473 51.665,37.9
    l3.5,4.336l7.122,-8.9c7.995,-9.992 24.461,-33.903 29.111,-42.274c6.987,-12.577 11.052,-29.849 9.736,-41.362c-1.104,-9.654
    -3.694,-16.568 -10.248,-27.355c-9.752,-16.053 -12.743,-24.346 -16.147,-44.783c-1.099,-6.6 -4.277,-19.2 -7.061,-28c-8.8,-27.816
    -10.235,-34.085 -9.67,-42.24c0.561,-8.097 3.128,-14.626 9.409,-23.929c6.981,-10.338 16.049,-27.643 18.177,-34.687c2.464,-8.154
    2.786,-21.951 0.677,-28.96c-1.553,-5.159 -6.56,-13.375 -26.93,-44.184c-14.381,-21.752 -18.23,-28.642 -26.042,-46.62c-8.807,-20.265
    -17.42,-49.42 -20.202,-68.38c-0.807,-5.5 -3.451,-21.7 -5.876,-36c-2.425,-14.3 -4.879,-30.05 -5.453,-35c-0.575,-4.95 -1.566,-12.15
    -2.203,-16c-1.691,-10.214 -1.51,-43.183 0.293,-53.292l1.478,-8.292l-3.932,3.792c-2.162,2.085 -8.232,9.128 -13.488,15.65c-5.257,6.523
    -11.858,14.398 -14.669,17.5c-2.811,3.103 -7.805,8.776 -11.096,12.606c-3.292,3.831 -10.044,11.27 -15.004,16.531c-11.526,12.226
    -30.772,37.898 -51.733,69.005c-18.097,26.857 -26.894,42.206 -41.552,72.5c-18.875,39.008 -36.994,74.036 -37.854,73.176c-0.99,-0.99
    2.033,-19.121 5.783,-34.676c4.664,-19.348 13.248,-44.779 19.41,-57.5c8.705,-17.976 30.494,-54.371 40.957,-68.414c3.928,-5.273
    12.322,-15.886 18.653,-23.586c6.331,-7.7 13.895,-17.375 16.808,-21.5c2.913,-4.125 9.411,-11.775 14.441,-17c12.857,-13.356 34.631,-37.48
    45.718,-50.654c5.163,-6.135 15.418,-17.61 22.788,-25.5c7.371,-7.891 16.087,-18.396 19.369,-23.346c3.282,-4.95 9.215,-13.5
    13.185,-19c8.989,-12.452 13.389,-19.786 19.011,-31.683c8.625,-18.256 11.362,-29.847 7.871,-33.338c-4.594,-4.594 -13.922,3.161
    -18.805,15.633c-5.06,12.924 -36.995,57.954 -52.943,74.653c-11.902,12.462 -45.453,40.113 -70.143,57.808c-57.93,41.517 -97.094,78.51
    -126.42,119.413c-4.529,6.317 -10.475,16.217 -13.211,22c-2.737,5.782 -7.161,15.014 -9.83,20.514c-2.669,5.5 -5.998,13.825 -7.396,18.5
    c-1.399,4.675 -5.021,16.104 -8.049,25.397c-7.339,22.525 -23.047,85.085 -25.552,101.765c-1.102,7.336 -2.45,15.783 -2.995,18.771
    c-1.339,7.331 -1.257,8.751 0.544,9.442c0.845,0.325 7.933,1.514 15.75,2.643c24.942,3.604 45.184,10.181 67.697,21.995c7.295,3.829
    10.589,6.557 23.507,19.47c12.629,12.624 26.132,28.768 22.919,27.403c-0.5,-0.212 -6.403,-3.655 -13.117,-7.649c-12.646,-7.524
    -22.891,-14.822 -29.793,-21.223c-11.193,-10.38 -35.621,-19.802 -71,-27.384c-22.566,-4.836 -24.57,-4.75 -51.5,2.206c-25.17,6.502
    -40.248,9.454 -57,11.16c-5.775,0.589 -19.275,2.829 -30,4.979c-10.725,2.15 -24.45,4.858 -30.5,6.018c-6.05,1.159 -18.875,4.354
    -28.5,7.099c-27.893,7.954 -30.527,8.191 -80.5,7.232c-23.65,-0.453 -45.925,-0.696 -49.5,-0.538c-3.575,0.157 -12.35,1.661 -19.5,3.341
    c-18.249,4.289 -28.301,4.735 -42.066,1.866c-24.471,-5.099 -53.771,-1.378 -71.62,9.096c-7.26,4.261 -9.551,6.713 -22.04,23.596
    c-7.094,9.591 -25.947,30.315 -27.577,30.315c-0.297,-0 -1.362,0.744 -2.368,1.655c-6.684,6.049 8.17,-23.954 19.405,-39.195
    c2.449,-3.322 7.205,-8.272 10.568,-11c6.816,-5.528 6.772,-5.317 3.425,-16.448c-2.407,-8.006 -7.736,-12.926 -18.316,-16.911
    c-16.102,-6.066 -21.148,-8.438 -26.762,-12.582c-10.247,-7.564 -42.677,-43.986 -60.92,-68.419c-12.86,-17.223 -30.647,-38.265
    -51.07,-60.414c-13.932,-15.11 -65.036,-64.649 -73.812,-71.553c-2.666,-2.096 -15.974,-11.422 -29.574,-20.723c-13.6,-9.301
    -29.8,-20.393 -36,-24.65c-9.227,-6.335 -37.844,-21.994 -43.773,-23.953c-1.846,-0.61 -0.96,-2.57 13.239,-29.307c27.15,-51.126
    40.566,-74.069 51.072,-87.34c3.336,-4.213 13.761,-15.535 23.169,-25.16c14.902,-15.247 24.863,-27.517 27.128,-33.419c0.875,-2.282
    -13.075,4.655 -23.6,11.735c-8.37,5.63 -26.224,23.1 -35.715,34.948c-11.865,14.81 -25.81,37.665 -43.77,71.736c-5.363,10.175
    -12.149,22.775 -15.078,28c-2.93,5.225 -6.537,12.312 -8.016,15.75c-1.48,3.437 -3.043,6.25 -3.474,6.25c-0.431,-0 -4.93,-1.583
    -9.999,-3.517c-5.068,-1.934 -15.467,-5.306 -23.107,-7.492c-18.971,-5.428 -31.419,-10.165 -43.836,-16.681c-23.28,-12.216
    -26.027,-14.248 -70.428,-52.118c-14.528,-12.391 -25.268,-19.732 -38.38,-26.235c-20.277,-10.057 -39.092,-14.533 -57.537,-13.687
    c-9.401,0.431 -11.577,0.878 -16.471,3.381c-6.515,3.332 -12.026,9.892 -15.415,18.349c-1.846,4.607 -2.192,7.366 -2.133,17c0.063,10.318
    0.958,15.898 8.715,54.323c4.754,23.553 9.107,47.178 9.674,52.5c0.566,5.322 1.931,14.177 3.033,19.677c1.102,5.5 2.455,16.075
    3.008,23.5c0.553,7.425 1.481,18.675 2.063,25c1.881,20.44 2.835,35.836 4.37,70.5c0.828,18.7 1.741,36.7 2.03,40c0.288,3.3
    1.424,16.35 2.524,29c2.321,26.698 2.291,26.512 5.939,37c9.815,28.22 19.566,42.853 35.235,52.876c5.743,3.674 20.545,10.709
    53.145,25.259c23.221,10.365 44.207,21.075 51.615,26.342c3.025,2.15 7.978,5.236 11.007,6.858c8.736,4.676 17.577,11.819 21.614,17.461
    c2.048,2.862 4.737,6.329 5.975,7.704c2.154,2.392 6.76,12.977 5.984,13.753c-0.204,0.205 -2.635,-1.569 -5.4,-3.941c-2.766,-2.372
    -6.923,-5.662 -9.238,-7.312c-2.316,-1.65 -7.862,-5.615 -12.326,-8.81c-4.464,-3.196 -10.493,-7.432 -13.399,-9.414l-5.284,-3.604
    l-3.539,3.414c-5.511,5.315 -13.043,18.596 -15.296,26.969c-3.104,11.535 -7.016,32.988 -7.687,42.156c-0.494,6.758 0.049,12.352
    2.944,30.289c7.816,48.431 16.378,68.365 37.585,87.504c4.569,4.123 10.276,9.296 12.683,11.496l4.376,4l-18.903,37.5c-10.398,20.625
    -22.369,45.375 -26.605,55c-4.235,9.625 -12.24,27.85 -17.788,40.5c-22.046,50.261 -43.609,89.211 -62.033,112.053c-9.296,11.524
    -28.244,29.383 -37.9,35.721c-8.982,5.896 -12.367,7.404 -26.77,11.924c-11.562,3.63 -27.083,4.706 -40.462,2.807c-8.165,-1.159
    -9.071,-1.535 -14.427,-5.993c-20.249,-16.851 -33.686,-42.615 -40.491,-77.632c-4.345,-22.362 -5.51,-36.487 -8.653,-104.88
    c-2.201,-47.895 -7.205,-76.852 -20.134,-116.5c-17.593,-53.954 -41.719,-100.788 -104.829,-203.5c-39.199,-63.799 -54.032,-90.134
    -69.277,-123c-35.018,-75.494 -50.784,-143.408 -47.601,-205.044c5.126,-99.259 61.235,-174.848 167.416,-225.543c38.671,-18.463
    81.268,-32.35 149.958,-48.884c93.497,-22.507 116.434,-28.558 146.5,-38.65c34.584,-11.608 52.883,-19.686 107.5,-47.457c50.161,
    -25.505 74.92,-36.045 100.6,-42.826c22.031,-5.817 28.197,-6.545 55.4,-6.544c27.722,0.001 36.026,1.161 54.189,7.569c19,6.703
    31.263,14.374 47.637,29.799c12.698,11.962 19.129,16.548 31.018,22.119c17.867,8.373 37.466,11.536 66.054,10.659c27.293,-0.838
    43.225,-3.418 97.102,-15.728c59.655,-13.63 96.765,-19.404 150.5,-23.415c67.521,-5.04 128.324,-4.937 270.5,0.461c128.082,4.862
    193.081,4.718 258.5,-0.574c76.372,-6.179 136.11,-18.28 200.258,-40.567c60.628,-21.064 74.013,-24.281 100.742,-24.213c22.215,0.057
    38.902,4.093 64.834,15.683c14.227,6.358 505.665,263.571 527.166,275.913c49.66,28.503 78.416,57.518 91.628,92.451c9.972,26.37
    10.919,59.394 2.759,96.291c-3.65,16.505 -7.969,31.463 -18.909,65.5c-16.48,51.269 -21.438,70.232 -24.913,95.284c-1.761,12.703
    -2.047,39.009 -0.539,49.716c1.876,13.326 7.218,32.115 16.567,58.268c15.147,42.372 18.013,55.68 17.131,79.544c-0.618,16.729
    -2.203,23.625 -8.406,36.575c-12.59,26.285 -40.629,39.441 -74.934,35.16c-22.42,-2.798 -43.178,-9.92 -72.884,-25.008c-65.516,-33.276
    -120.029,-79.339 -164.243,-138.783c-4.6,-6.184 -14.427,-20.691 -21.839,-32.238c-11.665,-18.174 -13.814,-22.172 -15.994,-29.756
    c-1.384,-4.82 -4.565,-13.262 -7.068,-18.762c-16.705,-36.714 -36.489,-92.263 -48.908,-137.325c-9.771,-35.457 -11.951,-42.377
    -20.211,-64.175c-4.689,-12.375 -11.663,-29.475 -15.497,-38c-3.834,-8.525 -8.689,-19.392 -10.789,-24.148c-6.594,-14.934 -9.9,-20.897
    -20.706,-37.352c-12.267,-18.681 -17.84,-25.76 -35.947,-45.653c-28.919,-31.771 -59.919,-55.924 -135.888,-105.875c-20.3,-13.348
    -39.61,-25.75 -42.91,-27.561c-6.431,-3.529 -19.605,-8.836 -24.726,-9.961l-3.129,-0.687l3.426,4.368c10.155,12.946 30.224,27.884
    80.429,59.863c14.168,9.024 52.773,36.376 65.215,46.203c19.095,15.084 37.516,32.64 55.404,52.803c11.092,12.502 15.956,18.938
    26.098,34.534c11.302,17.38 12.227,19.137 25.25,47.966c13.849,30.658 27.146,65.401 32.594,85.167c15.141,54.928 32.215,107.345
    44.317,136.053c1.442,3.42 2.622,6.492 2.622,6.826c0,0.334 -4.262,-3.622 -9.473,-8.79c-19.392,-19.235 -37.372,-29.272 -56.855,-31.737
    c-24.019,-3.038 -49.179,8.933 -63.246,30.092c-8.078,12.151 -14.791,30.836 -17.386,48.389c-0.569,3.85 -1.305,8.575 -1.636,10.5
    c-0.502,2.924 -2.132,-1.847 -9.909,-29c-14.328,-50.025 -21.386,-69.288 -45.981,-125.5c-16.067,-36.723 -19.689,-43.758 -45.306,-88
    c-9.499,-16.406 -18.749,-30.237 -28.76,-43.004c-4.312,-5.498 -12.856,-16.637 -18.987,-24.753c-13.938,-18.449 -26.385,-32.682
    -36.858,-42.144c-11.33,-10.237 -35.83,-29.354 -44.684,-34.866c-7.699,-4.793 -21.75,-11.236 -22.616,-10.37c-0.272,0.273 0.859,2.44
    2.514,4.816c7.936,11.396 15.128,18.525 33.437,33.147c23.097,18.445 37.812,33.381 54.481,55.294c6.644,8.734 15.784,20.605 20.313,26.38
    c14.256,18.18 26.194,37.533 53.978,87.5c6.044,10.869 31.302,68.433 41.466,94.5c14.113,36.195 34.743,108.081 43.479,151.5c4.197,20.857
    5.548,34.97 7.995,83.5c5.76,114.231 1.769,249.43 -10.551,357.5c-15.234,133.627 -45.079,214.732 -103.034,280c-16.539,18.625 -24.886,30.911
    -33.972,50c-8.942,18.785 -14.862,38.806 -18.978,64.177c-2.541,15.662 -3.059,57.007 -0.969,77.303c3.48,33.784 10.173,64.053 22.006,99.52
    c11.087,33.233 19.982,53.889 54.044,125.5c32.524,68.378 45.008,97.669 56.469,132.5c5.596,17.005 6.867,22.516 12.104,52.5c3.219,18.425
    8.188,46.666 11.042,62.758c2.855,16.092 4.958,29.49 4.674,29.775c-1.608,1.608 -78.745,27.623 -123.226,41.559c-116.003,36.345
    -245.063,68.128 -364.575,89.783c-37.202,6.741 -53.18,9.384 -91,15.057c-134.064,20.107 -250.23,30.649 -386.5,35.074c-25.982,0.844
    -137.912,1.063 -165.5,0.324l0,-0Zm151.128,-58.424c7.019,-3.527 17.57,-18.206 27.604,-38.406c4.447,-8.952 6.268,-11.31 6.268,-8.115
    c0,2.747 5.295,17.253 8.654,23.709c1.887,3.627 4.99,8.106 6.896,9.953c3.057,2.964 4.222,3.407 9.915,3.769c5.6,0.357 7.312,0.01
    12.977,-2.643c13.235,-6.193 20.558,-14.65 20.558,-23.74c0,-10.207 -7.669,-28.434 -11.964,-28.434c-0.965,0 -3.506,2.337 -5.645,5.194
    c-4.791,6.395 -15.496,12.558 -23.452,13.5l-5.233,0.62l0.701,-10.907c1.136,-17.7 3.563,-39.392 5.246,-46.907c2.619,-11.691 2.712,-18.058
    0.447,-30.692c-2.697,-15.045 -6.236,-26.16 -10.266,-32.244c-4.425,-6.681 -9.305,-8.732 -21.219,-8.92c-8.123,-0.128 -9.736,0.161
    -14.818,2.657c-7.92,3.889 -17.388,14.339 -23.083,25.477c-8.717,17.049 -12.13,27.981 -18.32,58.685c-3.506,17.39 -3.617,18.593
    -3.094,33.537c0.612,17.513 2.731,27.72 8.257,39.773c5.146,11.226 8.704,14.996 15.38,16.297c4.593,0.895 9.633,0.127 14.191,-2.163Z
    m-22.592,-39.657c1.081,-9.143 8.19,-43.137 10.464,-50.037c2.742,-8.318 9.269,-23.072 12.576,-28.425c4.171,-6.751 12.463,-14.797
    17.924,-17.392c3.822,-1.816 6.703,-2.379 12.225,-2.386l7.225,-0.01l-0.565,3.25c-1.724,9.912 -15.651,46.555 -24.039,63.25c-13.546,26.96
    -22.787,37.5 -32.878,37.5l-3.612,0l0.68,-5.75Zm-56.572,38.47c7.951,-3.23 8.832,-5.283 6.764,-15.78c-1.832,-9.296 -6.796,-20.37
    -9.868,-22.015c-1.526,-0.816 -3.002,-0.685 -6.063,0.54c-2.226,0.89 -4.155,1.488 -4.288,1.327c-0.133,-0.16 0.149,-6.142 0.626,-13.292
    c1.379,-20.665 4.794,-47.168 7.43,-57.664c3.772,-15.021 5.292,-22.893 6.873,-35.596c3.986,-32.009 6.793,-51.746 8.762,-61.6c1.94,-9.713
    2.04,-11.615 0.946,-18c-1.464,-8.547 -6.52,-20.002 -10.056,-22.783l-2.55,-2.007l-1.664,2.055c-0.98,1.21 -2.138,5.66 -2.818,10.825
    c-0.635,4.824 -2.688,14.62 -4.561,21.77c-1.873,7.15 -4.56,19.525 -5.972,27.5c-5.317,30.037 -5.805,32.521 -6.556,33.351c-0.424,0.468
    -1.069,-0.091 -1.435,-1.242c-1.475,-4.649 -8.33,-11.722 -14.634,-15.1c-5.775,-3.094 -7.357,-3.469 -16.196,-3.837c-12.781,-0.532
    -16.899,0.987 -25.212,9.3c-7.93,7.929 -13.586,16.308 -19.532,28.934c-14.157,30.063 -18.121,43.082 -18.142,59.594c-0.032,25.023
    7.846,50.556 18.986,61.539c7.422,7.317 24.516,13.104 32.666,11.058c6.753,-1.695 16.462,-13.869 27.834,-34.899l7.396,-13.678
    l0.625,9.24c1.072,15.846 6.547,31.331 13.77,38.949c4.341,4.577 8.419,4.943 16.869,1.511Zm-91.964,-39.322c-10.14,-3.886 -10.519,-4.336
    -10.384,-12.321c0.139,-8.224 2.752,-17.228 9.548,-32.911c8.185,-18.888 14.529,-30.493 20.655,-37.788c6.358,-7.569 10.621,-10.85
    16.063,-12.362c5.409,-1.502 15.561,-1.223 19.993,0.551c3.259,1.304 4.084,2.228 4.917,5.51c0.881,3.473 0.526,5.335 -2.975,15.591
    c-9.851,28.861 -25.021,58.645 -35.716,70.127c-3.47,3.724 -8.697,6.232 -12.819,6.15c-1.53,-0.03 -5.707,-1.177 -9.282,-2.547Z
    m-80.446,33.477c2.72,-1.719 8.718,-6.065 13.328,-9.657l8.382,-6.533l-0.535,-7.592c-0.565,-8.014 -3.33,-16.744 -7.016,-22.156
    c-4.014,-5.894 -4.449,-5.836 -14.627,1.944c-5.122,3.916 -9.686,7.119 -10.143,7.119c-0.951,0 2.404,-8.282 10.332,-25.5c9.664,-20.99
    16.725,-43.674 16.725,-53.733c0,-6.836 -1.517,-15.446 -4.189,-23.767c-5.561,-17.324 -12.307,-23.968 -26.94,-26.539c-5.265,-0.925
    -15.004,1.889 -24.722,7.143c-4.597,2.486 -8.439,4.38 -8.536,4.208c-0.098,-0.171 -1.046,-2.962 -2.106,-6.202c-2.329,-7.119 -6.82,-13.61
    -9.416,-13.61c-2.102,0 -1.359,-2.123 -12.946,37c-4.011,13.542 -8.858,27.526 -11.439,33c-5.014,10.636 -9.161,22.498 -14.335,41c-1.923,6.875
    -4.861,16.775 -6.529,22c-2.574,8.065 -2.937,10.451 -2.405,15.794c1.166,11.689 8.349,26.779 12.379,26.003c2.638,-0.508 5.718,-7.164
    11.22,-24.245c2.844,-8.828 7.325,-22.127 9.957,-29.552c2.633,-7.425 5.787,-17.084 7.009,-21.464c4.529,-16.231 15.957,-32.799
    28.699,-41.609c11.508,-7.957 21.605,-12.321 29.549,-12.77c3.713,-0.21 6.75,-0.15 6.75,0.134c0,2.244 -8.564,24.243 -14.679,37.709
    c-13.068,28.774 -17.357,45.317 -15.398,59.398c1.831,13.17 7.779,25.631 15.442,32.352c4.943,4.336 9.47,4.371 16.189,0.125Z
    m538.446,-2.104c12.734,-3.819 27.955,-20.368 46.986,-51.089c8.348,-13.476 9.263,-17.258 6.647,-27.469c-2.733,-10.668 -9.418,-21.311
    -12.196,-19.417c-0.568,0.387 -2.317,2.954 -3.887,5.704c-9.567,16.759 -22.314,34.518 -30.921,43.079c-14.787,14.705 -23.022,17.218
    -37.189,11.347c-17.88,-7.41 -26.599,-21.874 -34.501,-57.228c-2.946,-13.185 -2.963,-39.021 -0.036,-55.58c6.573,-37.177 22.649,-66.31
    44.748,-81.09c4.09,-2.736 10.39,-5.887 13.998,-7.001c7.501,-2.317 18.621,-2.638 22.222,-0.642c1.428,0.792 4.211,5.041 7,10.684
    c5.131,10.386 7.384,12.593 9.687,9.49c2.346,-3.159 1.668,-10.129 -2.072,-21.305c-4.18,-12.493 -10.593,-25.207 -14.874,-29.488
    c-4.825,-4.825 -10.661,-6.932 -19.457,-7.023c-14.468,-0.15 -27.602,6.29 -41.155,20.18c-16.918,17.338 -27.676,39.766 -34.572,72.077
    c-2.303,10.787 -2.735,15.594 -3.152,35.075c-0.564,26.292 0.472,35.603 6.674,59.984c12.303,48.36 27.91,75.432 49.55,85.95
    c11.642,5.658 17.434,6.481 26.5,3.762l0,0Zm-753.468,-17.22c1.907,-0.796 5.071,-2.672 7.032,-4.167c4.837,-3.69 16.945,-18.957
    28.436,-35.858l9.5,-13.971l0.643,11.473c0.646,11.522 2.257,17.965 6.631,26.52c4.394,8.595 9.053,11.594 18.013,11.595c6.813,0
    12.805,-2.891 18.265,-8.815c4.209,-4.567 4.214,-4.579 3.638,-10.749c-0.972,-10.401 -8.136,-26.579 -11.77,-26.579c-0.538,0
    -3.209,1.763 -5.935,3.918c-4.391,3.471 -11.56,6.889 -12.441,5.932c-0.554,-0.601 17.458,-64.467 24.07,-85.35c2.843,-8.975
    2.695,-14.382 -0.658,-24.129c-3.819,-11.099 -8.476,-16.844 -11.571,-14.275c-2.394,1.986 -8.431,13.481 -14.541,27.684c-7.518,17.476
    -11.949,25.053 -31.129,53.22c-27.105,39.809 -32.922,46.281 -43.605,48.512l-3.39,0.709l0.71,-7.361c0.39,-4.048 1.545,-11.185
    2.568,-15.86c1.022,-4.675 2.594,-13.885 3.495,-20.467c1.244,-9.098 3.326,-17.13 8.682,-33.5c8.423,-25.744 9.219,-31.479 5.831,-42.014
    c-3.056,-9.505 -7.382,-16.253 -10.152,-15.836c-1.789,0.27 -3.061,3.243 -8.48,19.817c-8.119,24.834 -9.885,31.739 -11.897,46.5
    c-0.899,6.6 -2.56,15.825 -3.69,20.5c-3.042,12.585 -3.045,39.296 -0.01,50.284c4.183,15.119 12.903,30.424 18.664,32.757c3.248,1.316
    9.308,1.089 13.086,-0.49l0.005,0Zm867.225,-8.117c11.39,-5.676 22.479,-22.578 28.254,-43.068c2.448,-8.684 2.864,-9.507 3.478,-6.866
    c7.514,32.335 14.867,44.969 25.06,43.057c4.355,-0.817 11.722,-7.543 21.539,-19.665c11.586,-14.307 12.307,-15.754 11.605,-23.275
    c-0.98,-10.493 -7.783,-25.625 -11.875,-26.413c-1.014,-0.196 -2.865,1.549 -4.967,4.68c-8.302,12.366 -23.174,28.116 -26.548,28.116
    c-1.311,0 -3.16,-12.636 -3.438,-23.5c-0.112,-4.4 0.146,-20.375 0.575,-35.5c0.866,-30.584 0.261,-35.907 -5.363,-47.161c-1.562,-3.127
    -3.408,-8.082 -4.101,-11.012c-1.485,-6.273 -5.024,-14.317 -7.836,-17.808c-1.867,-2.32 -2.706,-2.505 -12.819,-2.829c-10.231,-0.327
    -11.001,-0.211 -14.128,2.131c-14.708,11.016 -30.35,46.193 -36.792,82.745c-4.564,25.889 -0.186,62.5 9.857,82.434c8.042,15.963
    15.67,19.829 27.499,13.934Zm-22.375,-34.594c-0.466,-0.737 -0.806,-7.415 -0.756,-14.84c0.152,-22.57 5.365,-43.815 16.316,-66.5
    c7.287,-15.096 15.018,-26.167 19.614,-28.087c3.728,-1.558 13.444,-1.933 13.444,-0.519c0,3.555 -2.327,23.152 -3.575,30.106
    c-2.298,12.802 -8.081,36.639 -10.9,44.928c-3.309,9.726 -9.79,21.655 -14.348,26.404c-6.682,6.964 -17.761,11.725 -19.795,8.508Z
    m-953.842,26.613c3.278,-0.851 8.21,-2.58 10.96,-3.843c6.305,-2.895 30.719,-19.245 35.894,-24.037l3.893,-3.606l-0.566,-6.733
    c-0.312,-3.704 -1.669,-9.765 -3.015,-13.47c-2.44,-6.715 -6.936,-13.764 -8.778,-13.764c-0.534,0 -3.774,2.194 -7.199,4.876
    c-10.049,7.866 -26.393,18.177 -33.637,21.221c-3.695,1.552 -9.92,3.351 -13.832,3.997c-6.51,1.076 -7.397,1.008 -10.437,-0.792
    c-3.763,-2.228 -3.841,-3.183 -1.164,-14.302c3.673,-15.251 19.987,-51.755 29.493,-65.989c6.932,-10.38 18.376,-17.795 28.946,-18.753
    c8.822,-0.8 10.168,-0.141 12.831,6.285c6.396,15.431 13.937,14.965 11.252,-0.695c-2.17,-12.652 -11.295,-32.107 -17.696,-37.727
    c-12.71,-11.16 -36.943,-1.952 -50.642,19.243c-13.762,21.293 -28.428,58.153 -31.854,80.058c-2.134,13.647 2.044,34.013 10.22,49.819
    c4.254,8.224 13.713,18.224 18.02,19.051c4.974,0.955 11.645,0.632 17.311,-0.839Zm1097.85,-17.729c0.289,-2.873 0.765,-12.649 1.057,-21.724
    c0.669,-20.814 2.906,-41.935 6.145,-58c4.183,-20.751 13.398,-40.963 21.479,-47.108c3.495,-2.658 13.216,-7.892 14.658,-7.892c0.437,0
    0.626,15.756 0.42,35.013c-0.398,37.121 0.047,43.436 4.336,61.541c3.006,12.69 5.898,21.15 10.116,29.592c4.259,8.527 7.54,11.226
    12.793,10.525c4.701,-0.627 11.647,-7.064 23.692,-21.954c7.846,-9.699 7.914,-9.833 7.914,-15.569c0,-6.246 -2.029,-14.268 -5.223,-20.648
    c-2.103,-4.2 -5.59,-8.5 -6.894,-8.5c-0.422,0 -4.131,4.163 -8.241,9.25c-9.708,12.016 -18.128,20.75 -20.005,20.75c-2.978,0 -3.937,-19.956
    -2.609,-54.315c1.504,-38.935 -0.043,-51.725 -8.248,-68.185c-5.243,-10.516 -11.157,-15.208 -17.651,-14.004c-5.726,1.062 -15.116,6.548
    -20.624,12.049c-5.298,5.291 -10.549,14.862 -15.614,28.455c-1.536,4.125 -2.825,7.05 -2.863,6.5c-0.038,-0.55 -0.926,-6.854 -1.973,-14.009
    c-2.793,-19.093 -7.82,-30.991 -13.095,-30.991c-2.206,0 -2.489,0.464 -2.747,4.5c-0.157,2.475 1.334,16.65 3.315,31.5c5.075,38.054
    6.278,66.096 3.99,93c-1.579,18.571 -1.583,20.501 -0.067,27c2.048,8.773 5.615,16.657 9.126,20.168l2.704,2.704l1.791,-2.212c0.985,-1.216
    2.028,-4.562 2.318,-7.436Zm-1193.58,-8.101c5.153,-3.253 22.491,-17.913 25.084,-21.21c2.564,-3.26 2.721,-8.256 0.526,-16.768c-1.916,-7.43
    -6.691,-16.711 -9.501,-18.466c-1.855,-1.158 -2.646,-0.725 -8.262,4.52c-7.282,6.802 -14.653,12.746 -14.653,11.816c0,-4.559 18.126,-64.488
    23.607,-78.053c3.207,-7.936 3.558,-9.654 3.064,-15.011c-0.685,-7.42 -4.495,-18.221 -8.093,-22.937c-4.515,-5.92 -5.996,-4.923
    -10.422,7.025c-5.054,13.642 -10.036,24.189 -22.42,47.461c-20.459,38.448 -24.751,45.061 -34.452,53.077c-6.533,5.399 -12.323,7.909
    -19.87,8.614l-6.414,0.598l0.035,-6.394c0.019,-3.517 0.639,-9.77 1.378,-13.895c1.819,-10.157 10.994,-40.315 20.801,-68.377c4.445,-12.717
    8.293,-25.122 8.55,-27.565c0.871,-8.27 -3.967,-23.352 -9.156,-28.541c-3.219,-3.219 -4.398,-3.171 -5.747,0.233c-3.82,9.647 -16.002,46.041
    -21.352,63.788c-7.873,26.124 -9.309,33.019 -10.463,50.259c-1.447,21.631 1.065,35.844 9.066,51.275c4.936,9.521 9.342,13.914
    14.991,14.947c6.004,1.098 16.052,-0.557 22.152,-3.648c6.111,-3.096 16.62,-12.847 21.311,-19.773l3.32,-4.901l0.661,2.901c3.596,15.772
    7.435,24.526 12.696,28.954c3.749,3.154 8.639,3.179 13.563,0.071l0,-0Zm1349.86,-19.559c4.064,-2.478 16.149,-16.531 18.05,-20.99
    c1.633,-3.83 1.189,-9.394 -1.403,-17.574c-2.945,-9.294 -7.672,-16.541 -10.749,-16.478c-0.583,0.012 -2.854,2.524 -5.046,5.583
    c-4.116,5.743 -12.735,14.395 -14.341,14.395c-1.424,0 -3.058,-15.457 -4.174,-39.5c-1.473,-31.706 -6.307,-66.391 -10.961,-78.638
    c-3.048,-8.024 -6.749,-13.043 -9.344,-12.674c-1.88,0.267 -2.237,1.034 -2.49,5.35c-0.162,2.77 0.826,11.108 2.197,18.527c2.429,13.151
    3.417,23.986 5.652,61.935c1.217,20.674 2.554,29.758 7.066,48c6.834,27.634 15.326,38.294 25.543,32.064Zm-1501.83,-11.564c0.417,-6.254
    -1.33,-14.493 -4.454,-21c-4.196,-8.74 -4.47,-8.928 -13.895,-9.554c-4.638,-0.308 -8.649,-0.777 -8.914,-1.041c-0.265,-0.265 0.594,-2.729
    1.908,-5.475c1.314,-2.746 4.488,-10.829 7.053,-17.961c2.565,-7.133 6.162,-15.684 7.994,-19.002c1.831,-3.319 5.984,-11.872
    9.227,-19.007c3.244,-7.135 10.877,-22.419 16.962,-33.966c6.13,-11.632 13.629,-27.683 16.816,-35.994c3.165,-8.25 9.739,-22.983
    14.611,-32.739c4.872,-9.757 8.858,-18.869 8.858,-20.25c0,-1.477 0.572,-2.511 1.39,-2.511c0.764,0 10.011,2.939 20.547,6.53
    c10.536,3.592 19.568,6.276 20.071,5.965c4.931,-3.047 -2.329,-30.383 -9.278,-34.936c-1.245,-0.816 -19.127,-7.089 -39.739,-13.942
    c-27.094,-9.007 -37.824,-12.17 -38.734,-11.415c-3.126,2.594 -0.449,17.906 4.879,27.903c3.131,5.873 4.975,7.26 13.091,9.847l3.728,1.188
    l-3.623,7.18c-1.992,3.949 -6.267,14.098 -9.499,22.553c-3.279,8.574 -10.874,24.936 -17.176,37c-6.214,11.895 -13.459,26.352 -16.102,32.127
    c-2.642,5.775 -6.962,14.807 -9.599,20.071c-2.637,5.265 -7.068,15.805 -9.846,23.423c-2.778,7.618 -6.935,17.036 -9.237,20.929c-7.581,12.815
    -10.827,19.052 -10.85,20.844c-0.021,1.582 -0.573,1.492 -5.273,-0.862c-2.887,-1.446 -6.682,-3.703 -8.433,-5.017c-5.289,-3.968
    -7.334,-2.863 -7.302,3.944c0.022,4.674 2.632,14.94 5.175,20.349c4.285,9.116 10.452,13.563 30.455,21.959c14.885,6.247 22.928,8.319
    31.355,8.076l7.5,-0.216l0.334,-5Zm1601.67,-8.513c18.725,-7.132 25.5,-17.371 25.5,-38.54c0,-23.565 -11.33,-51.184 -27.513,-67.064
    c-7.864,-7.718 -13.517,-10.375 -31.394,-14.756c-21.498,-5.269 -24.748,-8.185 -20.222,-18.149c4.279,-9.418 15.981,-16.448 28.746,-17.267
    c9.274,-0.595 11.868,0.476 17.807,7.355c2.58,2.989 5.352,5.434 6.158,5.434c0.807,0 1.947,-1.237 2.533,-2.75c1.402,-3.618 -0.968,-16.065
    -4.548,-23.885c-3.225,-7.044 -10.562,-15.771 -16.338,-19.434c-15.628,-9.911 -44.127,2.004 -49.972,20.893c-2.214,7.153 -2.159,23.626
    0.114,33.919c3.183,14.419 10.822,30.636 17.944,38.092c5.258,5.506 10.47,7.874 25.519,11.594c16.761,4.144 24.618,7.929 30.062,14.483
    c5.249,6.319 6.112,8.263 5.458,12.295c-2.336,14.397 -18.164,24.293 -38.854,24.293c-7.985,0 -9.52,-0.305 -13.61,-2.71c-5.509,-3.239
    -8.342,-8.873 -9.867,-19.63c-2.474,-17.444 -11.838,-32.037 -15.082,-23.505c-1.551,4.081 1.538,23.936 5.655,36.345c4.181,12.602
    10.936,26.822 15.689,33.029c3.889,5.078 9.729,9.469 15.413,11.59c5.881,2.194 23.16,1.278 30.802,-1.632Zm-129.716,-195.487c0.315,-8.897
    -2.235,-23.432 -5.737,-32.702c-2.136,-5.651 -6.81,-11.798 -8.973,-11.798c-2.679,0 -3.274,5.355 -1.721,15.5c0.842,5.5 1.827,12.25
    2.188,14.999c1.391,10.597 7.862,22.869 11.764,22.314c2.023,-0.288 2.217,-0.941 2.479,-8.313Zm-1054.76,-1238.63c-0.691,-4.605 -2.987,-13.773
    -5.101,-20.373c-2.115,-6.6 -6.077,-21.736 -8.806,-33.636c-8.648,-37.719 -22.874,-84.126 -32.156,-104.903c-3.855,-8.627 -13.537,-27.238
    -24.568,-47.221c-6.135,-11.113 -31.117,-46.858 -39.112,-55.963c-11.75,-13.38 -31.25,-30.903 -44.026,-39.562c-17.553,-11.897
    -37.828,-22.229 -78.256,-39.878c-30.179,-13.175 -70.687,-37.552 -103.385,-62.216c-37.197,-28.058 -54.482,-36.191 -60.542,-28.486
    c-1.886,2.398 -2.081,4.041 -2.159,18.25l-0.086,15.615l-2.863,-6c-7.626,-15.983 -9.206,-26.452 -5.162,-34.207c4.572,-8.767
    16.398,-11.809 28.421,-7.31c10.956,4.099 35.067,19.558 53.776,34.478c21.573,17.204 70.895,46.612 97.5,58.134c59.226,25.648
    80.688,38.347 107.548,63.631c20.201,19.016 24.451,24.232 49.109,60.274c8.58,12.541 29.259,50.625 36.38,67c15.83,36.403 39.441,125.143
    39.459,148.303c0,5.154 -2.474,18.302 -3.971,21.07c-0.429,0.794 -1.273,-2.161 -2,-7Z"
          style="fill:rgb(2,194,233);fill-rule:nonzero;"/>
    <path id="Schriftzug" d="M1303,2598.32c-5.378,-0.958 -9.408,-3.475 -13.933,-8.705c-6.104,-7.055 -11.118,-17.744 -11.788,-25.134
    c-0.52,-5.737 -0.419,-6.142 1.529,-6.142c1.422,0 3.262,1.773 5.784,5.572c4.513,6.8 7.11,8.597 13.282,9.19c5.996,0.576 14.302,-3.268
    16.581,-7.674c2.938,-5.682 5.429,-17.765 6.1,-29.588c0.374,-6.6 1.032,-14.25 1.462,-17c0.43,-2.75 0.668,-5.121 0.529,-5.27c-0.14,-0.149
    -1.383,1.426 -2.764,3.5c-5.923,8.894 -14.859,15.27 -21.401,15.27c-7.39,0 -12.774,-6.449 -18.043,-21.61c-2.41,-6.936 -2.738,-9.34
    -2.708,-19.89c0.029,-10.142 0.456,-13.388 2.76,-20.963c7.471,-24.572 20.724,-38.542 36.556,-38.533c8.237,-0 11.757,2.002
    15.087,8.561c1.357,2.672 3.274,5.769 4.259,6.881c0.986,1.112 2.74,5.141 3.898,8.953c2.056,6.771 2.067,7.175 0.467,17.516
    c-0.901,5.822 -2.547,19.36 -3.656,30.085c-1.11,10.725 -2.687,24 -3.504,29.5c-0.818,5.5 -1.91,16.3 -2.427,24c-0.989,14.721
    -4.239,28.472 -7.918,33.5c-2.149,2.937 -9.011,6.969 -13.495,7.929c-1.736,0.372 -4.732,0.395 -6.657,0.053l-0,-0.001Zm-3.908,-93.824
    c6.459,-4.096 10.845,-9.697 17.255,-22.035c5.371,-10.336 10.653,-22.874 10.653,-25.284c-0,-1.987 -10.719,-0.192 -15.463,2.588
    c-6.12,3.586 -10.954,9.603 -16.128,20.074c-4.46,9.028 -8.251,22.864 -7.091,25.886c0.957,2.495 5.766,1.947 10.774,-1.229Z
    m-192.399,49.057c-0.889,-0.983 -2.636,-4.02 -3.882,-6.75c-3.077,-6.744 -3.449,-23.055 -1.389,-60.901c1.549,-28.444 1.542,-28.972
    -0.376,-31.013c-3.782,-4.026 -7.59,-16.753 -6.388,-21.349c0.441,-1.688 1.454,-2.159 5.164,-2.4l4.614,-0.301l1.726,-13.306
    c3.818,-29.446 7.367,-41.263 13.112,-43.664c3.502,-1.463 9.487,-0.803 12.056,1.329c4.088,3.393 8.64,17.466 8.658,26.769c0.02,10.204
    -3.829,10.507 -8.192,0.643c-2.024,-4.574 -3.668,-5.256 -6.308,-2.616c-2.324,2.324 -3.109,4.753 -5.44,16.835c-2.914,15.098 -3.099,14.355
    3.668,14.71c5.175,0.272 5.92,0.605 7.881,3.522c2.793,4.156 5.839,15.406 5.036,18.605c-0.598,2.382 -1.038,2.508 -11.139,3.197
    c-12.38,0.844 -11.113,-1.22 -11.961,19.476c-0.326,7.975 -1.015,22.825 -1.529,33c-0.515,10.175 -0.951,23.976 -0.97,30.668
    c-0.043,15.382 -0.732,17.533 -4.341,13.546Zm124.262,-25.262c-3.254,-3.484 -6.432,-11.302 -8.719,-21.452c-1.215,-5.393 -1.595,-13.314
    -1.657,-34.5c-0.096,-33.387 2.106,-96.085 3.422,-97.401c1.552,-1.552 4.757,2.162 7.152,8.287c2.079,5.315 2.183,6.946 1.965,30.614
    c-0.127,13.75 -0.649,31.3 -1.16,39c-1.297,19.557 -1.24,52.5 0.091,52.5c1.52,0 6.954,-2.864 10.582,-5.578c2.966,-2.219 3.213,-2.25
    4.711,-0.595c2.707,2.991 5.793,11.084 6.374,16.719c0.524,5.073 0.371,5.57 -2.555,8.304c-3.807,3.555 -11.222,7.15 -14.749,7.15c-1.62,0
    -3.691,-1.156 -5.457,-3.048l0,0Zm-64.455,0.171c-9.317,-5.806 -16.684,-21.077 -18.463,-38.269c-1.802,-17.422 4.886,-40.306 14.981,-51.257
    c5.245,-5.691 8.124,-5.926 16.929,-1.385c7.009,3.615 9.072,6.633 12.161,17.788c0.991,3.575 2.923,10.55 4.294,15.5c6.65,23.996 0.382,50.759
    -13.602,58.086c-3.919,2.052 -12.662,1.804 -16.3,-0.463Zm7.782,-24.494c4.392,-1.871 7.107,-5.052 10.339,-12.112c3.65,-7.974 4.488,-19.73
    1.827,-25.632c-1.728,-3.831 -5.64,-6.885 -8.822,-6.885c-6.272,0 -16.866,20.298 -19.071,36.537c-0.566,4.169 -0.372,5.309 1.13,6.619
    c3.574,3.117 9.366,3.702 14.597,1.473Zm-180.782,21.31c-2.2,-0.457 -12.775,-1.346 -23.5,-1.977c-13.954,-0.82 -20.167,-1.57
    -21.844,-2.638c-3.007,-1.915 -7.072,-10.786 -7.789,-16.997c-0.436,-3.779 0.208,-7.339 2.967,-16.401c6.369,-20.918 11.255,-45.947
    13.754,-70.459l1.227,-12.034l-2.622,-3.966c-3.155,-4.774 -6.275,-16.017 -5.404,-19.475l0.628,-2.492l26.498,0c25.324,0 26.565,0.089
    28.019,2c2.727,3.584 5.566,12.466 5.566,17.413c-0,4.618 -0.142,4.866 -3.125,5.462c-1.719,0.344 -11.056,0.625 -20.75,0.625l-17.625,0
    l-0,7.25c-0,3.988 -0.357,11.849 -0.794,17.47c-0.921,11.862 -2.581,10.29 13.817,13.082l9.977,1.698l2.964,5.935c2.063,4.13 3.087,7.854
    3.367,12.25c0.371,5.831 0.245,6.315 -1.648,6.315c-2.07,0 -26.916,-4.494 -30.76,-5.564c-1.893,-0.527 -2.19,0.071 -3.348,6.743
    c-0.698,4.027 -2.314,11.821 -3.589,17.321c-1.276,5.5 -2.128,10.192 -1.894,10.425c0.233,0.234 5.933,0.796 12.666,1.248c6.733,0.453
    14.687,1.274 17.676,1.825c2.988,0.551 7.081,1.002 9.095,1.002c2.245,0 4.286,0.691 5.278,1.787c3.801,4.2 7.187,16.784 5.623,20.897
    c-0.761,2.001 -1.53,2.301 -5.655,2.201c-2.626,-0.063 -6.575,-0.489 -8.775,-0.946Zm42.993,-2.309c-3.393,-5.178 -5.493,-12.62
    -5.493,-19.466c-0,-7.704 2.705,-23.833 6.485,-38.664c2.418,-9.49 2.488,-10.499 1.372,-19.79c-0.867,-7.212 -0.882,-10.085
    -0.059,-10.908c1.412,-1.412 3.714,0.353 5.853,4.49l1.518,2.936l3.166,-2.994c6.944,-6.569 12.738,-7.119 17.993,-1.708c6.98,7.188
    14.694,27.045 12.102,31.155c-1.689,2.677 -2.783,2.041 -6.755,-3.931c-4.117,-6.189 -5.703,-6.821 -10.673,-4.251c-5.867,3.034
    -10.6,11.644 -12.08,21.976c-4.548,31.75 -7.144,42.694 -10.278,43.336c-0.835,0.172 -2.253,-0.81 -3.151,-2.181Zm409.777,-4.88
    c-4.51,-4.882 -5.513,-9.378 -6.415,-28.75c-1.631,-35.057 -1.995,-58.438 -0.932,-60c2.97,-4.367 9.134,6.75 9.863,17.788
    l0.482,7.288l3.497,-5.288c4.709,-7.119 8.851,-11.477 14.181,-14.918c7.609,-4.912 11.741,-3.379 17.534,6.505l2.786,4.755
    l2.436,-4.315c3.331,-5.902 7.702,-10.242 12.487,-12.4c3.605,-1.626 4.286,-1.66 6.663,-0.336c3.572,1.989 8.444,9.455
    11.173,17.122c1.889,5.305 2.318,9.021 2.722,23.549c0.566,20.35 0.653,20.452 9.502,11.153c3.822,-4.017 6.322,-5.898
    7.326,-5.512c2.388,0.916 6.572,11.137 7.145,17.456l0.519,5.73l-5.265,5.761c-2.896,3.169 -6.518,6.409 -8.049,7.201c-11.894,6.151
    -21.925,-14.495 -21.925,-45.127c-0,-6.826 -0.247,-12.412 -0.55,-12.412c-2.136,0 -6.787,3.699 -9.706,7.721c-5.87,8.085 -9.744,22.012
    -9.744,35.03c-0,2.677 -0.618,5.712 -1.374,6.746c-1.323,1.809 -1.462,1.783 -3.763,-0.699c-3.25,-3.507 -6.02,-11.626 -6.147,-18.017
    c-0.058,-2.904 0.272,-10.052 0.732,-15.883c0.555,-7.017 0.493,-10.816 -0.181,-11.233c-2.015,-1.245 -9.854,4.086 -14.569,9.907
    c-8.761,10.817 -12.795,21.552 -14.818,39.428c-1.371,12.12 -1.737,14 -2.725,14c-0.443,0 -1.742,-1.012 -2.885,-2.25Zm122.758,-7.38
    c-1.72,-1.447 -4.192,-4.734 -5.495,-7.304c-5.127,-10.118 -5.664,-14.313 -6.534,-51.066c-0.45,-18.975 -0.439,-34.897 0.025,-35.383
    c1.668,-1.748 4.123,0.462 6.655,5.993c3.15,6.88 4.196,18.187 4.27,46.14c0.028,10.646 0.452,19.25 0.947,19.25c1.292,0 6.664,-6.333
    9.326,-10.994c3.228,-5.654 5.083,-5.164 8.766,2.317c4.484,9.109 4.573,15.567 0.305,22.196c-7.633,11.854 -12.115,14.026 -18.265,8.851
    l-0,-0Zm-685.267,-3.083c-1.873,-2.071 -6.441,-11.254 -9.718,-19.537c-1.252,-3.162 -2.561,-5.748 -2.909,-5.746c-0.349,0 -4.009,2.932
    -8.134,6.509c-7.159,6.209 -15.347,10.487 -20.07,10.487c-12.422,0 -23.853,-21.478 -22.618,-42.5c0.915,-15.57 6.905,-30.635
    16.905,-42.514l6.083,-7.228l-2.619,-11.129c-5.726,-24.325 -5.531,-32.474 0.926,-38.732c3.294,-3.193 3.916,-3.397 10.383,-3.397
    c6.184,0 7.176,0.285 9.825,2.823c6.97,6.678 12.185,22.03 12.185,35.87c-0,9.282 -2.001,14.082 -10.585,25.395l-5.378,7.087l4.731,12.662
    c2.603,6.963 4.982,12.661 5.287,12.662c0.306,0.001 6.066,-6.501 12.8,-14.448c8.074,-9.53 12.729,-14.264 13.668,-13.903c2.533,0.971
    6.847,11.323 7.294,17.5l0.421,5.818l-12.236,14.531l-12.235,14.532l2.227,5.955c1.225,3.275 2.857,6.478 3.628,7.117c1.996,1.657
    5.578,14.095 5.198,18.051c-0.371,3.86 -2.635,4.816 -5.059,2.135Zm-39.169,-36.447c2.25,-1.051 7.046,-4.441 10.656,-7.533c5.597,-4.792
    6.438,-5.93 5.701,-7.714c-0.475,-1.151 -2.749,-7.009 -5.051,-13.019l-4.187,-10.925l-3.85,4.425c-6.51,7.485 -10.04,13.692 -13.511,23.762
    c-1.833,5.315 -3.336,10.419 -3.341,11.341c-0.017,3.258 6.218,3.104 13.583,-0.337Zm15.265,-85.454c1.729,-2.809 3.143,-5.62 3.143,-6.246
    c-0,-1.875 -7.235,-1.294 -10.775,0.864c-1.801,1.099 -3.684,3.074 -4.184,4.389c-0.892,2.346 -0.805,3.194 1.122,10.926l0.951,3.819
    l3.301,-4.322c1.815,-2.377 4.714,-6.621 6.442,-9.43Zm760.557,113.725c-7.677,-4.681 -12.389,-26.905 -12.427,-58.611c-0.02,-16.574
    0.01,-16.5 -6.651,-16.5c-4.593,0 -5.811,-0.409 -7.891,-2.654c-2.496,-2.692 -6.445,-13.643 -6.445,-17.869c-0,-4.785 0.775,-5.355
    6.478,-4.767c2.929,0.302 6.94,0.247 8.914,-0.123l3.588,-0.674l-0.24,-22.706c-0.205,-19.351 -0.024,-22.707 1.22,-22.707c1.801,0
    5.621,5.524 7.18,10.383c0.638,1.989 1.359,10.514 1.602,18.944l0.44,15.327l10.384,-0.303c11.891,-0.347 11.855,-0.368 15.451,9.042
    c2.061,5.391 2.838,12.915 1.549,15.001c-0.376,0.608 -2.57,1.109 -4.875,1.112c-2.305,0 -7.931,0.297 -12.503,0.653l-8.312,0.647
    l0.62,24.097c0.341,13.254 0.824,25.094 1.072,26.312c0.614,3.007 2.764,2.128 8.652,-3.538c4.613,-4.44 4.764,-4.501 6.729,-2.723
    c2.419,2.189 5.599,10.348 6.578,16.876l0.712,4.751l-5.959,5.96c-6.683,6.682 -10.132,7.567 -15.866,4.07Zm-895.869,-9.384
    c-4.087,-2.314 -8.381,-8.192 -19.66,-26.909c-3.089,-5.125 -8.242,-13.583 -11.452,-18.796l-5.836,-9.478l-1.696,5.978c-3.793,13.366
    -9.756,35.151 -10.328,37.728c-1.241,5.587 -5.456,2.36 -8.598,-6.581c-3.47,-9.872 -2.813,-13.676 9.617,-55.669c1.872,-6.325
    4.495,-16.9 5.829,-23.5c1.334,-6.6 4.26,-19.292 6.502,-28.205c2.242,-8.913 4.077,-18.055 4.077,-20.315c-0,-11.283 5.649,-10.188
    10.432,2.02c2.992,7.64 2.422,13.693 -3.461,36.692c-2.981,11.656 -5.094,21.519 -4.695,21.918c0.399,0.399 7.963,-1.379
    16.808,-3.95c8.846,-2.571 16.502,-4.416 17.014,-4.099c3.37,2.083 8.529,18.66 7.032,22.597c-0.932,2.452 -1.748,2.733
    -34.861,12.02l-3.231,0.906l5.161,8.208c2.839,4.515 6.688,10.908 8.554,14.208c6.964,12.315 11.947,14.756 20.702,10.14c2.775,-1.464
    8.195,-5.35 12.045,-8.637c3.85,-3.287 7.493,-5.982 8.095,-5.99c3.304,-0.04 8.405,11.706 8.405,19.354c-0,4.305 -0.208,4.592
    -8.25,11.348c-4.538,3.812 -9.878,7.91 -11.868,9.108c-4.773,2.872 -11.163,2.835 -16.337,-0.096l0,0Zm1039.03,-14.977c-4.327,-6.615
    -6.552,-18.697 -10.086,-54.75c-0.889,-9.075 -2.479,-21.9 -3.534,-28.5c-2.213,-13.853 -6.935,-53.449 -6.946,-58.25c-0.01,-2.573
    0.404,-3.25 1.969,-3.25c4.585,0 7.618,9.032 10.073,30c1.063,9.075 2.193,18.022 2.511,19.881l0.579,3.381l4.91,-0.581c2.701,-0.32
    12.166,-2.478 21.033,-4.795l16.121,-4.212l-0.68,-7.587c-0.375,-4.173 -1.577,-14.112 -2.672,-22.087c-2.959,-21.56 -3.342,-27.579
    -1.811,-28.525c1.747,-1.08 5.547,3.791 7.428,9.525c1.562,4.759 6.52,37.233 6.527,42.75c-0,1.788 0.404,3.25 0.892,3.25c0.489,0
    4.838,-1.144 9.665,-2.543c4.828,-1.399 9.33,-2.332 10.005,-2.073c0.676,0.259 2.451,3.056 3.945,6.215c3.209,6.782 4.455,16.361
    2.355,18.104c-0.759,0.63 -6.325,2.472 -12.369,4.094c-10.237,2.748 -10.975,3.112 -10.782,5.326c1.269,14.595 3.9,33.741 6.028,43.877
    c1.444,6.875 2.809,15.088 3.034,18.25c0.375,5.279 0.239,5.75 -1.66,5.75c-4.652,0 -10.438,-19.278 -14.106,-47c-1.2,-9.075 -2.363,-17.463
    -2.584,-18.64c-0.4,-2.128 -0.481,-2.119 -15.474,1.686c-8.29,2.105 -17.569,4.138 -20.621,4.519l-5.547,0.694l0.593,4.62c0.327,2.542
    1.067,10.021 1.646,16.621c0.578,6.6 1.95,18.916 3.048,27.368c1.097,8.453 1.727,16.215 1.398,17.25c-0.807,2.546 -3.095,2.373
    -4.888,-0.368Zm-1156.75,-3.499c-7.576,-1.046 -17.961,-16.494 -21.361,-31.775c-2.253,-10.129 -1.634,-24.513 1.442,-33.476
    c4.36,-12.704 14.319,-26.478 22.025,-30.463c5.021,-2.597 11.978,-2.963 16.044,-0.846c7.973,4.153 13.224,15.621 13.42,29.307
    c0.085,5.96 -0.193,7.502 -1.353,7.502c-1.806,0 -5.993,-6.046 -6.732,-9.72c-0.729,-3.63 -3.23,-4.235 -9.714,-2.35c-8.908,2.589
    -17.91,13.493 -23.221,28.124c-3.237,8.918 -3.187,14.867 0.143,17.049c6.075,3.98 19.231,-0.879 37.824,-13.97c5.962,-4.198
    11.438,-7.633 12.169,-7.633c3.308,0 9.539,16.743 8.191,22.009c-0.42,1.64 -3.556,4.541 -9.18,8.491c-19.943,14.008 -30.999,18.952
    -39.697,17.751Zm1269.56,-11.687c-5.679,-2.472 -11.784,-12.685 -15.299,-25.596c-2.489,-9.144 -7.943,-47.508 -8.311,-58.468
    c-0.25,-7.423 -0.125,-8 1.731,-8c1.428,0 2.801,1.6 4.8,5.597c2.239,4.474 3.094,8.246 4.262,18.793c2.392,21.607 5.313,40.255
    6.537,41.729c0.63,0.76 2.876,1.381 4.99,1.381c3.059,0 4.558,-0.714 7.337,-3.493c1.921,-1.921 3.94,-5.183 4.486,-7.25c2.02,-7.646
    5.311,-35.215 5.94,-49.757c0.606,-14.031 0.775,-15 2.616,-15c3.331,0 7.479,9.631 9.087,21.105c0.763,5.442 2.611,17.257
    4.107,26.254c2.443,14.694 2.95,16.463 4.988,17.391c3.869,1.763 7.07,-1.391 12.021,-11.843c2.451,-5.174 4.86,-9.407 5.354,-9.407
    c3.36,0 8.344,11.557 8.409,19.5c0.032,3.857 -0.911,6.997 -4.121,13.728c-4.527,9.492 -8.259,13.772 -12.009,13.772c-7.637,0
    -15.439,-9.645 -19.816,-24.5l-1.768,-6l-2.256,13.5c-1.24,7.425 -2.722,14.688 -3.293,16.139c-1.759,4.476 -7.12,9.753 -11.003,10.831
    c-4.584,1.274 -4.97,1.256 -8.789,-0.406Zm-1334.01,-9.462c-3.862,-2.38 -7.877,-10.312 -9.63,-19.021l-1.293,-6.42l-5.267,6.62
    c-6.33,7.954 -9.826,11.002 -16.5,14.384c-8.823,4.471 -16.223,2.269 -21.774,-6.479c-4.731,-7.457 -7.087,-16.34 -7.078,-26.686
    c0.01,-11.188 1.662,-19.635 8.046,-41.123c2.757,-9.282 5.507,-18.789 6.11,-21.127c0.629,-2.433 1.692,-4.25 2.487,-4.25c3.586,0
    8.534,11.228 8.534,19.366c-0,2.202 -2.313,11.908 -5.141,21.569c-6.814,23.284 -7.465,25.745 -8.284,31.315c-0.667,4.542 -0.592,4.75
    1.704,4.75c5.119,0 14.656,-5.975 20.131,-12.611c8.277,-10.036 15.784,-20.833 24.07,-34.62c4.208,-7.002 8.099,-13.009 8.648,-13.348
    c2.842,-1.756 8.674,9.201 9.563,17.965c0.422,4.162 -0.232,7.442 -3.514,17.614c-2.219,6.875 -5.148,16.192 -6.51,20.703l-2.476,8.203
    l5.654,0.297l5.655,0.297l2.907,5.817c2.209,4.42 2.93,7.302 3,12l0.093,6.183l-8,0.268c-6.478,0.216 -8.596,-0.101 -11.135,-1.666
    l-0,0Zm1416.75,-9.685c-5.704,-7.252 -9.274,-26.568 -9.318,-50.417c-0.022,-12.058 -0.557,-18.275 -2.406,-28c-1.308,-6.875 -2.381,-13.936
    -2.384,-15.691c-0.012,-7.144 4.56,-4.388 8.402,5.063l2.334,5.745l2.717,-4.636c2.947,-5.027 9.561,-9.87 15.76,-11.54c5.074,-1.366
    8.9,0.698 12.415,6.695c6.011,10.258 8.55,21.08 9.952,42.425c0.732,11.129 1.424,12.263 5.249,8.598c1.61,-1.543 3.733,-4.59 4.717,-6.773
    c2.401,-5.324 4.279,-4.727 7.896,2.513c3.907,7.82 4.552,15.723 1.733,21.248c-2.209,4.331 -9.352,11.353 -11.548,11.353c-4.614,0
    -11.886,-12.185 -15.083,-25.274c-1.857,-7.604 -4.5,-26.258 -4.53,-31.976c-0.024,-4.614 -1.483,-4.818 -8.713,-1.215c-5.824,2.902
    -8.943,7.022 -12.313,16.264c-2.173,5.96 -2.227,6.785 -1.154,17.478c2.029,20.226 2.552,36.123 1.268,38.524c-1.525,2.848 -2.511,2.773
    -4.994,-0.384Zm-1549.05,-19.344c-3.744,-4.008 -6.89,-12.701 -8.8,-24.319l-1.602,-9.747l2.729,-10.732c1.501,-5.902 4.237,-14.162
    6.08,-18.355c1.844,-4.193 4.331,-10.952 5.527,-15.021c1.197,-4.069 5.252,-13.924 9.012,-21.899c3.76,-7.975 9.092,-20.524
    11.848,-27.887c2.757,-7.363 5.438,-13.813 5.959,-14.333c2.632,-2.633 9.179,10.739 9.179,18.748c-0,5.435 -8.096,27.322 -16.931,45.773
    c-3.372,7.041 -7.638,17.391 -9.482,23c-1.843,5.61 -4.762,13.668 -6.486,17.907c-1.724,4.24 -3.421,9.144 -3.772,10.898c-0.621,3.105
    -0.562,3.17 2.267,2.484c4.476,-1.086 12.087,-6.507 21.289,-15.163l8.374,-7.879l2.762,3.308c2.893,3.466 5.979,12.648 5.979,17.791
    c-0,2.437 -1.391,4.351 -7.25,9.974c-14.478,13.896 -21.606,18.317 -29.599,18.357c-3.534,0.018 -4.861,-0.526
    -7.083,-2.905Zm1635.23,-8.021c-8.171,-6.506 -12.692,-14.436 -16.323,-28.632c-3.904,-15.266 -3.421,-40.11 0.973,-50.044c4.092,-9.251
    15.897,-17.311 23.539,-16.071c2.022,0.328 3.509,0.152 3.509,-0.415c-0,-3.479 -3.399,-30.398 -5.1,-40.39c-1.536,-9.025 -1.785,-12.677
    -1.003,-14.731c2.466,-6.482 8.245,3.139 10.694,17.806c5.693,34.089 17.484,87.96 20.476,93.551c2.182,4.077 6.662,0.793 12.174,-8.925
    c1.98,-3.492 3.561,-5.198 4.632,-5c2.299,0.423 6.892,10.312 7.688,16.553c0.571,4.472 0.28,6.051 -1.957,10.624c-3.244,6.63
    -10.516,14.622 -13.305,14.622c-1.134,0 -3.503,-1.462 -5.264,-3.25c-3.581,-3.634 -10.947,-18.216 -13.638,-27c-0.969,-3.162
    -2.063,-5.75 -2.431,-5.75c-0.368,0 -0.924,5.063 -1.235,11.25c-0.885,17.565 -4.793,31.903 -10.157,37.268c-3.643,3.642 -7.374,3.23
    -13.272,-1.466Zm4.284,-22.781c4.357,-4.356 7.029,-14.122 8.345,-30.492c1.29,-16.041 -0.43,-18.616 -8.702,-13.029c-8.307,5.611
    -10.954,11.204 -11.862,25.065c-0.809,12.347 -0.277,14.495 4.377,17.657c4.397,2.988 5.537,3.104 7.842,0.799Zm-1684.13,13.042
    c-1.787,-1.786 -4.712,-8.07 -5.78,-12.414l-0.639,-2.601l-5.769,2.013c-4.167,1.455 -9.256,2.138 -18.337,2.464c-11.227,0.402
    -12.998,0.232 -16.581,-1.596c-7.374,-3.762 -13.532,-14.667 -17.934,-31.758c-5.026,-19.515 -3.159,-32.443 7.817,-54.132
    c11.867,-23.451 18.874,-31.235 35.606,-39.557c7.612,-3.785 9.151,-4.183 17.639,-4.554c5.827,-0.255 10.709,0.059 13.076,0.84
    c5.356,1.768 11.839,8.144 14.45,14.212c2.154,5.007 4.142,19.294 3.203,23.02c-1.076,4.276 -6.254,-0.339 -8.394,-7.481c-1.53,-5.107
    -4.067,-6.081 -14.313,-5.501c-9.874,0.559 -16.737,3.097 -27.102,10.022c-9.251,6.181 -12.646,10.419 -21.549,26.899c-8.02,14.845
    -12.027,25.534 -12.173,32.472c-0.207,9.796 3.159,12.352 16.223,12.322c11.279,-0.026 19.855,-2.243 31.715,-8.199l10.581,-5.313
    l2.402,-5.903c1.32,-3.247 2.272,-6.032 2.115,-6.189c-0.157,-0.157 -3.194,-0.645 -6.749,-1.082l-6.463,-0.797l-2.907,-5.816
    c-2.209,-4.42 -2.93,-7.302 -3,-12l-0.093,-6.184l15,0.364c8.25,0.2 15.83,0.801 16.845,1.336c2.936,1.547 7.016,11.573 7.463,18.338
    c0.362,5.5 -0.003,6.881 -4.1,15.5c-5.782,12.163 -17.708,44.006 -17.708,47.282c-0,3.08 -0.932,5.68 -2.036,5.68c-0.451,0 -1.58,-0.759
    -2.508,-1.687Zm1196.75,-14.511c-4.145,-6.759 -5.404,-13.863 -4.644,-26.206c0.386,-6.269 1.066,-11.987 1.511,-12.707c2.188,-3.54
    8.751,8.467 9.564,17.497c0.253,2.813 0.102,9.384 -0.336,14.603c-0.91,10.828 -2.525,12.634 -6.095,6.813Zm592.406,-36.267c-14.647,-4.192
    -25.701,-13.344 -29.075,-24.067c-1.453,-4.622 -1.695,-7.72 -1.235,-15.856c1.505,-26.621 14.124,-47.483 34.756,-57.458c18.614,-8.999
    34.386,-10.515 65.932,-6.337c36.33,4.811 57.465,1.832 74.213,-10.463c6.505,-4.775 8.937,-8.839 15.41,-25.752c5.553,-14.508
    8.078,-19.102 10.499,-19.102c1.054,0 1.349,1.455 1.214,6c-0.209,7.025 -8.46,30.3 -15.524,43.791c-7.533,14.388 -20.243,24.821
    -35.685,29.294c-17.22,4.987 -30.173,5.252 -60.113,1.229c-28.708,-3.857 -43.6,-2.422 -60.703,5.852c-9.755,4.719 -18.752,13.181
    -19.518,18.357c-0.744,5.029 1.636,11.934 5.782,16.778c11.258,13.151 36.526,17.728 47.393,8.584c3.882,-3.266 3.831,-4.8
    -0.299,-8.93c-2.589,-2.588 -4.507,-3.499 -8.483,-4.026c-2.825,-0.375 -5.657,-1.308 -6.292,-2.073c-2.498,-3.011 1.708,-18.863
    6.047,-22.79c1.448,-1.31 2.638,-1.407 7.038,-0.572c11.104,2.105 16.035,8.306 16.035,20.162c-0,20.102 -12.193,42.448 -25.282,46.335
    c-7.499,2.227 -16.494,2.652 -22.11,1.044Zm-1626.19,-5.264c-2.834,-2.833 -5.597,-10.166 -6.09,-16.157c-0.381,-4.647 0.379,-8.457
    4.414,-22.114c3.304,-11.181 5.328,-16.5 6.279,-16.5c1.936,0 5.888,6.124 7.26,11.25c0.626,2.338 1.429,4.25 1.786,4.25c0.356,0
    1.067,-1.462 1.58,-3.25c2.102,-7.33 8.019,-0.914 10.456,11.339c1.043,5.239 0.887,6.306 -2.485,17c-4.422,14.025 -4.85,14.789
    -7.197,12.847c-2.112,-1.747 -6.394,-10.693 -6.407,-13.386c-0.01,-1.132 -0.359,-1.551 -0.841,-1c-0.79,0.903 -1.612,3.523
    -4.137,13.2c-1.219,4.67 -2.028,5.112 -4.618,2.521Zm-338.01,-23.678c-8.595,-2.086 -15.057,-8 -20.48,-18.743c-6.119,-12.122
    -8.788,-30.452 -5.56,-38.179c2.606,-6.236 10.235,-10.651 18.428,-10.665c3.055,-0.01 3.504,0.441 6.216,6.176c3.161,6.682
    4.58,13.391 3.532,16.693c-0.506,1.594 -1.81,2.225 -5.653,2.735c-8.802,1.167 -15.299,7.766 -11.809,11.993c3.856,4.67 16.878,7.43
    25.911,5.493c7.447,-1.597 16.921,-6.336 21.437,-10.721c7.829,-7.604 9.858,-18.003 4.824,-24.725c-3.553,-4.744 -13.905,-11.655
    -22.607,-15.091c-15.208,-6.006 -26.737,-6.793 -51.143,-3.493c-8.25,1.116 -21.75,2.279 -30,2.585c-12.922,0.479 -16.455,0.256
    -25.5,-1.609c-19.615,-4.042 -32.922,-12.717 -41.35,-26.956c-5.145,-8.691 -9.194,-18.089 -15.052,-34.933c-3.941,-11.332 -4.62,-17.823
    -1.97,-18.84c2.44,-0.937 4.406,2.343 9.268,15.467c6.52,17.6 10.231,24.141 16.242,28.629c6.324,4.722 15.34,8.98 23.862,11.271c9.682,2.603
    32.818,2.348 54.976,-0.606c22.528,-3.003 36.465,-2.596 49.024,1.433c20.374,6.535 31.437,15.423 39.826,31.993c6.883,13.596 10.04,34.579
    6.85,45.535c-5.271,18.104 -28.391,29.627 -49.272,24.558Zm1059.53,-40.523c-6.676,-1.301 -10.234,-5.071 -15.38,-16.297c-5.526,-12.053
    -7.645,-22.26 -8.257,-39.773c-0.523,-14.944 -0.412,-16.147 3.094,-33.537c6.19,-30.704 9.603,-41.636 18.32,-58.685c5.695,-11.138
    15.163,-21.588 23.083,-25.477c5.082,-2.496 6.695,-2.785 14.818,-2.657c11.914,0.188 16.794,2.239 21.219,8.92c4.03,6.084 7.569,17.199
    10.266,32.244c2.265,12.634 2.172,19.001 -0.447,30.692c-1.683,7.515 -4.11,29.207 -5.246,46.907l-0.701,10.907l5.233,-0.62c7.956,-0.942
    18.661,-7.105 23.451,-13.5c2.14,-2.857 4.681,-5.194 5.646,-5.194c4.295,0 11.964,18.227 11.964,28.434c-0,9.09 -7.323,17.547 -20.558,23.74
    c-5.665,2.651 -7.377,3 -12.977,2.643c-5.693,-0.362 -6.858,-0.805 -9.916,-3.769c-1.905,-1.847 -5.008,-6.326 -6.895,-9.953c-3.36,-6.456
    -8.654,-20.962 -8.654,-23.709c-0,-3.195 -1.821,-0.837 -6.268,8.115c-6.163,12.406 -14.496,25.814 -19.765,31.799c-6.445,7.322
    -14.009,10.333 -22.03,8.77Zm1.995,-38.035c10.159,-5.183 23.117,-27.319 38.023,-64.952c7.782,-19.65 10.216,-26.854 11.43,-33.833
    l0.565,-3.25l-7.225,0.01c-5.522,0.01 -8.403,0.57 -12.225,2.386c-5.461,2.595 -13.753,10.641 -17.924,17.392c-3.307,5.354 -9.834,20.107
    -12.576,28.425c-2.274,6.9 -9.383,40.894 -10.464,50.037l-0.68,5.75l3.612,0c1.986,0 5.345,-0.884 7.464,-1.965l0,-0Zm-83.837,33.174
    c-7.223,-7.618 -12.698,-23.103 -13.77,-38.949l-0.625,-9.24l-7.397,13.678c-11.371,21.03 -21.08,33.204 -27.833,34.899c-8.15,2.046
    -25.244,-3.741 -32.666,-11.058c-11.14,-10.983 -19.018,-36.516 -18.986,-61.539c0.021,-16.512 3.985,-29.531 18.142,-59.594c5.946,-12.626
    11.602,-21.005 19.531,-28.934c8.314,-8.313 12.431,-9.832 25.213,-9.3c8.839,0.368 10.421,0.743 16.196,3.837c6.304,3.378 13.159,10.451
    14.634,15.1c0.366,1.151 1.011,1.71 1.435,1.242c0.751,-0.83 1.239,-3.314 6.556,-33.351c1.412,-7.975 4.099,-20.35 5.972,-27.5c1.873,-7.15
    3.925,-16.946 4.561,-21.77c0.68,-5.165 1.838,-9.615 2.818,-10.825l1.664,-2.055l2.55,2.007c3.536,2.781 8.592,14.236 10.056,22.783
    c1.094,6.385 0.994,8.287 -0.946,18c-1.969,9.854 -4.776,29.591 -8.762,61.6c-1.581,12.703 -3.101,20.575 -6.874,35.596c-2.635,10.496
    -6.05,36.999 -7.429,57.664c-0.478,7.15 -0.759,13.132 -0.626,13.292c0.133,0.161 2.062,-0.437 4.288,-1.327c3.061,-1.225 4.537,-1.356
    6.063,-0.54c3.072,1.645 8.036,12.719 9.868,22.015c2.067,10.497 1.187,12.55 -6.764,15.78c-8.45,3.432 -12.528,3.066
    -16.869,-1.511Zm-59.547,-36.664c1.916,-0.801 4.865,-2.938 6.552,-4.75c10.696,-11.482 25.866,-41.266 35.717,-70.127c3.501,-10.256
    3.856,-12.118 2.975,-15.591c-0.834,-3.282 -1.658,-4.206 -4.917,-5.51c-4.433,-1.774 -14.584,-2.053 -19.993,-0.551c-11.999,3.333
    -22.855,18.161 -36.718,50.15c-6.796,15.683 -9.409,24.687 -9.548,32.911c-0.136,7.985 0.244,8.435 10.384,12.321c7.588,2.909 10.77,3.143
    15.548,1.147Zm-112.183,32.205c-7.663,-6.721 -13.611,-19.182 -15.443,-32.352c-1.958,-14.081 2.331,-30.624 15.398,-59.398c6.116,-13.466
    14.68,-35.465 14.68,-37.709c-0,-0.284 -3.038,-0.344 -6.75,-0.134c-7.944,0.449 -18.041,4.813 -29.549,12.77c-12.742,8.81 -24.17,25.378
    -28.699,41.609c-1.222,4.38 -4.376,14.039 -7.009,21.464c-2.633,7.425 -7.113,20.724 -9.957,29.552c-5.502,17.081 -8.582,23.737 -11.22,24.245
    c-4.03,0.776 -11.213,-14.314 -12.379,-26.003c-0.533,-5.343 -0.169,-7.729 2.405,-15.794c1.668,-5.225 4.606,-15.125 6.529,-22c5.174,-18.502
    9.321,-30.364 14.335,-41c2.581,-5.474 7.428,-19.458 11.439,-33c11.587,-39.123 10.844,-37 12.946,-37c2.596,0 7.087,6.491 9.416,13.61
    c1.06,3.24 2.008,6.031 2.105,6.202c0.098,0.172 3.94,-1.722 8.537,-4.208c9.718,-5.254 19.457,-8.068 24.721,-7.143c14.634,2.571
    21.379,9.215 26.941,26.539c2.671,8.321 4.189,16.931 4.189,23.767c-0,10.059 -7.061,32.743 -16.725,53.733c-7.928,17.218 -11.283,25.5
    -10.332,25.5c0.457,0 5.021,-3.203 10.143,-7.119c10.178,-7.78 10.612,-7.838 14.627,-1.944c3.686,5.412 6.45,14.142 7.016,22.156
    l0.535,7.592l-8.382,6.533c-18.023,14.045 -22.664,15.544 -29.517,9.532Zm541.135,-0.938c-2.75,-0.503 -8.6,-2.665 -13,-4.803
    c-21.639,-10.518 -37.247,-37.59 -49.549,-85.95c-6.203,-24.381 -7.239,-33.692 -6.675,-59.984c0.417,-19.481 0.85,-24.288 3.152,-35.075
    c6.897,-32.311 17.654,-54.739 34.572,-72.077c13.553,-13.89 26.687,-20.33 41.155,-20.18c8.796,0.091 14.632,2.198 19.457,7.023
    c4.281,4.281 10.694,16.995 14.874,29.488c3.74,11.176 4.418,18.146 2.073,21.305c-2.304,3.103 -4.557,0.896 -9.688,-9.49c-2.789,-5.643
    -5.572,-9.892 -7,-10.684c-3.601,-1.996 -14.721,-1.675 -22.222,0.642c-3.608,1.114 -9.908,4.265 -13.998,7.001c-22.099,14.78 -38.175,43.913
    -44.748,81.09c-2.927,16.559 -2.911,42.395 0.036,55.58c7.902,35.354 16.621,49.818 34.501,57.228c14.167,5.871 22.402,3.358
    37.189,-11.347c8.607,-8.561 21.355,-26.32 30.921,-43.079c3.671,-6.431 4.427,-6.867 7.284,-4.204c5.493,5.121 10.742,20.364
    9.928,28.833c-0.751,7.812 -20.367,38.219 -33.608,52.096c-13.233,13.869 -23.265,18.67 -34.654,16.587l-0,-0Zm-753.055,-17.771c-5.76,-2.333
    -14.48,-17.638 -18.663,-32.757c-3.04,-10.988 -3.037,-37.699 0.01,-50.284c1.13,-4.675 2.791,-13.9 3.69,-20.5c2.011,-14.761
    3.778,-21.666 11.897,-46.5c5.418,-16.574 6.691,-19.547 8.48,-19.817c2.77,-0.417 7.095,6.331 10.152,15.836c3.387,10.535 2.591,16.27
    -5.832,42.014c-5.356,16.37 -7.437,24.402 -8.682,33.5c-0.9,6.582 -2.473,15.792 -3.495,20.467c-1.022,4.675 -2.177,11.812 -2.568,15.86
    l-0.709,7.361l3.39,-0.709c10.682,-2.231 16.499,-8.703 43.605,-48.512c19.179,-28.167 23.611,-35.744 31.129,-53.22c6.109,-14.203
    12.147,-25.698 14.541,-27.684c3.095,-2.569 7.752,3.176 11.57,14.275c3.354,9.747 3.501,15.154 0.659,24.129c-6.613,20.883 -24.624,84.749
    -24.07,85.35c0.881,0.957 8.05,-2.461 12.441,-5.932c2.726,-2.155 5.396,-3.918 5.934,-3.918c3.635,0 10.799,16.178 11.77,26.579c0.576,6.17
    0.572,6.182 -3.638,10.749c-5.46,5.924 -11.451,8.815 -18.265,8.815c-8.959,-0.001 -13.618,-3 -18.012,-11.595c-4.375,-8.555 -5.985,-14.998
    -6.631,-26.52l-0.643,-11.473l-9.5,13.971c-11.492,16.901 -23.599,32.168 -28.436,35.858c-6.73,5.132 -14.503,6.932 -20.119,4.657
    l-0.005,0Zm864.047,-7.882c-8.878,-5.415 -17.59,-25.204 -21.026,-47.761c-2.198,-14.427 -2.228,-37.065 -0.065,-49.332c6.443,-36.552
    22.084,-71.729 36.792,-82.745c3.127,-2.342 3.897,-2.458 14.128,-2.131c10.114,0.324 10.952,0.509 12.82,2.829c2.811,3.491 6.35,11.535
    7.835,17.808c0.693,2.93 2.539,7.885 4.102,11.012c5.623,11.254 6.229,16.577 5.362,47.161c-0.428,15.125 -0.687,31.1 -0.574,35.5c0.278,10.864
    2.126,23.5 3.438,23.5c3.374,0 18.245,-15.75 26.547,-28.116c2.102,-3.131 3.954,-4.876 4.967,-4.68c4.092,0.788 10.896,15.92 11.876,26.413
    c0.702,7.521 -0.02,8.968 -11.606,23.275c-9.816,12.122 -17.184,18.848 -21.539,19.665c-10.193,1.912 -17.546,-10.722 -25.06,-43.057
    c-0.613,-2.641 -1.03,-1.818 -3.478,6.866c-8.913,31.623 -30.176,52.539 -44.518,43.793l-0.001,-0Zm6.008,-37.651c8.654,-5.07 16.732,-17.02
    22.025,-32.58c2.819,-8.289 8.602,-32.126 10.899,-44.928c1.249,-6.954 3.576,-26.551 3.576,-30.106c-0,-1.414 -9.716,-1.039 -13.445,0.519
    c-4.595,1.92 -12.326,12.991 -19.614,28.087c-10.95,22.685 -16.163,43.93 -16.315,66.5c-0.05,7.425 0.29,14.103 0.756,14.84c1.148,1.815
    6.942,0.7 12.118,-2.332Zm-983.271,29.784c-4.307,-0.827 -13.766,-10.827 -18.02,-19.051c-8.176,-15.806 -12.354,-36.172 -10.22,-49.819
    c3.426,-21.905 18.092,-58.765 31.854,-80.058c10.874,-16.824 29.634,-27.005 43.085,-23.383c8.013,2.158 13.417,9.068 20.476,26.186
    c6.075,14.731 7.113,27.833 2.206,27.833c-2.157,0 -6.075,-5.17 -8.681,-11.457c-2.663,-6.426 -4.009,-7.085 -12.831,-6.285c-10.57,0.958
    -22.015,8.373 -28.947,18.753c-9.505,14.234 -25.819,50.738 -29.492,65.989c-2.677,11.119 -2.6,12.074 1.164,14.302c3.04,1.8 3.926,1.868
    10.437,0.792c3.912,-0.646 10.137,-2.445 13.832,-3.997c7.244,-3.044 23.588,-13.355 33.636,-21.221c3.426,-2.682 6.666,-4.876 7.2,-4.876
    c1.842,0 6.338,7.049 8.778,13.764c1.346,3.705 2.703,9.766 3.014,13.47l0.567,6.733l-3.893,3.606c-5.175,4.792 -29.59,21.142 -35.894,24.037
    c-9.733,4.47 -20.281,6.216 -28.271,4.682Zm1108.35,-11.624c-3.511,-3.511 -7.078,-11.395 -9.126,-20.168c-1.516,-6.499 -1.512,-8.429
    0.067,-27c2.288,-26.904 1.084,-54.946 -3.99,-93c-1.981,-14.85 -3.472,-29.025 -3.315,-31.5c0.257,-4.036 0.54,-4.5 2.747,-4.5c5.275,0
    10.302,11.898 13.095,30.991c1.047,7.155 1.935,13.459 1.973,14.009c0.038,0.55 1.327,-2.375 2.863,-6.5c5.065,-13.593 10.316,-23.164
    15.614,-28.455c5.508,-5.501 14.898,-10.987 20.623,-12.049c6.495,-1.204 12.409,3.488 17.651,14.004c8.205,16.46 9.753,29.25 8.248,68.185
    c-1.327,34.359 -0.368,54.315 2.61,54.315c1.877,0 10.297,-8.734 20.005,-20.75c4.11,-5.087 7.819,-9.25 8.241,-9.25c1.304,0 4.791,4.3
    6.894,8.5c3.193,6.38 5.223,14.402 5.223,20.648c-0,5.736 -0.068,5.87 -7.914,15.569c-12.045,14.89 -18.991,21.327 -23.692,21.954c-5.253,0.701
    -8.534,-1.998 -12.793,-10.525c-4.218,-8.442 -7.11,-16.902 -10.116,-29.592c-4.289,-18.105 -4.734,-24.42 -4.336,-61.541c0.206,-19.257
    0.017,-35.013 -0.42,-35.013c-1.442,0 -11.164,5.234 -14.659,7.892c-8.08,6.145 -17.295,26.357 -21.478,47.108c-3.239,16.065 -5.476,37.186
    -6.145,58c-0.703,21.864 -1.243,26.526 -3.375,29.16l-1.791,2.212l-2.704,-2.704Zm-1200.33,-15.116c-5.261,-4.428 -9.1,-13.182 -12.696,-28.954
    l-0.661,-2.901l-3.321,4.901c-4.69,6.926 -15.2,16.677 -21.31,19.773c-6.1,3.091 -16.148,4.746 -22.152,3.648c-5.649,-1.033 -10.055,-5.426
    -14.991,-14.947c-8.001,-15.431 -10.514,-29.644 -9.066,-51.275c1.154,-17.24 2.59,-24.135 10.463,-50.259c5.35,-17.747 17.532,-54.141
    21.352,-63.788c1.349,-3.404 2.528,-3.452 5.747,-0.233c5.189,5.189 10.027,20.271 9.156,28.541c-0.257,2.443 -4.105,14.848 -8.55,27.565
    c-9.807,28.062 -18.982,58.22 -20.801,68.377c-0.739,4.125 -1.359,10.378 -1.378,13.895l-0.035,6.394l6.414,-0.598c7.547,-0.705 13.337,-3.215
    19.87,-8.614c9.701,-8.016 13.993,-14.629 34.452,-53.077c12.384,-23.272 17.366,-33.819 22.42,-47.461c4.426,-11.948 5.906,-12.945
    10.422,-7.025c3.597,4.716 7.408,15.517 8.093,22.937c0.494,5.357 0.143,7.075 -3.064,15.011c-5.481,13.565 -23.607,73.494 -23.607,78.053
    c-0,0.93 7.371,-5.014 14.653,-11.816c5.616,-5.245 6.407,-5.678 8.262,-4.52c2.81,1.755 7.585,11.036 9.501,18.466c2.195,8.512 2.038,13.508
    -0.526,16.768c-2.593,3.297 -19.931,17.957 -25.084,21.21c-4.924,3.108 -9.814,3.083 -13.563,-0.071l0,-0Zm1354.11,-18.544c-5.522,-2.228
    -11.76,-14.911 -16.235,-33.008c-4.512,-18.242 -5.849,-27.326 -7.066,-48c-2.235,-37.949 -3.224,-48.784 -5.652,-61.935c-1.371,-7.419
    -2.359,-15.757 -2.197,-18.527c0.253,-4.316 0.61,-5.083 2.49,-5.35c2.595,-0.369 6.296,4.65 9.344,12.674c4.654,12.247 9.488,46.932
    10.961,78.638c1.116,24.043 2.75,39.5 4.174,39.5c1.606,0 10.225,-8.652 14.341,-14.395c2.192,-3.059 4.463,-5.571 5.046,-5.583c4.361,-0.089
    11.253,13.751 12.973,26.052c0.861,6.154 -0.793,9.693 -8.995,19.244c-9.247,10.767 -13.34,13.048 -19.184,10.69Zm-1515.36,-9.364c-8.384,-2.557
    -22.168,-8.185 -31.134,-12.711c-10.671,-5.387 -16.235,-12.916 -19.369,-26.21c-2.297,-9.741 -1.849,-15.723 1.177,-15.723c0.803,0 2.892,1.075
    4.643,2.388c1.751,1.314 5.545,3.571 8.433,5.017c4.7,2.354 5.252,2.444 5.273,0.862c0.023,-1.792 3.269,-8.029 10.849,-20.844c2.303,-3.893
    6.46,-13.311 9.238,-20.929c2.778,-7.618 7.209,-18.158 9.846,-23.423c2.637,-5.264 6.957,-14.296 9.599,-20.071c2.643,-5.775 9.888,-20.232
    16.102,-32.127c6.302,-12.064 13.897,-28.426 17.175,-37c3.233,-8.455 7.508,-18.604 9.5,-22.553l3.623,-7.18l-3.728,-1.188c-8.116,-2.587
    -9.96,-3.974 -13.091,-9.847c-5.328,-9.997 -8.005,-25.309 -4.879,-27.903c0.909,-0.755 11.64,2.408 38.734,11.415c20.612,6.853 38.494,13.126
    39.738,13.942c6.95,4.553 14.21,31.889 9.279,34.936c-0.503,0.311 -9.535,-2.373 -20.071,-5.965c-10.536,-3.591 -19.783,-6.53 -20.547,-6.53
    c-0.818,0 -1.39,1.034 -1.39,2.511c-0,1.381 -3.986,10.493 -8.858,20.25c-4.872,9.756 -11.446,24.489 -14.611,32.739c-3.187,8.311
    -10.686,24.362 -16.816,35.994c-6.085,11.547 -13.718,26.831 -16.962,33.966c-3.243,7.135 -7.396,15.688 -9.227,19.007c-1.832,3.318
    -5.429,11.869 -7.994,19.002c-2.565,7.132 -5.739,15.215 -7.053,17.961c-1.314,2.746 -2.173,5.21 -1.908,5.475c0.265,0.264 4.276,0.733
    8.914,1.041c9.425,0.626 9.699,0.814 13.895,9.554c3.124,6.507 4.871,14.746 4.454,21l-0.334,5l-7.5,0.216c-5.455,0.157 -9.545,-0.408
    -15,-2.072Zm1593.7,-10.025c-9.764,-3.643 -16.201,-10.598 -23.249,-25.119c-11.333,-23.346 -18.092,-58.567 -11.224,-58.484c4.679,0.056
    10.9,12.766 12.798,26.144c1.525,10.757 4.358,16.391 9.867,19.63c4.09,2.405 5.625,2.71 13.61,2.71c10.471,0 20.894,-2.908 28.392,-7.921
    c7.26,-4.855 12.645,-16.777 9.922,-21.969c-2.706,-5.161 -9.161,-11.516 -14.687,-14.461c-3.548,-1.892 -11.756,-4.609 -20.293,-6.72
    c-15.049,-3.72 -20.261,-6.088 -25.519,-11.594c-7.122,-7.456 -14.761,-23.673 -17.945,-38.092c-2.272,-10.293 -2.327,-26.766 -0.113,-33.919
    c5.845,-18.889 34.344,-30.804 49.972,-20.893c5.776,3.663 13.113,12.39 16.338,19.434c3.58,7.82 5.95,20.267 4.548,23.885c-0.586,1.513
    -1.726,2.75 -2.533,2.75c-0.807,0 -3.578,-2.445 -6.158,-5.434c-5.939,-6.879 -8.533,-7.95 -17.807,-7.355c-12.765,0.819 -24.468,7.849
    -28.746,17.267c-4.526,9.964 -1.276,12.88 20.222,18.149c17.877,4.381 23.53,7.038 31.394,14.756c16.182,15.88 27.513,43.499 27.513,67.064
    c-0,21.169 -6.775,31.408 -25.5,38.54c-7.642,2.91 -24.921,3.826 -30.802,1.632Zm-106.189,-192.426c-3.422,-5.171 -6.155,-12.503
    -6.968,-18.694c-0.361,-2.749 -1.346,-9.499 -2.188,-14.999c-1.553,-10.145 -0.958,-15.5 1.721,-15.5c2.163,0 6.837,6.147 8.973,11.798
    c3.502,9.27 6.052,23.805 5.737,32.702c-0.262,7.372 -0.456,8.025 -2.479,8.313c-1.622,0.23 -2.873,-0.714 -4.796,-3.62Z"
          style="fill:rgb(22,23,23);fill-rule:nonzero;"/>
</svg>
